<?xml version="1.0" encoding="UTF-8" standalone="no"?>
<!-- Created with Inkscape (http://www.inkscape.org/) -->

<svg
   width="62.781441"
   height="49"
   viewBox="0 0 16.610922 12.964584"
   version="1.1"
   id="svg5"
   inkscape:version="1.1.2 (b8e25be833, 2022-02-05)"
   sodipodi:docname="ecd_96x76_white.svg"
   inkscape:export-filename="C:\Users\eliot\Documents\Autre\Logo\eCellDive\ecellDive_white_v3.png"
   inkscape:export-xdpi="287.771"
   inkscape:export-ydpi="287.771"
   xmlns:inkscape="http://www.inkscape.org/namespaces/inkscape"
   xmlns:sodipodi="http://sodipodi.sourceforge.net/DTD/sodipodi-0.dtd"
   xmlns="http://www.w3.org/2000/svg"
   xmlns:svg="http://www.w3.org/2000/svg">
  <sodipodi:namedview
     id="namedview7"
     pagecolor="#505050"
     bordercolor="#00eeee"
     borderopacity="1"
     inkscape:pageshadow="0"
     inkscape:pageopacity="0"
     inkscape:pagecheckerboard="0"
     inkscape:document-units="px"
     showgrid="true"
     units="px"
     inkscape:snap-grids="true"
     showguides="false"
     inkscape:lockguides="true"
     inkscape:snap-nodes="false"
     inkscape:zoom="1.0998546"
     inkscape:cx="477.79043"
     inkscape:cy="453.69633"
     inkscape:window-width="2560"
     inkscape:window-height="1377"
     inkscape:window-x="-8"
     inkscape:window-y="-8"
     inkscape:window-maximized="1"
     inkscape:current-layer="layer2"
     inkscape:snap-to-guides="true"
     fit-margin-top="1"
     fit-margin-left="1"
     fit-margin-right="1"
     fit-margin-bottom="1">
    <inkscape:grid
       type="xygrid"
       id="grid34438"
       color="#ff00ff"
       opacity="0.1254902"
       empcolor="#3fffff"
       empopacity="0.25098039"
       empspacing="10"
       spacingx="0.26458334"
       originx="-3.0893932"
       originy="-1.1662836" />
    <sodipodi:guide
       position="0,264.58334"
       orientation="0,1200"
       id="guide41223"
       inkscape:locked="true" />
    <sodipodi:guide
       position="317.5,264.58334"
       orientation="1000,0"
       id="guide41225"
       inkscape:locked="true" />
    <sodipodi:guide
       position="317.5,0"
       orientation="0,-1200"
       id="guide41227"
       inkscape:locked="true" />
    <sodipodi:guide
       position="-15.875,140.22917"
       orientation="-1000,0"
       id="guide41229"
       inkscape:locked="true" />
  </sodipodi:namedview>
  <defs
     id="defs2">
    <marker
       style="overflow:visible"
       id="Arrow1Mend"
       refX="0"
       refY="0"
       orient="auto"
       inkscape:stockid="Arrow1Mend"
       inkscape:isstock="true">
      <path
         transform="matrix(-0.4,0,0,-0.4,-4,0)"
         style="fill:context-stroke;fill-rule:evenodd;stroke:context-stroke;stroke-width:1pt"
         d="M 0,0 5,-5 -12.5,0 5,5 Z"
         id="path7124" />
    </marker>
    <marker
       style="overflow:visible"
       id="SquareL"
       refX="0"
       refY="0"
       orient="auto"
       inkscape:stockid="SquareL"
       inkscape:isstock="true">
      <path
         transform="scale(0.8)"
         style="fill:context-stroke;fill-rule:evenodd;stroke:context-stroke;stroke-width:1pt"
         d="M -5,-5 V 5 H 5 V -5 Z"
         id="path7185" />
    </marker>
    <inkscape:path-effect
       effect="bspline"
       id="path-effect50219"
       is_visible="true"
       lpeversion="1"
       weight="33.333333"
       steps="2"
       helper_size="0"
       apply_no_weight="true"
       apply_with_weight="true"
       only_selected="false" />
    <inkscape:path-effect
       effect="bspline"
       id="path-effect49720"
       is_visible="true"
       lpeversion="1"
       weight="33.333333"
       steps="2"
       helper_size="0"
       apply_no_weight="true"
       apply_with_weight="true"
       only_selected="false" />
    <inkscape:path-effect
       effect="bspline"
       id="path-effect44697"
       is_visible="true"
       lpeversion="1"
       weight="33.333333"
       steps="2"
       helper_size="0"
       apply_no_weight="true"
       apply_with_weight="true"
       only_selected="false" />
    <marker
       style="overflow:visible"
       id="Arrow1Lstart"
       refX="0"
       refY="0"
       orient="auto"
       inkscape:stockid="Arrow1Lstart"
       inkscape:isstock="true">
      <path
         transform="matrix(0.8,0,0,0.8,10,0)"
         style="fill:context-stroke;fill-rule:evenodd;stroke:context-stroke;stroke-width:1pt"
         d="M 0,0 5,-5 -12.5,0 5,5 Z"
         id="path34654" />
    </marker>
    <rect
       x="1086.5168"
       y="213.44591"
       width="183.87207"
       height="129.86768"
       id="rect19795" />
    <inkscape:path-effect
       effect="bspline"
       id="path-effect49720-1"
       is_visible="true"
       lpeversion="1"
       weight="33.333333"
       steps="2"
       helper_size="0"
       apply_no_weight="true"
       apply_with_weight="true"
       only_selected="false" />
    <inkscape:path-effect
       effect="bspline"
       id="path-effect50219-6"
       is_visible="true"
       lpeversion="1"
       weight="33.333333"
       steps="2"
       helper_size="0"
       apply_no_weight="true"
       apply_with_weight="true"
       only_selected="false" />
    <inkscape:path-effect
       effect="bspline"
       id="path-effect49720-6"
       is_visible="true"
       lpeversion="1"
       weight="33.333333"
       steps="2"
       helper_size="0"
       apply_no_weight="true"
       apply_with_weight="true"
       only_selected="false" />
    <inkscape:path-effect
       effect="bspline"
       id="path-effect50219-0"
       is_visible="true"
       lpeversion="1"
       weight="33.333333"
       steps="2"
       helper_size="0"
       apply_no_weight="true"
       apply_with_weight="true"
       only_selected="false" />
  </defs>
  <g
     inkscape:groupmode="layer"
     id="layer2"
     inkscape:label="Calque 2"
     transform="translate(-4.7961444,-3.8121209)"
     style="display:inline">
    <text
       xml:space="preserve"
       style="font-style:normal;font-weight:normal;font-size:6.12202px;line-height:1.25;font-family:sans-serif;fill:#ffffff;fill-opacity:1;stroke:none;stroke-width:0.0153051"
       x="4.6279635"
       y="8.7280045"
       id="text2168-6"><tspan
         sodipodi:role="line"
         id="tspan2166-6"
         style="font-size:6.12202px;fill:#ffffff;fill-opacity:1;stroke-width:0.0153051"
         x="4.6279635"
         y="8.7280045"><tspan
   style="font-style:normal;font-variant:normal;font-weight:normal;font-stretch:normal;font-size:6.12202px;font-family:'Monotype Corsiva';-inkscape-font-specification:'Monotype Corsiva';stroke-width:0.0153051"
   id="tspan15555-1">e</tspan>Cell</tspan></text>
    <path
       style="fill:none;stroke:#ffffff;stroke-width:0.382629;stroke-linecap:round;stroke-linejoin:round;stroke-miterlimit:4;stroke-dasharray:none;stroke-opacity:1"
       d="M 5.2520422,15.861652 V 9.4334903 H 17.343108 v 6.4281617"
       id="path34553-0"
       sodipodi:nodetypes="cccc" />
    <path
       style="fill:none;stroke:#ffffff;stroke-width:0.229577;stroke-linecap:square;stroke-linejoin:round;stroke-miterlimit:4;stroke-dasharray:none;stroke-opacity:1;paint-order:normal"
       d="m 17.878789,15.035173 c 0,0 1.913107,2.31e-4 2.219246,0 -1.16e-4,-0.459058 0.05555,-1.224393 -1.109624,-1.224412 -1.165177,-1.8e-5 -1.187636,0.765828 -1.186149,1.224412 0.0015,0.458583 0.0211,1.224637 1.186149,1.224411 1.165043,-2.3e-4 2.028863,-0.0096 2.027932,-1.224411"
       id="path44987-4"
       sodipodi:nodetypes="cczzzc" />
    <path
       style="fill:none;fill-opacity:1;stroke:#ffffff;stroke-width:0.229577;stroke-linecap:round;stroke-linejoin:miter;stroke-miterlimit:4;stroke-dasharray:none;stroke-opacity:1"
       d="m 5.9407735,10.122222 c 1.5124231,0 3.0247997,0 3.7810111,0.478303 0.7562114,0.478303 0.7562114,1.434837 0.7562114,2.365919 0,0.931081 0,1.836616 -0.7561965,2.289387 -0.7561966,0.45277 -2.2686029,0.45277 -3.781026,0.45277"
       id="path49718-4"
       inkscape:path-effect="#path-effect49720-1"
       inkscape:original-d="m 5.9407735,10.122222 c 1.5124231,1.5e-5 3.0247997,1.5e-5 4.5372225,0 1.5e-5,0.956606 1.5e-5,1.91314 0,2.869715 1.5e-5,0.905588 1.5e-5,1.811123 0,2.716664 -1.5123931,1.5e-5 -3.0247994,1.5e-5 -4.5372225,0"
       sodipodi:nodetypes="ccccc" />
    <path
       style="fill:none;fill-opacity:1;stroke:#ffffff;stroke-width:0.229577;stroke-linecap:round;stroke-linejoin:miter;stroke-miterlimit:4;stroke-dasharray:none;stroke-opacity:1"
       d="m 11.986307,10.122222 c 0.714244,2.83147 1.42847,5.662866 2.142721,5.662862 0.714251,-3e-6 1.428477,-2.8314 2.14272,-5.662862"
       id="path50217-5"
       inkscape:path-effect="#path-effect50219-6"
       inkscape:original-d="m 11.986307,10.122222 c 0.714255,2.831467 1.428481,5.662863 2.14272,8.494356 0.714269,-2.831493 1.428496,-5.662889 2.142721,-8.494356"
       sodipodi:nodetypes="ccc" />
    <path
       id="path7631-3"
       style="fill:#ffffff;fill-opacity:1;fill-rule:evenodd;stroke:none;stroke-width:0.229577;stroke-linecap:butt;stroke-linejoin:round;stroke-miterlimit:4;stroke-dasharray:none;paint-order:normal"
       d="M 19.569886,7.3634423 A 1.1807786,1.1807786 0 0 0 18.783549,8.8365678 1.1807786,1.1807786 0 0 0 20.256683,9.6229346 1.1807786,1.1807786 0 0 0 21.043013,8.14978 1.1807786,1.1807786 0 0 0 19.569886,7.3634423 Z m 0.05516,0.2017184 a 0.85355277,0.85355277 0 0 1 1.064901,0.5684318 0.85355277,0.85355277 0 0 1 -0.568432,1.0649034 0.85355277,0.85355277 0 0 1 -1.064902,-0.568433 0.85355277,0.85355277 0 0 1 0.568433,-1.0649022 z" />
    <path
       id="path7631-8-1"
       style="fill:#ffffff;fill-opacity:1;fill-rule:evenodd;stroke:none;stroke-width:0.0695536;stroke-linecap:butt;stroke-linejoin:round;stroke-miterlimit:4;stroke-dasharray:none;paint-order:normal"
       d="m 21.076131,14.553737 a 0.36930606,0.34652759 74.273369 0 0 -0.07741,-0.515941 0.36930606,0.34652759 74.273369 0 0 -0.486382,0.06462 0.36930606,0.34652759 74.273369 0 0 0.07742,0.515947 0.36930606,0.34652759 74.273369 0 0 0.486375,-0.06463 z m -0.04888,-0.0414 a 0.26696132,0.25049538 74.273369 0 1 -0.351594,0.04672 0.26696132,0.25049538 74.273369 0 1 -0.05596,-0.372967 0.26696132,0.25049538 74.273369 0 1 0.351595,-0.04672 0.26696132,0.25049538 74.273369 0 1 0.05596,0.372968 z" />
    <path
       id="path7631-8-2-4"
       style="fill:#ffffff;fill-opacity:1;fill-rule:evenodd;stroke:none;stroke-width:0.190835;stroke-linecap:butt;stroke-linejoin:round;stroke-miterlimit:4;stroke-dasharray:none;paint-order:normal"
       d="m 18.132298,11.453317 a 0.97906182,0.98398138 0 0 0 1.372233,0.185499 0.97906182,0.98398138 0 0 0 0.18459,-1.379145 0.97906182,0.98398138 0 0 0 -1.372254,-0.185482 0.97906182,0.98398138 0 0 0 -0.184569,1.379128 z m 0.140768,-0.101756 a 0.70773716,0.71129338 0 0 1 0.133423,-0.996954 0.70773716,0.71129338 0 0 1 0.991968,0.134094 0.70773716,0.71129338 0 0 1 -0.133423,0.996953 0.70773716,0.71129338 0 0 1 -0.991968,-0.134093 z" />
    <path
       id="path7631-9-7"
       style="fill:#ffffff;fill-opacity:1;fill-rule:evenodd;stroke:none;stroke-width:0.286395;stroke-linecap:butt;stroke-linejoin:round;stroke-miterlimit:4;stroke-dasharray:none;paint-order:normal"
       d="m 19.345401,4.100601 a 1.4730089,1.4730089 0 0 0 -1.472998,1.472996 1.4730089,1.4730089 0 0 0 1.472998,1.472996 1.4730089,1.4730089 0 0 0 1.472995,-1.472996 1.4730089,1.4730089 0 0 0 -1.472995,-1.472996 z m 0.104116,0.4493198 A 1.1820014,1.1820014 0 0 1 20.63153,5.7318976 1.1820014,1.1820014 0 0 1 19.449517,6.9139111 1.1820014,1.1820014 0 0 1 18.267541,5.7318976 1.1820014,1.1820014 0 0 1 19.449517,4.5499208 Z" />
    <path
       id="path7631-9-4-7"
       style="fill:#ffffff;fill-opacity:1;fill-rule:evenodd;stroke:none;stroke-width:0.147839;stroke-linecap:butt;stroke-linejoin:round;stroke-miterlimit:4;stroke-dasharray:none;paint-order:normal"
       d="m 20.129201,11.9616 a 0.75894121,0.76182314 0 0 0 -0.758936,0.761817 0.75894121,0.76182314 0 0 0 0.758936,0.761817 0.75894121,0.76182314 0 0 0 0.758933,-0.761817 0.75894121,0.76182314 0 0 0 -0.758933,-0.761817 z m 0.05365,0.232383 a 0.60900484,0.61131741 0 0 1 0.609011,0.611306 0.60900484,0.61131741 0 0 1 -0.609011,0.611323 0.60900484,0.61131741 0 0 1 -0.608991,-0.611323 0.60900484,0.61131741 0 0 1 0.608991,-0.611306 z"
       inkscape:export-filename="C:\Users\eliot\Documents\Autre\Logo\eCellDive\path7631-9-4.png"
       inkscape:export-xdpi="287.771"
       inkscape:export-ydpi="287.771" />
    <circle
       style="fill:#ffffff;fill-opacity:1;fill-rule:evenodd;stroke:none;stroke-width:0.216429;stroke-linecap:butt;stroke-linejoin:round;stroke-miterlimit:4;stroke-dasharray:none;paint-order:normal"
       id="path10155-0"
       cx="11.297574"
       cy="13.336302"
       r="0.2295772" />
    <path
       style="fill:none;stroke:#ffffff;stroke-width:0.229577;stroke-linecap:round;stroke-linejoin:bevel;stroke-miterlimit:4;stroke-dasharray:none;stroke-opacity:1"
       d="m 5.2520422,16.397332 h 5.7394298 l 0.306103,-2.525349 0.306103,2.525349 h 5.73943"
       id="path3860"
       sodipodi:nodetypes="ccccc" />
  </g>
</svg>
