<?xml version="1.0" encoding="us-ascii" standalone="no"?><svg xmlns="http://www.w3.org/2000/svg" xmlns:xlink="http://www.w3.org/1999/xlink" contentStyleType="text/css" height="514px" preserveAspectRatio="none" style="width:924px;height:514px;background:#FFFFFF;" version="1.1" viewBox="0 0 924 514" width="924px" zoomAndPan="magnify"><defs/><g><!--class IEdge--><g id="elem_IEdge"><rect codeLine="1" fill="#F1F1F1" height="113.1875" id="IEdge" rx="2.5" ry="2.5" style="stroke:#181818;stroke-width:0.5;" width="98" x="625.5" y="7"/><ellipse cx="652.2" cy="23" fill="#B4A7E5" rx="11" ry="11" style="stroke:#181818;stroke-width:1.0;"/><path d="M653.1531,19.7813 L654.8719,19.7813 C655.2625,19.7813 655.45,19.75 655.575,19.6719 C655.8406,19.5156 655.9813,19.2344 655.9813,18.9375 C655.9813,18.6719 655.8719,18.4063 655.6375,18.2344 C655.4656,18.125 655.325,18.0938 654.8719,18.0938 L649.7313,18.0938 C649.2938,18.0938 649.1688,18.1094 649.0125,18.2031 C648.7625,18.3594 648.6063,18.6563 648.6063,18.9375 C648.6063,19.2188 648.7469,19.4688 648.9656,19.6406 C649.1219,19.75 649.3094,19.7813 649.7313,19.7813 L651.45,19.7813 L651.45,26.2969 L649.7313,26.2969 C649.2938,26.2969 649.1688,26.3125 649.0125,26.4219 C648.7625,26.5781 648.6063,26.8594 648.6063,27.1563 C648.6063,27.4063 648.7469,27.6719 648.9656,27.8281 C649.1219,27.9531 649.325,28 649.7313,28 L654.8719,28 C655.6219,28 655.9813,27.7188 655.9813,27.1563 C655.9813,26.875 655.8719,26.625 655.6375,26.4531 C655.4656,26.3281 655.325,26.2969 654.8719,26.2969 L653.1531,26.2969 L653.1531,19.7813 Z " fill="#000000"/><text fill="#000000" font-family="sans-serif" font-size="14" font-style="italic" lengthAdjust="spacing" textLength="40" x="668.8" y="27.8467">IEdge</text><line style="stroke:#181818;stroke-width:0.5;" x1="626.5" x2="722.5" y1="39" y2="39"/><text fill="#000000" font-family="sans-serif" font-size="14" lengthAdjust="spacing" textLength="47" x="631.5" y="55.9951">uint ID</text><text fill="#000000" font-family="sans-serif" font-size="14" lengthAdjust="spacing" textLength="86" x="631.5" y="72.292">string name</text><text fill="#000000" font-family="sans-serif" font-size="14" lengthAdjust="spacing" textLength="79" x="631.5" y="88.5889">uint source</text><text fill="#000000" font-family="sans-serif" font-size="14" lengthAdjust="spacing" textLength="78" x="631.5" y="104.8857">uint target</text><line style="stroke:#181818;stroke-width:0.5;" x1="626.5" x2="722.5" y1="112.1875" y2="112.1875"/></g><!--class INode--><g id="elem_INode"><rect codeLine="8" fill="#F1F1F1" height="113.1875" id="INode" rx="2.5" ry="2.5" style="stroke:#181818;stroke-width:0.5;" width="215" x="116" y="7"/><ellipse cx="198.75" cy="23" fill="#B4A7E5" rx="11" ry="11" style="stroke:#181818;stroke-width:1.0;"/><path d="M199.7031,19.7813 L201.4219,19.7813 C201.8125,19.7813 202,19.75 202.125,19.6719 C202.3906,19.5156 202.5313,19.2344 202.5313,18.9375 C202.5313,18.6719 202.4219,18.4063 202.1875,18.2344 C202.0156,18.125 201.875,18.0938 201.4219,18.0938 L196.2813,18.0938 C195.8438,18.0938 195.7188,18.1094 195.5625,18.2031 C195.3125,18.3594 195.1563,18.6563 195.1563,18.9375 C195.1563,19.2188 195.2969,19.4688 195.5156,19.6406 C195.6719,19.75 195.8594,19.7813 196.2813,19.7813 L198,19.7813 L198,26.2969 L196.2813,26.2969 C195.8438,26.2969 195.7188,26.3125 195.5625,26.4219 C195.3125,26.5781 195.1563,26.8594 195.1563,27.1563 C195.1563,27.4063 195.2969,27.6719 195.5156,27.8281 C195.6719,27.9531 195.875,28 196.2813,28 L201.4219,28 C202.1719,28 202.5313,27.7188 202.5313,27.1563 C202.5313,26.875 202.4219,26.625 202.1875,26.4531 C202.0156,26.3281 201.875,26.2969 201.4219,26.2969 L199.7031,26.2969 L199.7031,19.7813 Z " fill="#000000"/><text fill="#000000" font-family="sans-serif" font-size="14" font-style="italic" lengthAdjust="spacing" textLength="41" x="219.25" y="27.8467">INode</text><line style="stroke:#181818;stroke-width:0.5;" x1="117" x2="330" y1="39" y2="39"/><text fill="#000000" font-family="sans-serif" font-size="14" lengthAdjust="spacing" textLength="47" x="122" y="55.9951">uint ID</text><text fill="#000000" font-family="sans-serif" font-size="14" lengthAdjust="spacing" textLength="86" x="122" y="72.292">string name</text><text fill="#000000" font-family="sans-serif" font-size="14" lengthAdjust="spacing" textLength="203" x="122" y="88.5889">List&lt;uint&gt; incommingEdges</text><text fill="#000000" font-family="sans-serif" font-size="14" lengthAdjust="spacing" textLength="187" x="122" y="104.8857">List&lt;uint&gt; outgoingEdges</text><line style="stroke:#181818;stroke-width:0.5;" x1="117" x2="330" y1="112.1875" y2="112.1875"/></g><!--class IGraph--><g id="elem_IGraph"><rect codeLine="15" fill="#F1F1F1" height="96.8906" id="IGraph" rx="2.5" ry="2.5" style="stroke:#181818;stroke-width:0.5;" width="296" x="301.5" y="185"/><ellipse cx="316.5" cy="201" fill="#B4A7E5" rx="11" ry="11" style="stroke:#181818;stroke-width:1.0;"/><path d="M317.4531,197.7813 L319.1719,197.7813 C319.5625,197.7813 319.75,197.75 319.875,197.6719 C320.1406,197.5156 320.2813,197.2344 320.2813,196.9375 C320.2813,196.6719 320.1719,196.4063 319.9375,196.2344 C319.7656,196.125 319.625,196.0938 319.1719,196.0938 L314.0313,196.0938 C313.5938,196.0938 313.4688,196.1094 313.3125,196.2031 C313.0625,196.3594 312.9063,196.6563 312.9063,196.9375 C312.9063,197.2188 313.0469,197.4688 313.2656,197.6406 C313.4219,197.75 313.6094,197.7813 314.0313,197.7813 L315.75,197.7813 L315.75,204.2969 L314.0313,204.2969 C313.5938,204.2969 313.4688,204.3125 313.3125,204.4219 C313.0625,204.5781 312.9063,204.8594 312.9063,205.1563 C312.9063,205.4063 313.0469,205.6719 313.2656,205.8281 C313.4219,205.9531 313.625,206 314.0313,206 L319.1719,206 C319.9219,206 320.2813,205.7188 320.2813,205.1563 C320.2813,204.875 320.1719,204.625 319.9375,204.4531 C319.7656,204.3281 319.625,204.2969 319.1719,204.2969 L317.4531,204.2969 L317.4531,197.7813 Z " fill="#000000"/><text fill="#000000" font-family="sans-serif" font-size="14" font-style="italic" lengthAdjust="spacing" textLength="48" x="330.5" y="205.8467">IGraph</text><rect fill="#FFFFFF" height="29.9375" style="stroke:#181818;stroke-width:1.0;stroke-dasharray:2.0,2.0;" width="214" x="386.5" y="182"/><text fill="#000000" font-family="sans-serif" font-size="12" font-style="italic" lengthAdjust="spacing" textLength="208" x="389.5" y="194.1387">EdgeType where EdgeType: IEdge</text><text fill="#000000" font-family="sans-serif" font-size="12" font-style="italic" lengthAdjust="spacing" textLength="208" x="391.5" y="208.1074">NodeType where NodeType: INode</text><line style="stroke:#181818;stroke-width:0.5;" x1="302.5" x2="596.5" y1="217" y2="217"/><text fill="#000000" font-family="sans-serif" font-size="14" lengthAdjust="spacing" textLength="86" x="307.5" y="233.9951">string name</text><text fill="#000000" font-family="sans-serif" font-size="14" lengthAdjust="spacing" textLength="130" x="307.5" y="250.292">NodeType[] nodes</text><text fill="#000000" font-family="sans-serif" font-size="14" lengthAdjust="spacing" textLength="129" x="307.5" y="266.5889">EdgeType[] edges</text><line style="stroke:#181818;stroke-width:0.5;" x1="302.5" x2="596.5" y1="273.8906" y2="273.8906"/></g><!--class Edge--><g id="elem_Edge"><rect codeLine="21" fill="#F1F1F1" height="48" id="Edge" rx="2.5" ry="2.5" style="stroke:#181818;stroke-width:0.5;" width="68" x="640.5" y="209"/><ellipse cx="655.5" cy="225" fill="#F1F1F1" rx="11" ry="11" style="stroke:#181818;stroke-width:1.0;"/><path d="M659.2813,220.9688 C659.2813,220.5313 659.2656,220.3906 659.1719,220.2344 C659.0313,220 658.75,219.8438 658.4531,219.8438 C658.1094,219.8438 657.9688,219.9844 657.7969,220.4063 C657.2031,220.0313 656.4531,219.8438 655.5781,219.8438 C653.4688,219.8438 651.8906,221.1406 651.8906,222.8594 C651.8906,223.8281 652.4219,224.7344 653.2813,225.2188 C653.8281,225.5313 654.375,225.7031 655.4844,225.8906 C656.6406,226.0938 656.9063,226.1563 657.2656,226.3438 C657.6406,226.5469 657.875,226.8906 657.875,227.25 C657.875,227.9844 656.8906,228.5313 655.6406,228.5313 C654.5156,228.5313 653.4375,228.0469 653.2656,227.4375 C653.1406,226.9688 653.1406,226.9688 653.0156,226.8594 C652.8594,226.7031 652.6406,226.6094 652.4063,226.6094 C652.125,226.6094 651.875,226.7344 651.7031,226.9531 C651.5938,227.125 651.5469,227.3125 651.5469,227.7344 L651.5469,228.8594 C651.5469,229.625 651.8281,229.9844 652.4219,229.9844 C652.6875,229.9844 652.8125,229.9219 653.0938,229.5781 C653.9375,230.0156 654.8281,230.2344 655.75,230.2344 C658.0781,230.2344 659.6406,229.0469 659.6406,227.2813 C659.6406,226.3906 659.3281,225.7031 658.6406,225.1563 C658.1094,224.7344 657.4688,224.4844 655.9844,224.2188 C654.7188,223.9844 654.625,223.9531 654.2969,223.7813 C653.9219,223.5938 653.6563,223.2031 653.6563,222.8438 C653.6563,222.1094 654.5156,221.5469 655.5781,221.5469 C656.6406,221.5469 657.4531,222.0156 657.6094,222.6875 C657.7188,223.2344 657.7188,223.2344 657.8438,223.375 C657.9844,223.5 658.2188,223.6094 658.4531,223.6094 C658.7188,223.6094 658.9688,223.4688 659.1406,223.25 C659.25,223.0781 659.2813,222.9375 659.2813,222.4688 L659.2813,220.9688 Z " fill="#000000"/><text fill="#000000" font-family="sans-serif" font-size="14" lengthAdjust="spacing" textLength="36" x="669.5" y="229.8467">Edge</text><line style="stroke:#181818;stroke-width:0.5;" x1="641.5" x2="707.5" y1="241" y2="241"/><line style="stroke:#181818;stroke-width:0.5;" x1="641.5" x2="707.5" y1="249" y2="249"/></g><!--class Node--><g id="elem_Node"><rect codeLine="22" fill="#F1F1F1" height="48" id="Node" rx="2.5" ry="2.5" style="stroke:#181818;stroke-width:0.5;" width="69" x="189" y="209"/><ellipse cx="204" cy="225" fill="#F1F1F1" rx="11" ry="11" style="stroke:#181818;stroke-width:1.0;"/><path d="M207.7813,220.9688 C207.7813,220.5313 207.7656,220.3906 207.6719,220.2344 C207.5313,220 207.25,219.8438 206.9531,219.8438 C206.6094,219.8438 206.4688,219.9844 206.2969,220.4063 C205.7031,220.0313 204.9531,219.8438 204.0781,219.8438 C201.9688,219.8438 200.3906,221.1406 200.3906,222.8594 C200.3906,223.8281 200.9219,224.7344 201.7813,225.2188 C202.3281,225.5313 202.875,225.7031 203.9844,225.8906 C205.1406,226.0938 205.4063,226.1563 205.7656,226.3438 C206.1406,226.5469 206.375,226.8906 206.375,227.25 C206.375,227.9844 205.3906,228.5313 204.1406,228.5313 C203.0156,228.5313 201.9375,228.0469 201.7656,227.4375 C201.6406,226.9688 201.6406,226.9688 201.5156,226.8594 C201.3594,226.7031 201.1406,226.6094 200.9063,226.6094 C200.625,226.6094 200.375,226.7344 200.2031,226.9531 C200.0938,227.125 200.0469,227.3125 200.0469,227.7344 L200.0469,228.8594 C200.0469,229.625 200.3281,229.9844 200.9219,229.9844 C201.1875,229.9844 201.3125,229.9219 201.5938,229.5781 C202.4375,230.0156 203.3281,230.2344 204.25,230.2344 C206.5781,230.2344 208.1406,229.0469 208.1406,227.2813 C208.1406,226.3906 207.8281,225.7031 207.1406,225.1563 C206.6094,224.7344 205.9688,224.4844 204.4844,224.2188 C203.2188,223.9844 203.125,223.9531 202.7969,223.7813 C202.4219,223.5938 202.1563,223.2031 202.1563,222.8438 C202.1563,222.1094 203.0156,221.5469 204.0781,221.5469 C205.1406,221.5469 205.9531,222.0156 206.1094,222.6875 C206.2188,223.2344 206.2188,223.2344 206.3438,223.375 C206.4844,223.5 206.7188,223.6094 206.9531,223.6094 C207.2188,223.6094 207.4688,223.4688 207.6406,223.25 C207.75,223.0781 207.7813,222.9375 207.7813,222.4688 L207.7813,220.9688 Z " fill="#000000"/><text fill="#000000" font-family="sans-serif" font-size="14" lengthAdjust="spacing" textLength="37" x="218" y="229.8467">Node</text><line style="stroke:#181818;stroke-width:0.5;" x1="190" x2="257" y1="241" y2="241"/><line style="stroke:#181818;stroke-width:0.5;" x1="190" x2="257" y1="249" y2="249"/></g><!--class CyJsonEdge--><g id="elem_CyJsonEdge"><rect codeLine="23" fill="#F1F1F1" height="64.2969" id="CyJsonEdge" rx="2.5" ry="2.5" style="stroke:#181818;stroke-width:0.5;" width="173" x="744" y="201"/><ellipse cx="785.1" cy="217" fill="#F1F1F1" rx="11" ry="11" style="stroke:#181818;stroke-width:1.0;"/><path d="M788.8813,212.9688 C788.8813,212.5313 788.8656,212.3906 788.7719,212.2344 C788.6313,212 788.35,211.8438 788.0531,211.8438 C787.7094,211.8438 787.5688,211.9844 787.3969,212.4063 C786.8031,212.0313 786.0531,211.8438 785.1781,211.8438 C783.0688,211.8438 781.4906,213.1406 781.4906,214.8594 C781.4906,215.8281 782.0219,216.7344 782.8813,217.2188 C783.4281,217.5313 783.975,217.7031 785.0844,217.8906 C786.2406,218.0938 786.5063,218.1563 786.8656,218.3438 C787.2406,218.5469 787.475,218.8906 787.475,219.25 C787.475,219.9844 786.4906,220.5313 785.2406,220.5313 C784.1156,220.5313 783.0375,220.0469 782.8656,219.4375 C782.7406,218.9688 782.7406,218.9688 782.6156,218.8594 C782.4594,218.7031 782.2406,218.6094 782.0063,218.6094 C781.725,218.6094 781.475,218.7344 781.3031,218.9531 C781.1938,219.125 781.1469,219.3125 781.1469,219.7344 L781.1469,220.8594 C781.1469,221.625 781.4281,221.9844 782.0219,221.9844 C782.2875,221.9844 782.4125,221.9219 782.6938,221.5781 C783.5375,222.0156 784.4281,222.2344 785.35,222.2344 C787.6781,222.2344 789.2406,221.0469 789.2406,219.2813 C789.2406,218.3906 788.9281,217.7031 788.2406,217.1563 C787.7094,216.7344 787.0688,216.4844 785.5844,216.2188 C784.3188,215.9844 784.225,215.9531 783.8969,215.7813 C783.5219,215.5938 783.2563,215.2031 783.2563,214.8438 C783.2563,214.1094 784.1156,213.5469 785.1781,213.5469 C786.2406,213.5469 787.0531,214.0156 787.2094,214.6875 C787.3188,215.2344 787.3188,215.2344 787.4438,215.375 C787.5844,215.5 787.8188,215.6094 788.0531,215.6094 C788.3188,215.6094 788.5688,215.4688 788.7406,215.25 C788.85,215.0781 788.8813,214.9375 788.8813,214.4688 L788.8813,212.9688 Z " fill="#000000"/><text fill="#000000" font-family="sans-serif" font-size="14" lengthAdjust="spacing" textLength="83" x="804.9" y="221.8467">CyJsonEdge</text><line style="stroke:#181818;stroke-width:0.5;" x1="745" x2="916" y1="233" y2="233"/><ellipse cx="755" cy="246.6484" fill="none" rx="3" ry="3" style="stroke:#038048;stroke-width:1.0;"/><text fill="#000000" font-family="sans-serif" font-size="14" lengthAdjust="spacing" textLength="147" x="764" y="249.9951">string reactionName</text><line style="stroke:#181818;stroke-width:0.5;" x1="745" x2="916" y1="257.2969" y2="257.2969"/></g><!--class CyJsonNode--><g id="elem_CyJsonNode"><rect codeLine="26" fill="#F1F1F1" height="96.8906" id="CyJsonNode" rx="2.5" ry="2.5" style="stroke:#181818;stroke-width:0.5;" width="147" x="7" y="184.5"/><ellipse cx="35.95" cy="200.5" fill="#F1F1F1" rx="11" ry="11" style="stroke:#181818;stroke-width:1.0;"/><path d="M39.7313,196.4688 C39.7313,196.0313 39.7156,195.8906 39.6219,195.7344 C39.4813,195.5 39.2,195.3438 38.9031,195.3438 C38.5594,195.3438 38.4188,195.4844 38.2469,195.9063 C37.6531,195.5313 36.9031,195.3438 36.0281,195.3438 C33.9188,195.3438 32.3406,196.6406 32.3406,198.3594 C32.3406,199.3281 32.8719,200.2344 33.7313,200.7188 C34.2781,201.0313 34.825,201.2031 35.9344,201.3906 C37.0906,201.5938 37.3563,201.6563 37.7156,201.8438 C38.0906,202.0469 38.325,202.3906 38.325,202.75 C38.325,203.4844 37.3406,204.0313 36.0906,204.0313 C34.9656,204.0313 33.8875,203.5469 33.7156,202.9375 C33.5906,202.4688 33.5906,202.4688 33.4656,202.3594 C33.3094,202.2031 33.0906,202.1094 32.8563,202.1094 C32.575,202.1094 32.325,202.2344 32.1531,202.4531 C32.0438,202.625 31.9969,202.8125 31.9969,203.2344 L31.9969,204.3594 C31.9969,205.125 32.2781,205.4844 32.8719,205.4844 C33.1375,205.4844 33.2625,205.4219 33.5438,205.0781 C34.3875,205.5156 35.2781,205.7344 36.2,205.7344 C38.5281,205.7344 40.0906,204.5469 40.0906,202.7813 C40.0906,201.8906 39.7781,201.2031 39.0906,200.6563 C38.5594,200.2344 37.9188,199.9844 36.4344,199.7188 C35.1688,199.4844 35.075,199.4531 34.7469,199.2813 C34.3719,199.0938 34.1063,198.7031 34.1063,198.3438 C34.1063,197.6094 34.9656,197.0469 36.0281,197.0469 C37.0906,197.0469 37.9031,197.5156 38.0594,198.1875 C38.1688,198.7344 38.1688,198.7344 38.2938,198.875 C38.4344,199 38.6688,199.1094 38.9031,199.1094 C39.1688,199.1094 39.4188,198.9688 39.5906,198.75 C39.7,198.5781 39.7313,198.4375 39.7313,197.9688 L39.7313,196.4688 Z " fill="#000000"/><text fill="#000000" font-family="sans-serif" font-size="14" lengthAdjust="spacing" textLength="84" x="53.05" y="205.3467">CyJsonNode</text><line style="stroke:#181818;stroke-width:0.5;" x1="8" x2="153" y1="216.5" y2="216.5"/><ellipse cx="18" cy="230.1484" fill="none" rx="3" ry="3" style="stroke:#038048;stroke-width:1.0;"/><text fill="#000000" font-family="sans-serif" font-size="14" lengthAdjust="spacing" textLength="121" x="27" y="233.4951">Vector3 position</text><ellipse cx="18" cy="246.4453" fill="none" rx="3" ry="3" style="stroke:#038048;stroke-width:1.0;"/><text fill="#000000" font-family="sans-serif" font-size="14" lengthAdjust="spacing" textLength="81" x="27" y="249.792">string label</text><ellipse cx="18" cy="262.7422" fill="none" rx="3" ry="3" style="stroke:#038048;stroke-width:1.0;"/><text fill="#000000" font-family="sans-serif" font-size="14" lengthAdjust="spacing" textLength="94" x="27" y="266.0889">bool isVirtual</text><line style="stroke:#181818;stroke-width:0.5;" x1="8" x2="153" y1="273.3906" y2="273.3906"/></g><!--class CyJsonPathway--><g id="elem_CyJsonPathway"><rect codeLine="32" fill="#F1F1F1" height="145.7813" id="CyJsonPathway" rx="2.5" ry="2.5" style="stroke:#181818;stroke-width:0.5;" width="406" x="45.5" y="362"/><ellipse cx="190.75" cy="378" fill="#ADD1B2" rx="11" ry="11" style="stroke:#181818;stroke-width:1.0;"/><path d="M193.0938,373.6719 C192.1563,373.2344 191.5625,373.0938 190.6875,373.0938 C188.0625,373.0938 186.0625,375.1719 186.0625,377.8906 L186.0625,379.0156 C186.0625,381.5938 188.1719,383.4844 191.0625,383.4844 C192.2813,383.4844 193.4375,383.1875 194.1875,382.6406 C194.7656,382.2344 195.0938,381.7813 195.0938,381.3906 C195.0938,380.9375 194.7031,380.5469 194.2344,380.5469 C194.0156,380.5469 193.8125,380.625 193.625,380.8125 C193.1719,381.2969 193.1719,381.2969 192.9844,381.3906 C192.5625,381.6563 191.875,381.7813 191.1094,381.7813 C189.0625,381.7813 187.7656,380.6875 187.7656,378.9844 L187.7656,377.8906 C187.7656,376.1094 189.0156,374.7969 190.75,374.7969 C191.3281,374.7969 191.9375,374.9531 192.4063,375.2031 C192.8906,375.4844 193.0625,375.7031 193.1563,376.1094 C193.2188,376.5156 193.25,376.6406 193.3906,376.7656 C193.5313,376.9063 193.7656,377.0156 193.9844,377.0156 C194.25,377.0156 194.5156,376.875 194.6875,376.6563 C194.7969,376.5 194.8281,376.3125 194.8281,375.8906 L194.8281,374.4688 C194.8281,374.0313 194.8125,373.9063 194.7188,373.75 C194.5625,373.4844 194.2813,373.3438 193.9844,373.3438 C193.6875,373.3438 193.4844,373.4375 193.2656,373.75 L193.0938,373.6719 Z " fill="#000000"/><text fill="#000000" font-family="sans-serif" font-size="14" lengthAdjust="spacing" textLength="107" x="211.25" y="382.8467">CyJsonPathway</text><line style="stroke:#181818;stroke-width:0.5;" x1="46.5" x2="450.5" y1="394" y2="394"/><ellipse cx="56.5" cy="407.6484" fill="none" rx="3" ry="3" style="stroke:#038048;stroke-width:1.0;"/><text fill="#000000" font-family="sans-serif" font-size="14" lengthAdjust="spacing" textLength="380" x="65.5" y="410.9951">GraphData&lt;JObject, JArray, JArray&gt; cyJsonGraphData</text><line style="stroke:#181818;stroke-width:0.5;" x1="46.5" x2="450.5" y1="418.2969" y2="418.2969"/><ellipse cx="56.5" cy="431.9453" fill="#84BE84" rx="3" ry="3" style="stroke:#038048;stroke-width:1.0;"/><text fill="#000000" font-family="sans-serif" font-size="14" lengthAdjust="spacing" textLength="305" x="65.5" y="435.292">CyJsonPathway(string _path, string _name)</text><ellipse cx="56.5" cy="448.2422" fill="#84BE84" rx="3" ry="3" style="stroke:#038048;stroke-width:1.0;"/><text fill="#000000" font-family="sans-serif" font-size="14" lengthAdjust="spacing" textLength="370" x="65.5" y="451.5889">CyJsonPathway(JObject _cyJspathway, string _name)</text><ellipse cx="56.5" cy="464.5391" fill="#84BE84" rx="3" ry="3" style="stroke:#038048;stroke-width:1.0;"/><text fill="#000000" font-family="sans-serif" font-size="14" lengthAdjust="spacing" textLength="229" x="65.5" y="467.8857">void MapInOutEdgesIntoNodes()</text><ellipse cx="56.5" cy="480.8359" fill="#84BE84" rx="3" ry="3" style="stroke:#038048;stroke-width:1.0;"/><text fill="#000000" font-family="sans-serif" font-size="14" lengthAdjust="spacing" textLength="152" x="65.5" y="484.1826">void PopulateNodes()</text><ellipse cx="56.5" cy="497.1328" fill="#84BE84" rx="3" ry="3" style="stroke:#038048;stroke-width:1.0;"/><text fill="#000000" font-family="sans-serif" font-size="14" lengthAdjust="spacing" textLength="151" x="65.5" y="500.4795">void PopulateEdges()</text></g><!--class ContinuousGraph--><g id="elem_ContinuousGraph"><rect codeLine="41" fill="#F1F1F1" height="80.5938" id="ContinuousGraph" rx="2.5" ry="2.5" style="stroke:#181818;stroke-width:0.5;" width="328" x="486.5" y="394.5"/><ellipse cx="584.25" cy="410.5" fill="#ADD1B2" rx="11" ry="11" style="stroke:#181818;stroke-width:1.0;"/><path d="M586.5938,406.1719 C585.6563,405.7344 585.0625,405.5938 584.1875,405.5938 C581.5625,405.5938 579.5625,407.6719 579.5625,410.3906 L579.5625,411.5156 C579.5625,414.0938 581.6719,415.9844 584.5625,415.9844 C585.7813,415.9844 586.9375,415.6875 587.6875,415.1406 C588.2656,414.7344 588.5938,414.2813 588.5938,413.8906 C588.5938,413.4375 588.2031,413.0469 587.7344,413.0469 C587.5156,413.0469 587.3125,413.125 587.125,413.3125 C586.6719,413.7969 586.6719,413.7969 586.4844,413.8906 C586.0625,414.1563 585.375,414.2813 584.6094,414.2813 C582.5625,414.2813 581.2656,413.1875 581.2656,411.4844 L581.2656,410.3906 C581.2656,408.6094 582.5156,407.2969 584.25,407.2969 C584.8281,407.2969 585.4375,407.4531 585.9063,407.7031 C586.3906,407.9844 586.5625,408.2031 586.6563,408.6094 C586.7188,409.0156 586.75,409.1406 586.8906,409.2656 C587.0313,409.4063 587.2656,409.5156 587.4844,409.5156 C587.75,409.5156 588.0156,409.375 588.1875,409.1563 C588.2969,409 588.3281,408.8125 588.3281,408.3906 L588.3281,406.9688 C588.3281,406.5313 588.3125,406.4063 588.2188,406.25 C588.0625,405.9844 587.7813,405.8438 587.4844,405.8438 C587.1875,405.8438 586.9844,405.9375 586.7656,406.25 L586.5938,406.1719 Z " fill="#000000"/><text fill="#000000" font-family="sans-serif" font-size="14" lengthAdjust="spacing" textLength="124" x="604.75" y="415.3467">ContinuousGraph</text><line style="stroke:#181818;stroke-width:0.5;" x1="487.5" x2="813.5" y1="426.5" y2="426.5"/><line style="stroke:#181818;stroke-width:0.5;" x1="487.5" x2="813.5" y1="434.5" y2="434.5"/><ellipse cx="497.5" cy="448.1484" fill="#84BE84" rx="3" ry="3" style="stroke:#038048;stroke-width:1.0;"/><text fill="#000000" font-family="sans-serif" font-size="14" lengthAdjust="spacing" textLength="227" x="506.5" y="451.4951">ContiguousGraph(string _name)</text><ellipse cx="497.5" cy="464.4453" fill="#84BE84" rx="3" ry="3" style="stroke:#038048;stroke-width:1.0;"/><text fill="#000000" font-family="sans-serif" font-size="14" lengthAdjust="spacing" textLength="302" x="506.5" y="467.792">void Populate(List&lt;int&gt; contiguousNodes)</text></g><!--link IEdge to IGraph--><g id="link_IEdge_IGraph"><path codeLine="46" d="M647.897,120.19 C639.258,139.256 629.981,160.86 622.5,181 C609.575,215.798 641.621,261 604.5,261 " fill="none" id="IEdge-to-IGraph" style="stroke:#181818;stroke-width:1.0;"/><polygon fill="#181818" points="598.5,261,607.5,265,603.5,261,607.5,257,598.5,261" style="stroke:#181818;stroke-width:1.0;"/></g><!--link INode to IGraph--><g id="link_INode_IGraph"><path codeLine="47" d="M249.035,120.264 C257.64,139.431 267.168,161.077 275.5,181 C287.282,209.173 263.962,245 294.5,245 " fill="none" id="INode-to-IGraph" style="stroke:#181818;stroke-width:1.0;"/><polygon fill="#181818" points="300.5,245,291.5,241,295.5,245,291.5,249,300.5,245" style="stroke:#181818;stroke-width:1.0;"/></g><!--reverse link IEdge to Edge--><g id="link_IEdge_Edge"><path codeLine="49" d="M674.5,132.275 C674.5,162.348 674.5,185.858 674.5,208.638 " fill="none" id="IEdge-backto-Edge" style="stroke:#181818;stroke-width:1.0;"/><polygon fill="#181818" points="674.5,120.275,670.5,126.275,674.5,132.275,678.5,126.275,674.5,120.275" style="stroke:#181818;stroke-width:1.0;"/></g><!--reverse link INode to Node--><g id="link_INode_Node"><path codeLine="50" d="M223.5,132.275 C223.5,162.348 223.5,185.858 223.5,208.638 " fill="none" id="INode-backto-Node" style="stroke:#181818;stroke-width:1.0;"/><polygon fill="#181818" points="223.5,120.275,219.5,126.275,223.5,132.275,227.5,126.275,223.5,120.275" style="stroke:#181818;stroke-width:1.0;"/></g><!--reverse link IEdge to CyJsonEdge--><g id="link_IEdge_CyJsonEdge"><path codeLine="51" d="M732.0375,126.2794 C757.5675,153.6914 779.672,177.425 801.432,200.789 " fill="none" id="IEdge-backto-CyJsonEdge" style="stroke:#181818;stroke-width:1.0;"/><polygon fill="#181818" points="723.859,117.498,725.0211,124.6148,732.0375,126.2794,730.8754,119.1625,723.859,117.498" style="stroke:#181818;stroke-width:1.0;"/></g><!--reverse link INode to CyJsonNode--><g id="link_INode_CyJsonNode"><path codeLine="52" d="M168.0916,129.4015 C150.3796,150.1485 138.25,164.356 121.212,184.313 " fill="none" id="INode-backto-CyJsonNode" style="stroke:#181818;stroke-width:1.0;"/><polygon fill="#181818" points="175.883,120.275,168.9451,122.2411,168.0916,129.4015,175.0295,127.4354,175.883,120.275" style="stroke:#181818;stroke-width:1.0;"/></g><!--reverse link IGraph to CyJsonPathway--><g id="link_IGraph_CyJsonPathway"><path codeLine="53" d="M389.4925,293.709 C366.1125,316.972 346.556,336.432 321.089,361.772 " fill="none" id="IGraph-backto-CyJsonPathway" style="stroke:#181818;stroke-width:1.0;"/><polygon fill="#181818" points="397.999,285.245,390.9244,286.6415,389.4925,293.709,396.5671,292.3125,397.999,285.245" style="stroke:#181818;stroke-width:1.0;"/><text fill="#000000" font-family="sans-serif" font-size="13" lengthAdjust="spacing" textLength="181" x="368.5" y="328.0669">&lt;CyJsonEdge, CyJsonNode&gt;</text></g><!--reverse link IGraph to ContinuousGraph--><g id="link_IGraph_ContinuousGraph"><path codeLine="54" d="M533.5909,292.5985 C545.5389,301.9835 547.982,304.68 558.5,315 C583.105,339.141 606.796,370.025 623.974,394.28 " fill="none" id="IGraph-backto-ContinuousGraph" style="stroke:#181818;stroke-width:1.0;"/><polygon fill="#181818" points="524.154,285.186,526.4016,292.0379,533.5909,292.5985,531.3433,285.7466,524.154,285.186" style="stroke:#181818;stroke-width:1.0;"/><text fill="#000000" font-family="sans-serif" font-size="13" lengthAdjust="spacing" textLength="93" x="574.5" y="328.0669">&lt;Edge, Node&gt;</text></g><!--SRC=[ZLDBJy904BxtLyonAZrvQqWJ8yP053WOBch8ignbJTbjTcSbZU6_sttHbg2HItVdUypNOSe5ClL1A8FfmxPay9r0-pDS84mdxgnHSL6287lMOLeQHNjt9Afac1oJX7U6SxdzZ-4JrpYsX0Aue7A_Rr6RHP-Zqc0fJ-2mrwCYzMviaPUcPd3OCSKWNdF_Scy2RAGU8Lvp7xO8QSyJHjhhEuZsw8D5yxR8Og1MQ2WwA9wjDfxlcvcMmgA-pqtif1YXoAMOsux78TqQHFgAKPJg5cgfkUKFNIgoOLKeRQIiWEiLLsX8PRFHYcWTF9S4TmVIH5itl0b1CfujDfzjZn7CxfGYJNmMG9tkH0p2WLiQOgphzZwAeTPsYbSN-Q4PhArvxOkNTL-IR-6Pr5EnCEZ-_gb0QIUZqm5dAMjJ4MH_G4xUGjr8f40kZ3JQlLuSYYkNftBwQwvedBfLTPjAJreNn3NptrUM5M5PyzolZVzC-dM_Oq5mdML-dppFNjrATMYtLJrEjpk9j-rLm_mXXt6d7VKanK0p78zLURvZ_W00]--></g></svg>