<?xml version="1.0" encoding="us-ascii" standalone="no"?><svg xmlns="http://www.w3.org/2000/svg" xmlns:xlink="http://www.w3.org/1999/xlink" contentStyleType="text/css" height="369px" preserveAspectRatio="none" style="width:1252px;height:369px;background:#FFFFFF;" version="1.1" viewBox="0 0 1252 369" width="1252px" zoomAndPan="magnify"><defs/><g><!--class IEdgeGO--><g id="elem_IEdgeGO"><rect codeLine="1" fill="#F1F1F1" height="227.2656" id="IEdgeGO" rx="2.5" ry="2.5" style="stroke:#181818;stroke-width:0.5;" width="476" x="417" y="10"/><ellipse cx="513.75" cy="26" fill="#B4A7E5" rx="11" ry="11" style="stroke:#181818;stroke-width:1.0;"/><path d="M514.7031,22.7813 L516.4219,22.7813 C516.8125,22.7813 517,22.75 517.125,22.6719 C517.3906,22.5156 517.5313,22.2344 517.5313,21.9375 C517.5313,21.6719 517.4219,21.4063 517.1875,21.2344 C517.0156,21.125 516.875,21.0938 516.4219,21.0938 L511.2813,21.0938 C510.8438,21.0938 510.7188,21.1094 510.5625,21.2031 C510.3125,21.3594 510.1563,21.6563 510.1563,21.9375 C510.1563,22.2188 510.2969,22.4688 510.5156,22.6406 C510.6719,22.75 510.8594,22.7813 511.2813,22.7813 L513,22.7813 L513,29.2969 L511.2813,29.2969 C510.8438,29.2969 510.7188,29.3125 510.5625,29.4219 C510.3125,29.5781 510.1563,29.8594 510.1563,30.1563 C510.1563,30.4063 510.2969,30.6719 510.5156,30.8281 C510.6719,30.9531 510.875,31 511.2813,31 L516.4219,31 C517.1719,31 517.5313,30.7188 517.5313,30.1563 C517.5313,29.875 517.4219,29.625 517.1875,29.4531 C517.0156,29.3281 516.875,29.2969 516.4219,29.2969 L514.7031,29.2969 L514.7031,22.7813 Z " fill="#000000"/><text fill="#000000" font-family="sans-serif" font-size="14" font-style="italic" lengthAdjust="spacing" textLength="62" x="534.25" y="30.8467">IEdgeGO</text><rect fill="#FFFFFF" height="15.9688" style="stroke:#181818;stroke-width:1.0;stroke-dasharray:2.0,2.0;" width="210" x="686" y="7"/><text fill="#000000" font-family="sans-serif" font-size="12" font-style="italic" lengthAdjust="spacing" textLength="208" x="687" y="19.1387">EdgeType where EdgeType: IEdge</text><line style="stroke:#181818;stroke-width:0.5;" x1="418" x2="892" y1="42" y2="42"/><text fill="#000000" font-family="sans-serif" font-size="14" lengthAdjust="spacing" textLength="146" x="423" y="58.9951">EdgeType edgeData</text><text fill="#000000" font-family="sans-serif" font-size="14" lengthAdjust="spacing" textLength="175" x="423" y="75.292">string informationString</text><text fill="#000000" font-family="sans-serif" font-size="14" lengthAdjust="spacing" textLength="169" x="423" y="91.5889">float defaultStartWidth</text><text fill="#000000" font-family="sans-serif" font-size="14" lengthAdjust="spacing" textLength="159" x="423" y="107.8857">float defaultEndWidth</text><text fill="#000000" font-family="sans-serif" font-size="14" lengthAdjust="spacing" textLength="218" x="423" y="124.1826">GameObject refColliderHolder</text><line style="stroke:#181818;stroke-width:0.5;" x1="418" x2="892" y1="131.4844" y2="131.4844"/><text fill="#000000" font-family="sans-serif" font-size="14" lengthAdjust="spacing" textLength="185" x="423" y="148.4795">void ReverseOrientation()</text><text fill="#000000" font-family="sans-serif" font-size="14" lengthAdjust="spacing" textLength="292" x="423" y="164.7764">void SetEdgeData(EdgeType _edgeData)</text><text fill="#000000" font-family="sans-serif" font-size="14" lengthAdjust="spacing" textLength="325" x="423" y="181.0732">void SetDefaultWidth(float _start, float _end)</text><text fill="#000000" font-family="sans-serif" font-size="14" lengthAdjust="spacing" textLength="364" x="423" y="197.3701">void SetCollider(Transform _start, Transform _end)</text><text fill="#000000" font-family="sans-serif" font-size="14" lengthAdjust="spacing" textLength="209" x="423" y="213.667">void SetLineRendererWidth()</text><text fill="#000000" font-family="sans-serif" font-size="14" lengthAdjust="spacing" textLength="464" x="423" y="229.9639">void SetLineRendererPosition(Transform _start, Transform _end)</text></g><!--class IBezierCurve--><g id="elem_IBezierCurve"><rect codeLine="14" fill="#F1F1F1" height="48" id="IBezierCurve" rx="2.5" ry="2.5" style="stroke:#181818;stroke-width:0.5;" width="123" x="258.5" y="99.5"/><ellipse cx="273.5" cy="115.5" fill="#B4A7E5" rx="11" ry="11" style="stroke:#181818;stroke-width:1.0;"/><path d="M274.4531,112.2813 L276.1719,112.2813 C276.5625,112.2813 276.75,112.25 276.875,112.1719 C277.1406,112.0156 277.2813,111.7344 277.2813,111.4375 C277.2813,111.1719 277.1719,110.9063 276.9375,110.7344 C276.7656,110.625 276.625,110.5938 276.1719,110.5938 L271.0313,110.5938 C270.5938,110.5938 270.4688,110.6094 270.3125,110.7031 C270.0625,110.8594 269.9063,111.1563 269.9063,111.4375 C269.9063,111.7188 270.0469,111.9688 270.2656,112.1406 C270.4219,112.25 270.6094,112.2813 271.0313,112.2813 L272.75,112.2813 L272.75,118.7969 L271.0313,118.7969 C270.5938,118.7969 270.4688,118.8125 270.3125,118.9219 C270.0625,119.0781 269.9063,119.3594 269.9063,119.6563 C269.9063,119.9063 270.0469,120.1719 270.2656,120.3281 C270.4219,120.4531 270.625,120.5 271.0313,120.5 L276.1719,120.5 C276.9219,120.5 277.2813,120.2188 277.2813,119.6563 C277.2813,119.375 277.1719,119.125 276.9375,118.9531 C276.7656,118.8281 276.625,118.7969 276.1719,118.7969 L274.4531,118.7969 L274.4531,112.2813 Z " fill="#000000"/><text fill="#000000" font-family="sans-serif" font-size="14" font-style="italic" lengthAdjust="spacing" textLength="91" x="287.5" y="120.3467">IBezierCurve</text><line style="stroke:#181818;stroke-width:0.5;" x1="259.5" x2="380.5" y1="131.5" y2="131.5"/><line style="stroke:#181818;stroke-width:0.5;" x1="259.5" x2="380.5" y1="139.5" y2="139.5"/></g><!--class IGradient--><g id="elem_IGradient"><rect codeLine="15" fill="#F1F1F1" height="48" id="IGradient" rx="2.5" ry="2.5" style="stroke:#181818;stroke-width:0.5;" width="98" x="7" y="99.5"/><ellipse cx="22" cy="115.5" fill="#B4A7E5" rx="11" ry="11" style="stroke:#181818;stroke-width:1.0;"/><path d="M22.9531,112.2813 L24.6719,112.2813 C25.0625,112.2813 25.25,112.25 25.375,112.1719 C25.6406,112.0156 25.7813,111.7344 25.7813,111.4375 C25.7813,111.1719 25.6719,110.9063 25.4375,110.7344 C25.2656,110.625 25.125,110.5938 24.6719,110.5938 L19.5313,110.5938 C19.0938,110.5938 18.9688,110.6094 18.8125,110.7031 C18.5625,110.8594 18.4063,111.1563 18.4063,111.4375 C18.4063,111.7188 18.5469,111.9688 18.7656,112.1406 C18.9219,112.25 19.1094,112.2813 19.5313,112.2813 L21.25,112.2813 L21.25,118.7969 L19.5313,118.7969 C19.0938,118.7969 18.9688,118.8125 18.8125,118.9219 C18.5625,119.0781 18.4063,119.3594 18.4063,119.6563 C18.4063,119.9063 18.5469,120.1719 18.7656,120.3281 C18.9219,120.4531 19.125,120.5 19.5313,120.5 L24.6719,120.5 C25.4219,120.5 25.7813,120.2188 25.7813,119.6563 C25.7813,119.375 25.6719,119.125 25.4375,118.9531 C25.2656,118.8281 25.125,118.7969 24.6719,118.7969 L22.9531,118.7969 L22.9531,112.2813 Z " fill="#000000"/><text fill="#000000" font-family="sans-serif" font-size="14" font-style="italic" lengthAdjust="spacing" textLength="66" x="36" y="120.3467">IGradient</text><line style="stroke:#181818;stroke-width:0.5;" x1="8" x2="104" y1="131.5" y2="131.5"/><line style="stroke:#181818;stroke-width:0.5;" x1="8" x2="104" y1="139.5" y2="139.5"/></g><!--class IModulateFlux--><g id="elem_IModulateFlux"><rect codeLine="16" fill="#F1F1F1" height="48" id="IModulateFlux" rx="2.5" ry="2.5" style="stroke:#181818;stroke-width:0.5;" width="131" x="928.5" y="99.5"/><ellipse cx="943.5" cy="115.5" fill="#B4A7E5" rx="11" ry="11" style="stroke:#181818;stroke-width:1.0;"/><path d="M944.4531,112.2813 L946.1719,112.2813 C946.5625,112.2813 946.75,112.25 946.875,112.1719 C947.1406,112.0156 947.2813,111.7344 947.2813,111.4375 C947.2813,111.1719 947.1719,110.9063 946.9375,110.7344 C946.7656,110.625 946.625,110.5938 946.1719,110.5938 L941.0313,110.5938 C940.5938,110.5938 940.4688,110.6094 940.3125,110.7031 C940.0625,110.8594 939.9063,111.1563 939.9063,111.4375 C939.9063,111.7188 940.0469,111.9688 940.2656,112.1406 C940.4219,112.25 940.6094,112.2813 941.0313,112.2813 L942.75,112.2813 L942.75,118.7969 L941.0313,118.7969 C940.5938,118.7969 940.4688,118.8125 940.3125,118.9219 C940.0625,119.0781 939.9063,119.3594 939.9063,119.6563 C939.9063,119.9063 940.0469,120.1719 940.2656,120.3281 C940.4219,120.4531 940.625,120.5 941.0313,120.5 L946.1719,120.5 C946.9219,120.5 947.2813,120.2188 947.2813,119.6563 C947.2813,119.375 947.1719,119.125 946.9375,118.9531 C946.7656,118.8281 946.625,118.7969 946.1719,118.7969 L944.4531,118.7969 L944.4531,112.2813 Z " fill="#000000"/><text fill="#000000" font-family="sans-serif" font-size="14" font-style="italic" lengthAdjust="spacing" textLength="99" x="957.5" y="120.3467">IModulateFlux</text><line style="stroke:#181818;stroke-width:0.5;" x1="929.5" x2="1058.5" y1="131.5" y2="131.5"/><line style="stroke:#181818;stroke-width:0.5;" x1="929.5" x2="1058.5" y1="139.5" y2="139.5"/></g><!--class Module--><g id="elem_Module"><rect codeLine="18" fill="#F1F1F1" height="48" id="Module" rx="2.5" ry="2.5" style="stroke:#181818;stroke-width:0.5;" width="83" x="140.5" y="99.5"/><ellipse cx="155.5" cy="115.5" fill="#ADD1B2" rx="11" ry="11" style="stroke:#181818;stroke-width:1.0;"/><path d="M157.8438,111.1719 C156.9063,110.7344 156.3125,110.5938 155.4375,110.5938 C152.8125,110.5938 150.8125,112.6719 150.8125,115.3906 L150.8125,116.5156 C150.8125,119.0938 152.9219,120.9844 155.8125,120.9844 C157.0313,120.9844 158.1875,120.6875 158.9375,120.1406 C159.5156,119.7344 159.8438,119.2813 159.8438,118.8906 C159.8438,118.4375 159.4531,118.0469 158.9844,118.0469 C158.7656,118.0469 158.5625,118.125 158.375,118.3125 C157.9219,118.7969 157.9219,118.7969 157.7344,118.8906 C157.3125,119.1563 156.625,119.2813 155.8594,119.2813 C153.8125,119.2813 152.5156,118.1875 152.5156,116.4844 L152.5156,115.3906 C152.5156,113.6094 153.7656,112.2969 155.5,112.2969 C156.0781,112.2969 156.6875,112.4531 157.1563,112.7031 C157.6406,112.9844 157.8125,113.2031 157.9063,113.6094 C157.9688,114.0156 158,114.1406 158.1406,114.2656 C158.2813,114.4063 158.5156,114.5156 158.7344,114.5156 C159,114.5156 159.2656,114.375 159.4375,114.1563 C159.5469,114 159.5781,113.8125 159.5781,113.3906 L159.5781,111.9688 C159.5781,111.5313 159.5625,111.4063 159.4688,111.25 C159.3125,110.9844 159.0313,110.8438 158.7344,110.8438 C158.4375,110.8438 158.2344,110.9375 158.0156,111.25 L157.8438,111.1719 Z " fill="#000000"/><text fill="#000000" font-family="sans-serif" font-size="14" lengthAdjust="spacing" textLength="51" x="169.5" y="120.3467">Module</text><line style="stroke:#181818;stroke-width:0.5;" x1="141.5" x2="222.5" y1="131.5" y2="131.5"/><line style="stroke:#181818;stroke-width:0.5;" x1="141.5" x2="222.5" y1="139.5" y2="139.5"/></g><!--class GameNetModule--><g id="elem_GameNetModule"><rect codeLine="19" fill="#F1F1F1" height="48" id="GameNetModule" rx="2.5" ry="2.5" style="stroke:#181818;stroke-width:0.5;" width="151" x="1094.5" y="99.5"/><ellipse cx="1109.5" cy="115.5" fill="#ADD1B2" rx="11" ry="11" style="stroke:#181818;stroke-width:1.0;"/><path d="M1111.8438,111.1719 C1110.9063,110.7344 1110.3125,110.5938 1109.4375,110.5938 C1106.8125,110.5938 1104.8125,112.6719 1104.8125,115.3906 L1104.8125,116.5156 C1104.8125,119.0938 1106.9219,120.9844 1109.8125,120.9844 C1111.0313,120.9844 1112.1875,120.6875 1112.9375,120.1406 C1113.5156,119.7344 1113.8438,119.2813 1113.8438,118.8906 C1113.8438,118.4375 1113.4531,118.0469 1112.9844,118.0469 C1112.7656,118.0469 1112.5625,118.125 1112.375,118.3125 C1111.9219,118.7969 1111.9219,118.7969 1111.7344,118.8906 C1111.3125,119.1563 1110.625,119.2813 1109.8594,119.2813 C1107.8125,119.2813 1106.5156,118.1875 1106.5156,116.4844 L1106.5156,115.3906 C1106.5156,113.6094 1107.7656,112.2969 1109.5,112.2969 C1110.0781,112.2969 1110.6875,112.4531 1111.1563,112.7031 C1111.6406,112.9844 1111.8125,113.2031 1111.9063,113.6094 C1111.9688,114.0156 1112,114.1406 1112.1406,114.2656 C1112.2813,114.4063 1112.5156,114.5156 1112.7344,114.5156 C1113,114.5156 1113.2656,114.375 1113.4375,114.1563 C1113.5469,114 1113.5781,113.8125 1113.5781,113.3906 L1113.5781,111.9688 C1113.5781,111.5313 1113.5625,111.4063 1113.4688,111.25 C1113.3125,110.9844 1113.0313,110.8438 1112.7344,110.8438 C1112.4375,110.8438 1112.2344,110.9375 1112.0156,111.25 L1111.8438,111.1719 Z " fill="#000000"/><text fill="#000000" font-family="sans-serif" font-size="14" lengthAdjust="spacing" textLength="119" x="1123.5" y="120.3467">GameNetModule</text><line style="stroke:#181818;stroke-width:0.5;" x1="1095.5" x2="1244.5" y1="131.5" y2="131.5"/><line style="stroke:#181818;stroke-width:0.5;" x1="1095.5" x2="1244.5" y1="139.5" y2="139.5"/></g><!--class EdgeGO--><g id="elem_EdgeGO"><rect codeLine="20" fill="#F1F1F1" height="48" id="EdgeGO" rx="2.5" ry="2.5" style="stroke:#181818;stroke-width:0.5;" width="90" x="206" y="314"/><ellipse cx="221" cy="330" fill="#ADD1B2" rx="11" ry="11" style="stroke:#181818;stroke-width:1.0;"/><path d="M223.3438,325.6719 C222.4063,325.2344 221.8125,325.0938 220.9375,325.0938 C218.3125,325.0938 216.3125,327.1719 216.3125,329.8906 L216.3125,331.0156 C216.3125,333.5938 218.4219,335.4844 221.3125,335.4844 C222.5313,335.4844 223.6875,335.1875 224.4375,334.6406 C225.0156,334.2344 225.3438,333.7813 225.3438,333.3906 C225.3438,332.9375 224.9531,332.5469 224.4844,332.5469 C224.2656,332.5469 224.0625,332.625 223.875,332.8125 C223.4219,333.2969 223.4219,333.2969 223.2344,333.3906 C222.8125,333.6563 222.125,333.7813 221.3594,333.7813 C219.3125,333.7813 218.0156,332.6875 218.0156,330.9844 L218.0156,329.8906 C218.0156,328.1094 219.2656,326.7969 221,326.7969 C221.5781,326.7969 222.1875,326.9531 222.6563,327.2031 C223.1406,327.4844 223.3125,327.7031 223.4063,328.1094 C223.4688,328.5156 223.5,328.6406 223.6406,328.7656 C223.7813,328.9063 224.0156,329.0156 224.2344,329.0156 C224.5,329.0156 224.7656,328.875 224.9375,328.6563 C225.0469,328.5 225.0781,328.3125 225.0781,327.8906 L225.0781,326.4688 C225.0781,326.0313 225.0625,325.9063 224.9688,325.75 C224.8125,325.4844 224.5313,325.3438 224.2344,325.3438 C223.9375,325.3438 223.7344,325.4375 223.5156,325.75 L223.3438,325.6719 Z " fill="#000000"/><text fill="#000000" font-family="sans-serif" font-size="14" lengthAdjust="spacing" textLength="58" x="235" y="334.8467">EdgeGO</text><line style="stroke:#181818;stroke-width:0.5;" x1="207" x2="295" y1="346" y2="346"/><line style="stroke:#181818;stroke-width:0.5;" x1="207" x2="295" y1="354" y2="354"/></g><!--class CyJsonEdgeGO--><g id="elem_CyJsonEdgeGO"><rect codeLine="21" fill="#F1F1F1" height="48" id="CyJsonEdgeGO" rx="2.5" ry="2.5" style="stroke:#181818;stroke-width:0.5;" width="137" x="925.5" y="314"/><ellipse cx="940.5" cy="330" fill="#ADD1B2" rx="11" ry="11" style="stroke:#181818;stroke-width:1.0;"/><path d="M942.8438,325.6719 C941.9063,325.2344 941.3125,325.0938 940.4375,325.0938 C937.8125,325.0938 935.8125,327.1719 935.8125,329.8906 L935.8125,331.0156 C935.8125,333.5938 937.9219,335.4844 940.8125,335.4844 C942.0313,335.4844 943.1875,335.1875 943.9375,334.6406 C944.5156,334.2344 944.8438,333.7813 944.8438,333.3906 C944.8438,332.9375 944.4531,332.5469 943.9844,332.5469 C943.7656,332.5469 943.5625,332.625 943.375,332.8125 C942.9219,333.2969 942.9219,333.2969 942.7344,333.3906 C942.3125,333.6563 941.625,333.7813 940.8594,333.7813 C938.8125,333.7813 937.5156,332.6875 937.5156,330.9844 L937.5156,329.8906 C937.5156,328.1094 938.7656,326.7969 940.5,326.7969 C941.0781,326.7969 941.6875,326.9531 942.1563,327.2031 C942.6406,327.4844 942.8125,327.7031 942.9063,328.1094 C942.9688,328.5156 943,328.6406 943.1406,328.7656 C943.2813,328.9063 943.5156,329.0156 943.7344,329.0156 C944,329.0156 944.2656,328.875 944.4375,328.6563 C944.5469,328.5 944.5781,328.3125 944.5781,327.8906 L944.5781,326.4688 C944.5781,326.0313 944.5625,325.9063 944.4688,325.75 C944.3125,325.4844 944.0313,325.3438 943.7344,325.3438 C943.4375,325.3438 943.2344,325.4375 943.0156,325.75 L942.8438,325.6719 Z " fill="#000000"/><text fill="#000000" font-family="sans-serif" font-size="14" lengthAdjust="spacing" textLength="105" x="954.5" y="334.8467">CyJsonEdgeGO</text><line style="stroke:#181818;stroke-width:0.5;" x1="926.5" x2="1061.5" y1="346" y2="346"/><line style="stroke:#181818;stroke-width:0.5;" x1="926.5" x2="1061.5" y1="354" y2="354"/></g><!--reverse link Module to EdgeGO--><g id="link_Module_EdgeGO"><path codeLine="23" d="M195.0747,164.7662 C208.3467,205.6422 230.228,273.0269 243.494,313.8828 " fill="none" id="Module-backto-EdgeGO" style="stroke:#181818;stroke-width:1.0;"/><polygon fill="none" points="189.516,147.646,189.368,166.6191,200.7815,162.9133,189.516,147.646" style="stroke:#181818;stroke-width:1.0;"/></g><!--reverse link IEdgeGO to EdgeGO--><g id="link_IEdgeGO_EdgeGO"><path codeLine="24" d="M430.2545,242.7142 C374.8585,271.8516 331.304,294.761 295.093,313.8073 " fill="none" id="IEdgeGO-backto-EdgeGO" style="stroke:#181818;stroke-width:1.0;"/><polygon fill="#181818" points="440.875,237.128,433.7027,236.3809,430.2545,242.7142,437.4268,243.4613,440.875,237.128" style="stroke:#181818;stroke-width:1.0;"/><text fill="#000000" font-family="sans-serif" font-size="13" lengthAdjust="spacing" textLength="52" x="383" y="280.0669">&lt;Edge&gt;</text></g><!--reverse link IBezierCurve to EdgeGO--><g id="link_IBezierCurve_EdgeGO"><path codeLine="25" d="M308.7782,159.0595 C295.5062,199.9355 271.772,273.0269 258.506,313.8828 " fill="none" id="IBezierCurve-backto-EdgeGO" style="stroke:#181818;stroke-width:1.0;"/><polygon fill="#181818" points="312.484,147.646,306.8266,152.1175,308.7782,159.0595,314.4356,154.588,312.484,147.646" style="stroke:#181818;stroke-width:1.0;"/></g><!--reverse link IGradient to EdgeGO--><g id="link_IGradient_EdgeGO"><path codeLine="26" d="M71.8711,158.479 C83.542,182.448 98.6514,209.371 123,237 C149.848,267.4657 186.992,295.2981 214.354,313.8202 " fill="none" id="IGradient-backto-EdgeGO" style="stroke:#181818;stroke-width:1.0;"/><polygon fill="#181818" points="66.6178,147.69,65.6481,154.8356,71.8711,158.479,72.8408,151.3334,66.6178,147.69" style="stroke:#181818;stroke-width:1.0;"/></g><!--reverse link GameNetModule to CyJsonEdgeGO--><g id="link_GameNetModule_CyJsonEdgeGO"><path codeLine="28" d="M1139.3162,161.6583 C1120.5162,184.4163 1102.54,206.166 1077,237 C1055.12,263.4105 1029.96,293.7125 1013.13,313.974 " fill="none" id="GameNetModule-backto-CyJsonEdgeGO" style="stroke:#181818;stroke-width:1.0;"/><polygon fill="none" points="1150.78,147.781,1134.6904,157.8371,1143.9419,165.4796,1150.78,147.781" style="stroke:#181818;stroke-width:1.0;"/></g><!--reverse link IEdgeGO to CyJsonEdgeGO--><g id="link_IEdgeGO_CyJsonEdgeGO"><path codeLine="29" d="M823.2574,243.6745 C847.9284,259.9835 863.391,269.5161 888,284 C905.998,294.5927 926.387,305.1173 944.442,313.9627 " fill="none" id="IEdgeGO-backto-CyJsonEdgeGO" style="stroke:#181818;stroke-width:1.0;"/><polygon fill="#181818" points="813.247,237.057,816.0464,243.7026,823.2574,243.6745,820.458,237.0289,813.247,237.057" style="stroke:#181818;stroke-width:1.0;"/><text fill="#000000" font-family="sans-serif" font-size="13" lengthAdjust="spacing" textLength="96" x="889" y="280.0669">&lt;CyJsonEdge&gt;</text></g><!--reverse link IModulateFlux to CyJsonEdgeGO--><g id="link_IModulateFlux_CyJsonEdgeGO"><path codeLine="30" d="M994,159.646 C994,200.522 994,273.0269 994,313.8828 " fill="none" id="IModulateFlux-backto-CyJsonEdgeGO" style="stroke:#181818;stroke-width:1.0;"/><polygon fill="#181818" points="994,147.646,990,153.646,994,159.646,998,153.646,994,147.646" style="stroke:#181818;stroke-width:1.0;"/></g><!--SRC=[XLBBJiCm4BpxA_OO4Fn0LVL0Mme8A6ehSQnClMcDN1kjDuNo-7SIEmz75IA793ipgvcrLrj6okK6uNQgjZYR3wlFwlY6yBv3GcZAGHICu4j0-RGgB7ycacL0FPEsMz0sTxINh9rT1YIGkN6IGM4k2yDBbiJFMl7kb9jQrJ4pkSVvoojk60ZpiJD6AwGRPyft41oSLh300vB7EMcq78opiuvT8a_hc5aRVDqaxmidCKC8aCLOQr-5lQX3hj6gVaiJAbkHjBuQlMr9a9EsUsrnKQBbALEq-vj_Sbw7gVwt-16wkzCh_DH8uu8EcC8pagewgHHxSAemal7Q51z2R8pq7WA6TL7Tn2Do3uixKnVZuvrtjeP4rC7m-_AoaTKh1kSj10C82pSIQTH48DgiAIXwMQ97pprrIedAhwjBrtJg4_Kl]--></g></svg>