<?xml version="1.0" encoding="us-ascii" standalone="no"?><svg xmlns="http://www.w3.org/2000/svg" xmlns:xlink="http://www.w3.org/1999/xlink" contentStyleType="text/css" height="510px" preserveAspectRatio="none" style="width:1443px;height:510px;background:#FFFFFF;" version="1.1" viewBox="0 0 1443 510" width="1443px" zoomAndPan="magnify"><defs/><g><!--class IGraphGO--><g id="elem_IGraphGO"><rect codeLine="1" fill="#F1F1F1" height="113.1875" id="IGraphGO" rx="2.5" ry="2.5" style="stroke:#181818;stroke-width:0.5;" width="469" x="176" y="10"/><ellipse cx="263.25" cy="26" fill="#B4A7E5" rx="11" ry="11" style="stroke:#181818;stroke-width:1.0;"/><path d="M264.2031,22.7813 L265.9219,22.7813 C266.3125,22.7813 266.5,22.75 266.625,22.6719 C266.8906,22.5156 267.0313,22.2344 267.0313,21.9375 C267.0313,21.6719 266.9219,21.4063 266.6875,21.2344 C266.5156,21.125 266.375,21.0938 265.9219,21.0938 L260.7813,21.0938 C260.3438,21.0938 260.2188,21.1094 260.0625,21.2031 C259.8125,21.3594 259.6563,21.6563 259.6563,21.9375 C259.6563,22.2188 259.7969,22.4688 260.0156,22.6406 C260.1719,22.75 260.3594,22.7813 260.7813,22.7813 L262.5,22.7813 L262.5,29.2969 L260.7813,29.2969 C260.3438,29.2969 260.2188,29.3125 260.0625,29.4219 C259.8125,29.5781 259.6563,29.8594 259.6563,30.1563 C259.6563,30.4063 259.7969,30.6719 260.0156,30.8281 C260.1719,30.9531 260.375,31 260.7813,31 L265.9219,31 C266.6719,31 267.0313,30.7188 267.0313,30.1563 C267.0313,29.875 266.9219,29.625 266.6875,29.4531 C266.5156,29.3281 266.375,29.2969 265.9219,29.2969 L264.2031,29.2969 L264.2031,22.7813 Z " fill="#000000"/><text fill="#000000" font-family="sans-serif" font-size="14" font-style="italic" lengthAdjust="spacing" textLength="70" x="283.75" y="30.8467">IGraphGO</text><rect fill="#FFFFFF" height="29.9375" style="stroke:#181818;stroke-width:1.0;stroke-dasharray:2.0,2.0;" width="214" x="434" y="7"/><text fill="#000000" font-family="sans-serif" font-size="12" font-style="italic" lengthAdjust="spacing" textLength="208" x="437" y="19.1387">EdgeType where EdgeType: IEdge</text><text fill="#000000" font-family="sans-serif" font-size="12" font-style="italic" lengthAdjust="spacing" textLength="208" x="439" y="33.1074">NodeType where NodeType: INode</text><line style="stroke:#181818;stroke-width:0.5;" x1="177" x2="644" y1="42" y2="42"/><text fill="#000000" font-family="sans-serif" font-size="14" lengthAdjust="spacing" textLength="303" x="182" y="58.9951">IGraph&lt;EdgeType, NodeType&gt; graphData</text><text fill="#000000" font-family="sans-serif" font-size="14" lengthAdjust="spacing" textLength="333" x="182" y="75.292">List&lt;GameObject&gt; graphPrefabsComponents</text><text fill="#000000" font-family="sans-serif" font-size="14" lengthAdjust="spacing" textLength="362" x="182" y="91.5889">Dictionary&lt;uint, GameObject&gt; DataID_to_DataGO</text><line style="stroke:#181818;stroke-width:0.5;" x1="177" x2="644" y1="98.8906" y2="98.8906"/><text fill="#000000" font-family="sans-serif" font-size="14" lengthAdjust="spacing" textLength="457" x="182" y="115.8857">void SetGraphData(IGraph&lt;EdgeType, NodeType&gt; _graphData)</text></g><!--class IGraphGONet--><g id="elem_IGraphGONet"><rect codeLine="8" fill="#F1F1F1" height="80.5938" id="IGraphGONet" rx="2.5" ry="2.5" style="stroke:#181818;stroke-width:0.5;" width="619" x="7" y="216"/><ellipse cx="157.25" cy="232" fill="#B4A7E5" rx="11" ry="11" style="stroke:#181818;stroke-width:1.0;"/><path d="M158.2031,228.7813 L159.9219,228.7813 C160.3125,228.7813 160.5,228.75 160.625,228.6719 C160.8906,228.5156 161.0313,228.2344 161.0313,227.9375 C161.0313,227.6719 160.9219,227.4063 160.6875,227.2344 C160.5156,227.125 160.375,227.0938 159.9219,227.0938 L154.7813,227.0938 C154.3438,227.0938 154.2188,227.1094 154.0625,227.2031 C153.8125,227.3594 153.6563,227.6563 153.6563,227.9375 C153.6563,228.2188 153.7969,228.4688 154.0156,228.6406 C154.1719,228.75 154.3594,228.7813 154.7813,228.7813 L156.5,228.7813 L156.5,235.2969 L154.7813,235.2969 C154.3438,235.2969 154.2188,235.3125 154.0625,235.4219 C153.8125,235.5781 153.6563,235.8594 153.6563,236.1563 C153.6563,236.4063 153.7969,236.6719 154.0156,236.8281 C154.1719,236.9531 154.375,237 154.7813,237 L159.9219,237 C160.6719,237 161.0313,236.7188 161.0313,236.1563 C161.0313,235.875 160.9219,235.625 160.6875,235.4531 C160.5156,235.3281 160.375,235.2969 159.9219,235.2969 L158.2031,235.2969 L158.2031,228.7813 Z " fill="#000000"/><text fill="#000000" font-family="sans-serif" font-size="14" font-style="italic" lengthAdjust="spacing" textLength="94" x="177.75" y="236.8467">IGraphGONet</text><rect fill="#FFFFFF" height="29.9375" style="stroke:#181818;stroke-width:1.0;stroke-dasharray:2.0,2.0;" width="214" x="415" y="213"/><text fill="#000000" font-family="sans-serif" font-size="12" font-style="italic" lengthAdjust="spacing" textLength="208" x="418" y="225.1387">EdgeType where EdgeType: IEdge</text><text fill="#000000" font-family="sans-serif" font-size="12" font-style="italic" lengthAdjust="spacing" textLength="208" x="420" y="239.1074">NodeType where NodeType: INode</text><line style="stroke:#181818;stroke-width:0.5;" x1="8" x2="625" y1="248" y2="248"/><text fill="#000000" font-family="sans-serif" font-size="14" lengthAdjust="spacing" textLength="312" x="13" y="264.9951">GraphBatchSpawning graphBatchSpawning</text><line style="stroke:#181818;stroke-width:0.5;" x1="8" x2="625" y1="272.2969" y2="272.2969"/><text fill="#000000" font-family="sans-serif" font-size="14" lengthAdjust="spacing" textLength="607" x="13" y="289.292">void RequestGraphGenerationServerRpc(ulong _expeditorClientId, int _rootSceneId)</text></g><!--class IModifiable--><g id="elem_IModifiable"><rect codeLine="13" fill="#F1F1F1" height="48" id="IModifiable" rx="2.5" ry="2.5" style="stroke:#181818;stroke-width:0.5;" width="110" x="1002.5" y="232.5"/><ellipse cx="1017.5" cy="248.5" fill="#B4A7E5" rx="11" ry="11" style="stroke:#181818;stroke-width:1.0;"/><path d="M1018.4531,245.2813 L1020.1719,245.2813 C1020.5625,245.2813 1020.75,245.25 1020.875,245.1719 C1021.1406,245.0156 1021.2813,244.7344 1021.2813,244.4375 C1021.2813,244.1719 1021.1719,243.9063 1020.9375,243.7344 C1020.7656,243.625 1020.625,243.5938 1020.1719,243.5938 L1015.0313,243.5938 C1014.5938,243.5938 1014.4688,243.6094 1014.3125,243.7031 C1014.0625,243.8594 1013.9063,244.1563 1013.9063,244.4375 C1013.9063,244.7188 1014.0469,244.9688 1014.2656,245.1406 C1014.4219,245.25 1014.6094,245.2813 1015.0313,245.2813 L1016.75,245.2813 L1016.75,251.7969 L1015.0313,251.7969 C1014.5938,251.7969 1014.4688,251.8125 1014.3125,251.9219 C1014.0625,252.0781 1013.9063,252.3594 1013.9063,252.6563 C1013.9063,252.9063 1014.0469,253.1719 1014.2656,253.3281 C1014.4219,253.4531 1014.625,253.5 1015.0313,253.5 L1020.1719,253.5 C1020.9219,253.5 1021.2813,253.2188 1021.2813,252.6563 C1021.2813,252.375 1021.1719,252.125 1020.9375,251.9531 C1020.7656,251.8281 1020.625,251.7969 1020.1719,251.7969 L1018.4531,251.7969 L1018.4531,245.2813 Z " fill="#000000"/><text fill="#000000" font-family="sans-serif" font-size="14" font-style="italic" lengthAdjust="spacing" textLength="78" x="1031.5" y="253.3467">IModifiable</text><line style="stroke:#181818;stroke-width:0.5;" x1="1003.5" x2="1111.5" y1="264.5" y2="264.5"/><line style="stroke:#181818;stroke-width:0.5;" x1="1003.5" x2="1111.5" y1="272.5" y2="272.5"/></g><!--class ISaveable--><g id="elem_ISaveable"><rect codeLine="14" fill="#F1F1F1" height="48" id="ISaveable" rx="2.5" ry="2.5" style="stroke:#181818;stroke-width:0.5;" width="102" x="1147.5" y="232.5"/><ellipse cx="1162.5" cy="248.5" fill="#B4A7E5" rx="11" ry="11" style="stroke:#181818;stroke-width:1.0;"/><path d="M1163.4531,245.2813 L1165.1719,245.2813 C1165.5625,245.2813 1165.75,245.25 1165.875,245.1719 C1166.1406,245.0156 1166.2813,244.7344 1166.2813,244.4375 C1166.2813,244.1719 1166.1719,243.9063 1165.9375,243.7344 C1165.7656,243.625 1165.625,243.5938 1165.1719,243.5938 L1160.0313,243.5938 C1159.5938,243.5938 1159.4688,243.6094 1159.3125,243.7031 C1159.0625,243.8594 1158.9063,244.1563 1158.9063,244.4375 C1158.9063,244.7188 1159.0469,244.9688 1159.2656,245.1406 C1159.4219,245.25 1159.6094,245.2813 1160.0313,245.2813 L1161.75,245.2813 L1161.75,251.7969 L1160.0313,251.7969 C1159.5938,251.7969 1159.4688,251.8125 1159.3125,251.9219 C1159.0625,252.0781 1158.9063,252.3594 1158.9063,252.6563 C1158.9063,252.9063 1159.0469,253.1719 1159.2656,253.3281 C1159.4219,253.4531 1159.625,253.5 1160.0313,253.5 L1165.1719,253.5 C1165.9219,253.5 1166.2813,253.2188 1166.2813,252.6563 C1166.2813,252.375 1166.1719,252.125 1165.9375,251.9531 C1165.7656,251.8281 1165.625,251.7969 1165.1719,251.7969 L1163.4531,251.7969 L1163.4531,245.2813 Z " fill="#000000"/><text fill="#000000" font-family="sans-serif" font-size="14" font-style="italic" lengthAdjust="spacing" textLength="70" x="1176.5" y="253.3467">ISaveable</text><line style="stroke:#181818;stroke-width:0.5;" x1="1148.5" x2="1248.5" y1="264.5" y2="264.5"/><line style="stroke:#181818;stroke-width:0.5;" x1="1148.5" x2="1248.5" y1="272.5" y2="272.5"/></g><!--class Module--><g id="elem_Module"><rect codeLine="18" fill="#F1F1F1" height="48" id="Module" rx="2.5" ry="2.5" style="stroke:#181818;stroke-width:0.5;" width="83" x="773" y="42.5"/><ellipse cx="788" cy="58.5" fill="#ADD1B2" rx="11" ry="11" style="stroke:#181818;stroke-width:1.0;"/><path d="M790.3438,54.1719 C789.4063,53.7344 788.8125,53.5938 787.9375,53.5938 C785.3125,53.5938 783.3125,55.6719 783.3125,58.3906 L783.3125,59.5156 C783.3125,62.0938 785.4219,63.9844 788.3125,63.9844 C789.5313,63.9844 790.6875,63.6875 791.4375,63.1406 C792.0156,62.7344 792.3438,62.2813 792.3438,61.8906 C792.3438,61.4375 791.9531,61.0469 791.4844,61.0469 C791.2656,61.0469 791.0625,61.125 790.875,61.3125 C790.4219,61.7969 790.4219,61.7969 790.2344,61.8906 C789.8125,62.1563 789.125,62.2813 788.3594,62.2813 C786.3125,62.2813 785.0156,61.1875 785.0156,59.4844 L785.0156,58.3906 C785.0156,56.6094 786.2656,55.2969 788,55.2969 C788.5781,55.2969 789.1875,55.4531 789.6563,55.7031 C790.1406,55.9844 790.3125,56.2031 790.4063,56.6094 C790.4688,57.0156 790.5,57.1406 790.6406,57.2656 C790.7813,57.4063 791.0156,57.5156 791.2344,57.5156 C791.5,57.5156 791.7656,57.375 791.9375,57.1563 C792.0469,57 792.0781,56.8125 792.0781,56.3906 L792.0781,54.9688 C792.0781,54.5313 792.0625,54.4063 791.9688,54.25 C791.8125,53.9844 791.5313,53.8438 791.2344,53.8438 C790.9375,53.8438 790.7344,53.9375 790.5156,54.25 L790.3438,54.1719 Z " fill="#000000"/><text fill="#000000" font-family="sans-serif" font-size="14" lengthAdjust="spacing" textLength="51" x="802" y="63.3467">Module</text><line style="stroke:#181818;stroke-width:0.5;" x1="774" x2="855" y1="74.5" y2="74.5"/><line style="stroke:#181818;stroke-width:0.5;" x1="774" x2="855" y1="82.5" y2="82.5"/></g><!--class GameNetModule--><g id="elem_GameNetModule"><rect codeLine="19" fill="#F1F1F1" height="48" id="GameNetModule" rx="2.5" ry="2.5" style="stroke:#181818;stroke-width:0.5;" width="151" x="1285" y="232.5"/><ellipse cx="1300" cy="248.5" fill="#ADD1B2" rx="11" ry="11" style="stroke:#181818;stroke-width:1.0;"/><path d="M1302.3438,244.1719 C1301.4063,243.7344 1300.8125,243.5938 1299.9375,243.5938 C1297.3125,243.5938 1295.3125,245.6719 1295.3125,248.3906 L1295.3125,249.5156 C1295.3125,252.0938 1297.4219,253.9844 1300.3125,253.9844 C1301.5313,253.9844 1302.6875,253.6875 1303.4375,253.1406 C1304.0156,252.7344 1304.3438,252.2813 1304.3438,251.8906 C1304.3438,251.4375 1303.9531,251.0469 1303.4844,251.0469 C1303.2656,251.0469 1303.0625,251.125 1302.875,251.3125 C1302.4219,251.7969 1302.4219,251.7969 1302.2344,251.8906 C1301.8125,252.1563 1301.125,252.2813 1300.3594,252.2813 C1298.3125,252.2813 1297.0156,251.1875 1297.0156,249.4844 L1297.0156,248.3906 C1297.0156,246.6094 1298.2656,245.2969 1300,245.2969 C1300.5781,245.2969 1301.1875,245.4531 1301.6563,245.7031 C1302.1406,245.9844 1302.3125,246.2031 1302.4063,246.6094 C1302.4688,247.0156 1302.5,247.1406 1302.6406,247.2656 C1302.7813,247.4063 1303.0156,247.5156 1303.2344,247.5156 C1303.5,247.5156 1303.7656,247.375 1303.9375,247.1563 C1304.0469,247 1304.0781,246.8125 1304.0781,246.3906 L1304.0781,244.9688 C1304.0781,244.5313 1304.0625,244.4063 1303.9688,244.25 C1303.8125,243.9844 1303.5313,243.8438 1303.2344,243.8438 C1302.9375,243.8438 1302.7344,243.9375 1302.5156,244.25 L1302.3438,244.1719 Z " fill="#000000"/><text fill="#000000" font-family="sans-serif" font-size="14" lengthAdjust="spacing" textLength="119" x="1314" y="253.3467">GameNetModule</text><line style="stroke:#181818;stroke-width:0.5;" x1="1286" x2="1435" y1="264.5" y2="264.5"/><line style="stroke:#181818;stroke-width:0.5;" x1="1286" x2="1435" y1="272.5" y2="272.5"/></g><!--class CyJsonModule--><g id="elem_CyJsonModule"><rect codeLine="21" fill="#F1F1F1" height="113.1875" id="CyJsonModule" rx="2.5" ry="2.5" style="stroke:#181818;stroke-width:0.5;" width="306" x="974.5" y="390"/><ellipse cx="1074.25" cy="406" fill="#ADD1B2" rx="11" ry="11" style="stroke:#181818;stroke-width:1.0;"/><path d="M1076.5938,401.6719 C1075.6563,401.2344 1075.0625,401.0938 1074.1875,401.0938 C1071.5625,401.0938 1069.5625,403.1719 1069.5625,405.8906 L1069.5625,407.0156 C1069.5625,409.5938 1071.6719,411.4844 1074.5625,411.4844 C1075.7813,411.4844 1076.9375,411.1875 1077.6875,410.6406 C1078.2656,410.2344 1078.5938,409.7813 1078.5938,409.3906 C1078.5938,408.9375 1078.2031,408.5469 1077.7344,408.5469 C1077.5156,408.5469 1077.3125,408.625 1077.125,408.8125 C1076.6719,409.2969 1076.6719,409.2969 1076.4844,409.3906 C1076.0625,409.6563 1075.375,409.7813 1074.6094,409.7813 C1072.5625,409.7813 1071.2656,408.6875 1071.2656,406.9844 L1071.2656,405.8906 C1071.2656,404.1094 1072.5156,402.7969 1074.25,402.7969 C1074.8281,402.7969 1075.4375,402.9531 1075.9063,403.2031 C1076.3906,403.4844 1076.5625,403.7031 1076.6563,404.1094 C1076.7188,404.5156 1076.75,404.6406 1076.8906,404.7656 C1077.0313,404.9063 1077.2656,405.0156 1077.4844,405.0156 C1077.75,405.0156 1078.0156,404.875 1078.1875,404.6563 C1078.2969,404.5 1078.3281,404.3125 1078.3281,403.8906 L1078.3281,402.4688 C1078.3281,402.0313 1078.3125,401.9063 1078.2188,401.75 C1078.0625,401.4844 1077.7813,401.3438 1077.4844,401.3438 C1077.1875,401.3438 1076.9844,401.4375 1076.7656,401.75 L1076.5938,401.6719 Z " fill="#000000"/><text fill="#000000" font-family="sans-serif" font-size="14" lengthAdjust="spacing" textLength="98" x="1094.75" y="410.8467">CyJsonModule</text><line style="stroke:#181818;stroke-width:0.5;" x1="975.5" x2="1279.5" y1="422" y2="422"/><text fill="#000000" font-family="sans-serif" font-size="14" lengthAdjust="spacing" textLength="280" x="994.5" y="438.9951">// The field for the property graphData</text><text fill="#000000" font-family="sans-serif" font-size="14" lengthAdjust="spacing" textLength="101" x="994.5" y="455.292">// in IGraphGO</text><rect fill="none" height="6" style="stroke:#C82930;stroke-width:1.0;" width="6" x="982.5" y="465.2422"/><text fill="#000000" font-family="sans-serif" font-size="14" lengthAdjust="spacing" textLength="225" x="994.5" y="471.5889">ContiguousGraph m_graphData</text><text fill="#000000" font-family="sans-serif" font-size="14" lengthAdjust="spacing" textLength="15" x="994.5" y="487.8857">...</text><line style="stroke:#181818;stroke-width:0.5;" x1="975.5" x2="1279.5" y1="495.1875" y2="495.1875"/></g><!--class DiveTravelMapModule--><g id="elem_DiveTravelMapModule"><rect codeLine="27" fill="#F1F1F1" height="113.1875" id="DiveTravelMapModule" rx="2.5" ry="2.5" style="stroke:#181818;stroke-width:0.5;" width="306" x="661.5" y="200"/><ellipse cx="731.75" cy="216" fill="#ADD1B2" rx="11" ry="11" style="stroke:#181818;stroke-width:1.0;"/><path d="M734.0938,211.6719 C733.1563,211.2344 732.5625,211.0938 731.6875,211.0938 C729.0625,211.0938 727.0625,213.1719 727.0625,215.8906 L727.0625,217.0156 C727.0625,219.5938 729.1719,221.4844 732.0625,221.4844 C733.2813,221.4844 734.4375,221.1875 735.1875,220.6406 C735.7656,220.2344 736.0938,219.7813 736.0938,219.3906 C736.0938,218.9375 735.7031,218.5469 735.2344,218.5469 C735.0156,218.5469 734.8125,218.625 734.625,218.8125 C734.1719,219.2969 734.1719,219.2969 733.9844,219.3906 C733.5625,219.6563 732.875,219.7813 732.1094,219.7813 C730.0625,219.7813 728.7656,218.6875 728.7656,216.9844 L728.7656,215.8906 C728.7656,214.1094 730.0156,212.7969 731.75,212.7969 C732.3281,212.7969 732.9375,212.9531 733.4063,213.2031 C733.8906,213.4844 734.0625,213.7031 734.1563,214.1094 C734.2188,214.5156 734.25,214.6406 734.3906,214.7656 C734.5313,214.9063 734.7656,215.0156 734.9844,215.0156 C735.25,215.0156 735.5156,214.875 735.6875,214.6563 C735.7969,214.5 735.8281,214.3125 735.8281,213.8906 L735.8281,212.4688 C735.8281,212.0313 735.8125,211.9063 735.7188,211.75 C735.5625,211.4844 735.2813,211.3438 734.9844,211.3438 C734.6875,211.3438 734.4844,211.4375 734.2656,211.75 L734.0938,211.6719 Z " fill="#000000"/><text fill="#000000" font-family="sans-serif" font-size="14" lengthAdjust="spacing" textLength="157" x="752.25" y="220.8467">DiveTravelMapModule</text><line style="stroke:#181818;stroke-width:0.5;" x1="662.5" x2="966.5" y1="232" y2="232"/><text fill="#000000" font-family="sans-serif" font-size="14" lengthAdjust="spacing" textLength="280" x="681.5" y="248.9951">// The field for the property graphData</text><text fill="#000000" font-family="sans-serif" font-size="14" lengthAdjust="spacing" textLength="101" x="681.5" y="265.292">// in IGraphGO</text><rect fill="none" height="6" style="stroke:#C82930;stroke-width:1.0;" width="6" x="669.5" y="275.2422"/><text fill="#000000" font-family="sans-serif" font-size="14" lengthAdjust="spacing" textLength="208" x="681.5" y="281.5889">CyJsonPathway m_graphData</text><text fill="#000000" font-family="sans-serif" font-size="14" lengthAdjust="spacing" textLength="15" x="681.5" y="297.8857">...</text><line style="stroke:#181818;stroke-width:0.5;" x1="662.5" x2="966.5" y1="305.1875" y2="305.1875"/></g><!--reverse link IGraphGO to IGraphGONet--><g id="link_IGraphGO_IGraphGONet"><path codeLine="16" d="M374.6286,139.2429 C359.7416,169.0189 349.804,188.892 336.342,215.815 " fill="none" id="IGraphGO-backto-IGraphGONet" style="stroke:#181818;stroke-width:1.0;"/><polygon fill="none" points="382.678,123.143,369.262,136.5598,379.9952,141.926,382.678,123.143" style="stroke:#181818;stroke-width:1.0;"/></g><!--reverse link Module to DiveTravelMapModule--><g id="link_Module_DiveTravelMapModule"><path codeLine="34" d="M814.5,108.552 C814.5,135.614 814.5,163.432 814.5,199.92 " fill="none" id="Module-backto-DiveTravelMapModule" style="stroke:#181818;stroke-width:1.0;"/><polygon fill="none" points="814.5,90.552,808.5,108.552,820.5,108.552,814.5,90.552" style="stroke:#181818;stroke-width:1.0;"/></g><!--reverse link IGraphGO to DiveTravelMapModule--><g id="link_IGraphGO_DiveTravelMapModule"><path codeLine="35" d="M540.6807,128.0789 C592.8087,152.3369 642.938,175.664 695.08,199.928 " fill="none" id="IGraphGO-backto-DiveTravelMapModule" style="stroke:#181818;stroke-width:1.0;"/><polygon fill="#181818" points="529.801,123.016,533.5532,129.174,540.6807,128.0789,536.9285,121.9209,529.801,123.016" style="stroke:#181818;stroke-width:1.0;"/><text fill="#000000" font-family="sans-serif" font-size="13" lengthAdjust="spacing" textLength="93" x="626.5" y="166.0669">&lt;Edge, Node&gt;</text></g><!--reverse link GameNetModule to CyJsonModule--><g id="link_GameNetModule_CyJsonModule"><path codeLine="37" d="M1317.9213,291.855 C1284.3813,318.917 1241.61,353.432 1196.38,389.92 " fill="none" id="GameNetModule-backto-CyJsonModule" style="stroke:#181818;stroke-width:1.0;"/><polygon fill="none" points="1331.93,280.552,1314.1537,287.1854,1321.689,296.5245,1331.93,280.552" style="stroke:#181818;stroke-width:1.0;"/></g><!--reverse link IGraphGONet to CyJsonModule--><g id="link_IGraphGONet_CyJsonModule"><path codeLine="38" d="M498.696,299.7359 C642.722,333.1229 835.452,377.8 974.334,409.9941 " fill="none" id="IGraphGONet-backto-CyJsonModule" style="stroke:#181818;stroke-width:1.0;"/><polygon fill="#181818" points="487.006,297.026,491.9477,302.2776,498.696,299.7359,493.7543,294.4843,487.006,297.026" style="stroke:#181818;stroke-width:1.0;"/><text fill="#000000" font-family="sans-serif" font-size="13" lengthAdjust="spacing" textLength="181" x="747.5" y="356.0669">&lt;CyJsonEdge, CyJsonNode&gt;</text></g><!--reverse link IModifiable to CyJsonModule--><g id="link_IModifiable_CyJsonModule"><path codeLine="39" d="M1070.2686,291.7972 C1080.3486,318.8592 1093.22,353.432 1106.81,389.92 " fill="none" id="IModifiable-backto-CyJsonModule" style="stroke:#181818;stroke-width:1.0;"/><polygon fill="#181818" points="1066.08,280.552,1064.4259,287.5708,1070.2686,291.7972,1071.9227,284.7784,1066.08,280.552" style="stroke:#181818;stroke-width:1.0;"/></g><!--reverse link ISaveable to CyJsonModule--><g id="link_ISaveable_CyJsonModule"><path codeLine="40" d="M1185.5504,291.7781 C1175.3304,318.8401 1162.27,353.432 1148.49,389.92 " fill="none" id="ISaveable-backto-CyJsonModule" style="stroke:#181818;stroke-width:1.0;"/><polygon fill="#181818" points="1189.79,280.552,1183.9282,284.7519,1185.5504,291.7781,1191.4123,287.5783,1189.79,280.552" style="stroke:#181818;stroke-width:1.0;"/></g><!--SRC=[hL9DJyCm3BtdL_Wuq3RkQDg13LL5mD2w8rALjUuQr2KXTJSguB-J9blNVS29dcBx-TdlrK8Icemd265WkCw3sUW-NU6YrWZR70t2Fho5i7c-IdXMQHUm3osWUOxXau7zF5_BrcznOrWrbIadxe2FegHHmDSuMxvXGhloYy6CByk9McibKLBfi5EHa52IctfK2KbzwFOrZE4q9XKths3cEZPAf10X1VkPlJyMYzlDhjWtO-BCd6Ua__B7CTvnIl98ywqKSkM57wKE4kRuNc7fPGGeqV36Y0ZD1irS9xsgK9OXnW-DgI1b9eMmheLf7wmAY8rI52MsBqnFfJsfL6I2BmliPYE-GPTZU-qm-XeCkaumbXIyBC4IL1ReW-Q7sDekjqjEweTIIP_pwczkO94ZP0AB539bW6oaZT9eg3uv48iLiXqCBZU0YP8aLfMgIbU0TNpSDHmEhL0_Voesk31MKV74zJ-luQIzSCgtlFvb2UP7UWClx7Am-Feo06x1dPs_rJ5ZHovxtgx7hFEN76Uts93vs5FwjoVk7CDP7sjlugpq0m00]--></g></svg>