<?xml version="1.0" encoding="us-ascii" standalone="no"?><svg xmlns="http://www.w3.org/2000/svg" xmlns:xlink="http://www.w3.org/1999/xlink" contentStyleType="text/css" height="239px" preserveAspectRatio="none" style="width:625px;height:239px;background:#FFFFFF;" version="1.1" viewBox="0 0 625 239" width="625px" zoomAndPan="magnify"><defs/><g><!--class INodeGO--><g id="elem_INodeGO"><rect codeLine="1" fill="#F1F1F1" height="96.8906" id="INodeGO" rx="2.5" ry="2.5" style="stroke:#181818;stroke-width:0.5;" width="307" x="125" y="10"/><ellipse cx="140" cy="26" fill="#B4A7E5" rx="11" ry="11" style="stroke:#181818;stroke-width:1.0;"/><path d="M140.9531,22.7813 L142.6719,22.7813 C143.0625,22.7813 143.25,22.75 143.375,22.6719 C143.6406,22.5156 143.7813,22.2344 143.7813,21.9375 C143.7813,21.6719 143.6719,21.4063 143.4375,21.2344 C143.2656,21.125 143.125,21.0938 142.6719,21.0938 L137.5313,21.0938 C137.0938,21.0938 136.9688,21.1094 136.8125,21.2031 C136.5625,21.3594 136.4063,21.6563 136.4063,21.9375 C136.4063,22.2188 136.5469,22.4688 136.7656,22.6406 C136.9219,22.75 137.1094,22.7813 137.5313,22.7813 L139.25,22.7813 L139.25,29.2969 L137.5313,29.2969 C137.0938,29.2969 136.9688,29.3125 136.8125,29.4219 C136.5625,29.5781 136.4063,29.8594 136.4063,30.1563 C136.4063,30.4063 136.5469,30.6719 136.7656,30.8281 C136.9219,30.9531 137.125,31 137.5313,31 L142.6719,31 C143.4219,31 143.7813,30.7188 143.7813,30.1563 C143.7813,29.875 143.6719,29.625 143.4375,29.4531 C143.2656,29.3281 143.125,29.2969 142.6719,29.2969 L140.9531,29.2969 L140.9531,22.7813 Z " fill="#000000"/><text fill="#000000" font-family="sans-serif" font-size="14" font-style="italic" lengthAdjust="spacing" textLength="63" x="154" y="30.8467">INodeGO</text><rect fill="#FFFFFF" height="15.9688" style="stroke:#181818;stroke-width:1.0;stroke-dasharray:2.0,2.0;" width="210" x="225" y="7"/><text fill="#000000" font-family="sans-serif" font-size="12" font-style="italic" lengthAdjust="spacing" textLength="208" x="226" y="19.1387">NodeType where NodeType: INode</text><line style="stroke:#181818;stroke-width:0.5;" x1="126" x2="431" y1="42" y2="42"/><text fill="#000000" font-family="sans-serif" font-size="14" lengthAdjust="spacing" textLength="147" x="131" y="58.9951">NodeType nodeData</text><text fill="#000000" font-family="sans-serif" font-size="14" lengthAdjust="spacing" textLength="175" x="131" y="75.292">string informationString</text><line style="stroke:#181818;stroke-width:0.5;" x1="126" x2="431" y1="82.5938" y2="82.5938"/><text fill="#000000" font-family="sans-serif" font-size="14" lengthAdjust="spacing" textLength="294" x="131" y="99.5889">void SetNodeData(NodeType _nodeData)</text></g><!--class Module--><g id="elem_Module"><rect codeLine="7" fill="#F1F1F1" height="48" id="Module" rx="2.5" ry="2.5" style="stroke:#181818;stroke-width:0.5;" width="83" x="7" y="34.5"/><ellipse cx="22" cy="50.5" fill="#ADD1B2" rx="11" ry="11" style="stroke:#181818;stroke-width:1.0;"/><path d="M24.3438,46.1719 C23.4063,45.7344 22.8125,45.5938 21.9375,45.5938 C19.3125,45.5938 17.3125,47.6719 17.3125,50.3906 L17.3125,51.5156 C17.3125,54.0938 19.4219,55.9844 22.3125,55.9844 C23.5313,55.9844 24.6875,55.6875 25.4375,55.1406 C26.0156,54.7344 26.3438,54.2813 26.3438,53.8906 C26.3438,53.4375 25.9531,53.0469 25.4844,53.0469 C25.2656,53.0469 25.0625,53.125 24.875,53.3125 C24.4219,53.7969 24.4219,53.7969 24.2344,53.8906 C23.8125,54.1563 23.125,54.2813 22.3594,54.2813 C20.3125,54.2813 19.0156,53.1875 19.0156,51.4844 L19.0156,50.3906 C19.0156,48.6094 20.2656,47.2969 22,47.2969 C22.5781,47.2969 23.1875,47.4531 23.6563,47.7031 C24.1406,47.9844 24.3125,48.2031 24.4063,48.6094 C24.4688,49.0156 24.5,49.1406 24.6406,49.2656 C24.7813,49.4063 25.0156,49.5156 25.2344,49.5156 C25.5,49.5156 25.7656,49.375 25.9375,49.1563 C26.0469,49 26.0781,48.8125 26.0781,48.3906 L26.0781,46.9688 C26.0781,46.5313 26.0625,46.4063 25.9688,46.25 C25.8125,45.9844 25.5313,45.8438 25.2344,45.8438 C24.9375,45.8438 24.7344,45.9375 24.5156,46.25 L24.3438,46.1719 Z " fill="#000000"/><text fill="#000000" font-family="sans-serif" font-size="14" lengthAdjust="spacing" textLength="51" x="36" y="55.3467">Module</text><line style="stroke:#181818;stroke-width:0.5;" x1="8" x2="89" y1="66.5" y2="66.5"/><line style="stroke:#181818;stroke-width:0.5;" x1="8" x2="89" y1="74.5" y2="74.5"/></g><!--class GameNetModule--><g id="elem_GameNetModule"><rect codeLine="8" fill="#F1F1F1" height="48" id="GameNetModule" rx="2.5" ry="2.5" style="stroke:#181818;stroke-width:0.5;" width="151" x="467" y="34.5"/><ellipse cx="482" cy="50.5" fill="#ADD1B2" rx="11" ry="11" style="stroke:#181818;stroke-width:1.0;"/><path d="M484.3438,46.1719 C483.4063,45.7344 482.8125,45.5938 481.9375,45.5938 C479.3125,45.5938 477.3125,47.6719 477.3125,50.3906 L477.3125,51.5156 C477.3125,54.0938 479.4219,55.9844 482.3125,55.9844 C483.5313,55.9844 484.6875,55.6875 485.4375,55.1406 C486.0156,54.7344 486.3438,54.2813 486.3438,53.8906 C486.3438,53.4375 485.9531,53.0469 485.4844,53.0469 C485.2656,53.0469 485.0625,53.125 484.875,53.3125 C484.4219,53.7969 484.4219,53.7969 484.2344,53.8906 C483.8125,54.1563 483.125,54.2813 482.3594,54.2813 C480.3125,54.2813 479.0156,53.1875 479.0156,51.4844 L479.0156,50.3906 C479.0156,48.6094 480.2656,47.2969 482,47.2969 C482.5781,47.2969 483.1875,47.4531 483.6563,47.7031 C484.1406,47.9844 484.3125,48.2031 484.4063,48.6094 C484.4688,49.0156 484.5,49.1406 484.6406,49.2656 C484.7813,49.4063 485.0156,49.5156 485.2344,49.5156 C485.5,49.5156 485.7656,49.375 485.9375,49.1563 C486.0469,49 486.0781,48.8125 486.0781,48.3906 L486.0781,46.9688 C486.0781,46.5313 486.0625,46.4063 485.9688,46.25 C485.8125,45.9844 485.5313,45.8438 485.2344,45.8438 C484.9375,45.8438 484.7344,45.9375 484.5156,46.25 L484.3438,46.1719 Z " fill="#000000"/><text fill="#000000" font-family="sans-serif" font-size="14" lengthAdjust="spacing" textLength="119" x="496" y="55.3467">GameNetModule</text><line style="stroke:#181818;stroke-width:0.5;" x1="468" x2="617" y1="66.5" y2="66.5"/><line style="stroke:#181818;stroke-width:0.5;" x1="468" x2="617" y1="74.5" y2="74.5"/></g><!--class NodeGO--><g id="elem_NodeGO"><rect codeLine="9" fill="#F1F1F1" height="48" id="NodeGO" rx="2.5" ry="2.5" style="stroke:#181818;stroke-width:0.5;" width="91" x="145" y="184"/><ellipse cx="160" cy="200" fill="#ADD1B2" rx="11" ry="11" style="stroke:#181818;stroke-width:1.0;"/><path d="M162.3438,195.6719 C161.4063,195.2344 160.8125,195.0938 159.9375,195.0938 C157.3125,195.0938 155.3125,197.1719 155.3125,199.8906 L155.3125,201.0156 C155.3125,203.5938 157.4219,205.4844 160.3125,205.4844 C161.5313,205.4844 162.6875,205.1875 163.4375,204.6406 C164.0156,204.2344 164.3438,203.7813 164.3438,203.3906 C164.3438,202.9375 163.9531,202.5469 163.4844,202.5469 C163.2656,202.5469 163.0625,202.625 162.875,202.8125 C162.4219,203.2969 162.4219,203.2969 162.2344,203.3906 C161.8125,203.6563 161.125,203.7813 160.3594,203.7813 C158.3125,203.7813 157.0156,202.6875 157.0156,200.9844 L157.0156,199.8906 C157.0156,198.1094 158.2656,196.7969 160,196.7969 C160.5781,196.7969 161.1875,196.9531 161.6563,197.2031 C162.1406,197.4844 162.3125,197.7031 162.4063,198.1094 C162.4688,198.5156 162.5,198.6406 162.6406,198.7656 C162.7813,198.9063 163.0156,199.0156 163.2344,199.0156 C163.5,199.0156 163.7656,198.875 163.9375,198.6563 C164.0469,198.5 164.0781,198.3125 164.0781,197.8906 L164.0781,196.4688 C164.0781,196.0313 164.0625,195.9063 163.9688,195.75 C163.8125,195.4844 163.5313,195.3438 163.2344,195.3438 C162.9375,195.3438 162.7344,195.4375 162.5156,195.75 L162.3438,195.6719 Z " fill="#000000"/><text fill="#000000" font-family="sans-serif" font-size="14" lengthAdjust="spacing" textLength="59" x="174" y="204.8467">NodeGO</text><line style="stroke:#181818;stroke-width:0.5;" x1="146" x2="235" y1="216" y2="216"/><line style="stroke:#181818;stroke-width:0.5;" x1="146" x2="235" y1="224" y2="224"/></g><!--class CyJsonNodeGO--><g id="elem_CyJsonNodeGO"><rect codeLine="10" fill="#F1F1F1" height="48" id="CyJsonNodeGO" rx="2.5" ry="2.5" style="stroke:#181818;stroke-width:0.5;" width="138" x="295.5" y="184"/><ellipse cx="310.5" cy="200" fill="#ADD1B2" rx="11" ry="11" style="stroke:#181818;stroke-width:1.0;"/><path d="M312.8438,195.6719 C311.9063,195.2344 311.3125,195.0938 310.4375,195.0938 C307.8125,195.0938 305.8125,197.1719 305.8125,199.8906 L305.8125,201.0156 C305.8125,203.5938 307.9219,205.4844 310.8125,205.4844 C312.0313,205.4844 313.1875,205.1875 313.9375,204.6406 C314.5156,204.2344 314.8438,203.7813 314.8438,203.3906 C314.8438,202.9375 314.4531,202.5469 313.9844,202.5469 C313.7656,202.5469 313.5625,202.625 313.375,202.8125 C312.9219,203.2969 312.9219,203.2969 312.7344,203.3906 C312.3125,203.6563 311.625,203.7813 310.8594,203.7813 C308.8125,203.7813 307.5156,202.6875 307.5156,200.9844 L307.5156,199.8906 C307.5156,198.1094 308.7656,196.7969 310.5,196.7969 C311.0781,196.7969 311.6875,196.9531 312.1563,197.2031 C312.6406,197.4844 312.8125,197.7031 312.9063,198.1094 C312.9688,198.5156 313,198.6406 313.1406,198.7656 C313.2813,198.9063 313.5156,199.0156 313.7344,199.0156 C314,199.0156 314.2656,198.875 314.4375,198.6563 C314.5469,198.5 314.5781,198.3125 314.5781,197.8906 L314.5781,196.4688 C314.5781,196.0313 314.5625,195.9063 314.4688,195.75 C314.3125,195.4844 314.0313,195.3438 313.7344,195.3438 C313.4375,195.3438 313.2344,195.4375 313.0156,195.75 L312.8438,195.6719 Z " fill="#000000"/><text fill="#000000" font-family="sans-serif" font-size="14" lengthAdjust="spacing" textLength="106" x="324.5" y="204.8467">CyJsonNodeGO</text><line style="stroke:#181818;stroke-width:0.5;" x1="296.5" x2="432.5" y1="216" y2="216"/><line style="stroke:#181818;stroke-width:0.5;" x1="296.5" x2="432.5" y1="224" y2="224"/></g><!--reverse link Module to NodeGO--><g id="link_Module_NodeGO"><path codeLine="12" d="M83.1714,95.5143 C109.6924,123.0623 141.341,155.937 168,183.6282 " fill="none" id="Module-backto-NodeGO" style="stroke:#181818;stroke-width:1.0;"/><polygon fill="none" points="70.6875,82.547,78.849,99.6756,87.4939,91.353,70.6875,82.547" style="stroke:#181818;stroke-width:1.0;"/></g><!--reverse link INodeGO to NodeGO--><g id="link_INodeGO_NodeGO"><path codeLine="13" d="M243.7807,117.6942 C228.5237,143.2665 216.582,163.2832 204.401,183.6994 " fill="none" id="INodeGO-backto-NodeGO" style="stroke:#181818;stroke-width:1.0;"/><polygon fill="#181818" points="249.929,107.389,243.4198,110.4922,243.7807,117.6942,250.2899,114.5911,249.929,107.389" style="stroke:#181818;stroke-width:1.0;"/><text fill="#000000" font-family="sans-serif" font-size="13" lengthAdjust="spacing" textLength="53" x="233.5" y="150.0669">&lt;Node&gt;</text></g><!--reverse link GameNetModule to CyJsonNodeGO--><g id="link_GameNetModule_CyJsonNodeGO"><path codeLine="15" d="M506.1826,95.0487 C485.7886,114.7577 468.022,130.993 439.5,154 C426.718,164.3107 412.08,174.9041 399.15,183.8837 " fill="none" id="GameNetModule-backto-CyJsonNodeGO" style="stroke:#181818;stroke-width:1.0;"/><polygon fill="none" points="519.126,82.54,502.013,90.7342,510.3521,99.3632,519.126,82.54" style="stroke:#181818;stroke-width:1.0;"/></g><!--reverse link INodeGO to CyJsonNodeGO--><g id="link_INodeGO_CyJsonNodeGO"><path codeLine="16" d="M312.4663,117.7556 C327.3763,143.3279 339.011,163.2832 350.915,183.6994 " fill="none" id="INodeGO-backto-CyJsonNodeGO" style="stroke:#181818;stroke-width:1.0;"/><polygon fill="#181818" points="306.422,107.389,305.9886,114.5871,312.4663,117.7556,312.8997,110.5575,306.422,107.389" style="stroke:#181818;stroke-width:1.0;"/><text fill="#000000" font-family="sans-serif" font-size="13" lengthAdjust="spacing" textLength="97" x="333.5" y="150.0669">&lt;CyJsonNode&gt;</text></g><!--SRC=[LO_13e8m44Jl-nLxL1D-W91UD26QM0zuDmqisWHQqrODKVzTQ0j2B-sydPbqfN9aQb4IxhckA3zbmtNkxeIl6nd2KQR1mF0Ds9_9fVh7JZZXgNL6gYjALMlJ2YUrAZpnmwUM5HRaU4oifexBMBA6Bq3P26lngAj7Gr7aeYLERi72TwFOTWUhLKGGV9XzacIqnUrmCo5CqU_A01Rr8ROed8VdWw7YhzaF]--></g></svg>