<?xml version="1.0" encoding="us-ascii" standalone="no"?><svg xmlns="http://www.w3.org/2000/svg" xmlns:xlink="http://www.w3.org/1999/xlink" contentStyleType="text/css" height="895px" preserveAspectRatio="none" style="width:1454px;height:895px;background:#FFFFFF;" version="1.1" viewBox="0 0 1454 895" width="1454px" zoomAndPan="magnify"><defs/><g><rect fill="#DDDDDD" height="883.5781" style="stroke:#181818;stroke-width:0.5;" width="633" x="1" y="6"/><text fill="#000000" font-family="sans-serif" font-size="13" font-weight="bold" lengthAdjust="spacing" textLength="44" x="291" y="18.0669">Client</text><text fill="#000000" font-family="sans-serif" font-size="13" font-style="italic" font-weight="bold" lengthAdjust="spacing" textLength="4" x="340" y="18.0669">i</text><rect fill="#DDDDDD" height="883.5781" style="stroke:#181818;stroke-width:0.5;" width="371" x="636" y="6"/><text fill="#000000" font-family="sans-serif" font-size="13" font-weight="bold" lengthAdjust="spacing" textLength="103" x="770" y="18.0669">Server (Host)</text><rect fill="#DDDDDD" height="883.5781" style="stroke:#181818;stroke-width:0.5;" width="107" x="1267" y="6"/><text fill="#000000" font-family="sans-serif" font-size="13" font-weight="bold" lengthAdjust="spacing" textLength="44" x="1294" y="18.0669">Client</text><text fill="#000000" font-family="sans-serif" font-size="13" font-style="italic" font-weight="bold" lengthAdjust="spacing" textLength="4" x="1343" y="18.0669">j</text><rect fill="#FFFFFF" height="581.6563" style="stroke:#181818;stroke-width:1.0;" width="10" x="575.5" y="264.625"/><rect fill="#FFFFFF" height="670.1875" style="stroke:#181818;stroke-width:1.0;" width="10" x="948.5" y="176.0938"/><rect fill="#FFFFFF" height="625.9219" style="stroke:#181818;stroke-width:1.0;" width="10" x="1315.5" y="220.3594"/><rect fill="none" height="75.3984" style="stroke:#000000;stroke-width:1.5;" width="859" x="521" y="591.0859"/><line style="stroke:#181818;stroke-width:0.5;stroke-dasharray:5.0,5.0;" x1="110" x2="110" y1="56.4297" y2="855.2813"/><line style="stroke:#181818;stroke-width:0.5;stroke-dasharray:5.0,5.0;" x1="382" x2="382" y1="56.4297" y2="855.2813"/><line style="stroke:#181818;stroke-width:0.5;stroke-dasharray:5.0,5.0;" x1="580" x2="580" y1="56.4297" y2="855.2813"/><line style="stroke:#181818;stroke-width:0.5;stroke-dasharray:5.0,5.0;" x1="737" x2="737" y1="56.4297" y2="855.2813"/><line style="stroke:#181818;stroke-width:0.5;stroke-dasharray:5.0,5.0;" x1="953" x2="953" y1="56.4297" y2="855.2813"/><line style="stroke:#181818;stroke-width:0.5;stroke-dasharray:5.0,5.0;" x1="1320" x2="1320" y1="56.4297" y2="855.2813"/><rect fill="#E2E2F0" height="30.2969" rx="2.5" ry="2.5" style="stroke:#181818;stroke-width:0.5;" width="211" x="5" y="25.1328"/><text fill="#000000" font-family="sans-serif" font-size="14" lengthAdjust="spacing" textLength="197" x="12" y="45.1279">HttpServerImporterModule</text><rect fill="#E2E2F0" height="30.2969" rx="2.5" ry="2.5" style="stroke:#181818;stroke-width:0.5;" width="211" x="5" y="854.2813"/><text fill="#000000" font-family="sans-serif" font-size="14" lengthAdjust="spacing" textLength="197" x="12" y="874.2764">HttpServerImporterModule</text><rect fill="#E2E2F0" height="30.2969" rx="2.5" ry="2.5" style="stroke:#181818;stroke-width:0.5;" width="195" x="285" y="25.1328"/><text fill="#000000" font-family="sans-serif" font-size="14" lengthAdjust="spacing" textLength="181" x="292" y="45.1279">GameNetModuleSpawner</text><rect fill="#E2E2F0" height="30.2969" rx="2.5" ry="2.5" style="stroke:#181818;stroke-width:0.5;" width="195" x="285" y="854.2813"/><text fill="#000000" font-family="sans-serif" font-size="14" lengthAdjust="spacing" textLength="181" x="292" y="874.2764">GameNetModuleSpawner</text><rect fill="#E2E2F0" height="30.2969" rx="2.5" ry="2.5" style="stroke:#181818;stroke-width:0.5;" width="99" x="531" y="25.1328"/><text fill="#000000" font-family="sans-serif" font-size="14" lengthAdjust="spacing" textLength="85" x="538" y="45.1279">DataModule</text><rect fill="#E2E2F0" height="30.2969" rx="2.5" ry="2.5" style="stroke:#181818;stroke-width:0.5;" width="99" x="531" y="854.2813"/><text fill="#000000" font-family="sans-serif" font-size="14" lengthAdjust="spacing" textLength="85" x="538" y="874.2764">DataModule</text><rect fill="#E2E2F0" height="30.2969" rx="2.5" ry="2.5" style="stroke:#181818;stroke-width:0.5;" width="195" x="640" y="25.1328"/><text fill="#000000" font-family="sans-serif" font-size="14" lengthAdjust="spacing" textLength="181" x="647" y="45.1279">GameNetModuleSpawner</text><rect fill="#E2E2F0" height="30.2969" rx="2.5" ry="2.5" style="stroke:#181818;stroke-width:0.5;" width="195" x="640" y="854.2813"/><text fill="#000000" font-family="sans-serif" font-size="14" lengthAdjust="spacing" textLength="181" x="647" y="874.2764">GameNetModuleSpawner</text><rect fill="#E2E2F0" height="30.2969" rx="2.5" ry="2.5" style="stroke:#181818;stroke-width:0.5;" width="99" x="904" y="25.1328"/><text fill="#000000" font-family="sans-serif" font-size="14" lengthAdjust="spacing" textLength="85" x="911" y="45.1279">DataModule</text><rect fill="#E2E2F0" height="30.2969" rx="2.5" ry="2.5" style="stroke:#181818;stroke-width:0.5;" width="99" x="904" y="854.2813"/><text fill="#000000" font-family="sans-serif" font-size="14" lengthAdjust="spacing" textLength="85" x="911" y="874.2764">DataModule</text><rect fill="#E2E2F0" height="30.2969" rx="2.5" ry="2.5" style="stroke:#181818;stroke-width:0.5;" width="99" x="1271" y="25.1328"/><text fill="#000000" font-family="sans-serif" font-size="14" lengthAdjust="spacing" textLength="85" x="1278" y="45.1279">DataModule</text><rect fill="#E2E2F0" height="30.2969" rx="2.5" ry="2.5" style="stroke:#181818;stroke-width:0.5;" width="99" x="1271" y="854.2813"/><text fill="#000000" font-family="sans-serif" font-size="14" lengthAdjust="spacing" textLength="85" x="1278" y="874.2764">DataModule</text><rect fill="#FFFFFF" height="581.6563" style="stroke:#181818;stroke-width:1.0;" width="10" x="575.5" y="264.625"/><rect fill="#FFFFFF" height="670.1875" style="stroke:#181818;stroke-width:1.0;" width="10" x="948.5" y="176.0938"/><rect fill="#FFFFFF" height="625.9219" style="stroke:#181818;stroke-width:1.0;" width="10" x="1315.5" y="220.3594"/><polygon fill="#181818" points="370.5,98.6953,380.5,102.6953,370.5,106.6953,374.5,102.6953" style="stroke:#181818;stroke-width:1.0;"/><line style="stroke:#181818;stroke-width:1.0;" x1="110.5" x2="376.5" y1="102.6953" y2="102.6953"/><text fill="#000000" font-family="sans-serif" font-size="13" lengthAdjust="spacing" textLength="210" x="117.5" y="82.4966">RequestModuleSpawnFromData(</text><text fill="#000000" font-family="sans-serif" font-size="13" lengthAdjust="spacing" textLength="248" x="117.5" y="97.6294">moduleTypeID, dataName, fragments)</text><polygon fill="#181818" points="725.5,142.9609,735.5,146.9609,725.5,150.9609,729.5,146.9609" style="stroke:#181818;stroke-width:1.0;"/><line style="stroke:#181818;stroke-width:1.0;stroke-dasharray:2.0,2.0;" x1="382.5" x2="731.5" y1="146.9609" y2="146.9609"/><text fill="#000000" font-family="sans-serif" font-size="13" lengthAdjust="spacing" textLength="212" x="389.5" y="126.7622">RequestModuleSpawnServerRpc(</text><text fill="#000000" font-family="sans-serif" font-size="13" lengthAdjust="spacing" textLength="153" x="389.5" y="141.895">moduleTypeID, clientID)</text><polygon fill="#181818" points="936.5,172.0938,946.5,176.0938,936.5,180.0938,940.5,176.0938" style="stroke:#181818;stroke-width:1.0;"/><line style="stroke:#181818;stroke-width:1.0;" x1="737.5" x2="942.5" y1="176.0938" y2="176.0938"/><text fill="#000000" font-family="sans-serif" font-size="13" lengthAdjust="spacing" textLength="43" x="744.5" y="171.0278">Spawn</text><polygon fill="#181818" points="1303.5,216.3594,1313.5,220.3594,1303.5,224.3594,1307.5,220.3594" style="stroke:#181818;stroke-width:1.0;"/><line style="stroke:#181818;stroke-width:1.0;stroke-dasharray:2.0,2.0;" x1="958.5" x2="1309.5" y1="220.3594" y2="220.3594"/><text fill="#000000" font-family="sans-serif" font-size="13" lengthAdjust="spacing" textLength="70" x="965.5" y="200.1606">Replication</text><text fill="#000000" font-family="sans-serif" font-size="13" lengthAdjust="spacing" textLength="106" x="965.5" y="215.2935">(order unknown)</text><polygon fill="#181818" points="596.5,260.625,586.5,264.625,596.5,268.625,592.5,264.625" style="stroke:#181818;stroke-width:1.0;"/><line style="stroke:#181818;stroke-width:1.0;stroke-dasharray:2.0,2.0;" x1="590.5" x2="947.5" y1="264.625" y2="264.625"/><text fill="#000000" font-family="sans-serif" font-size="13" lengthAdjust="spacing" textLength="70" x="602.5" y="244.4263">Replication</text><text fill="#000000" font-family="sans-serif" font-size="13" lengthAdjust="spacing" textLength="106" x="602.5" y="259.5591">(order unknown)</text><polygon fill="#181818" points="936.5,289.7578,946.5,293.7578,936.5,297.7578,940.5,293.7578" style="stroke:#181818;stroke-width:1.0;"/><line style="stroke:#181818;stroke-width:1.0;" x1="737.5" x2="942.5" y1="293.7578" y2="293.7578"/><text fill="#000000" font-family="sans-serif" font-size="13" lengthAdjust="spacing" textLength="174" x="744.5" y="288.6919">ChangeOwnership(clientID)</text><path d="M871,306.7578 L871,331.7578 L1035,331.7578 L1035,316.7578 L1025,306.7578 L871,306.7578 " fill="#FEFFDD" style="stroke:#181818;stroke-width:0.5;"/><path d="M1025,306.7578 L1025,316.7578 L1035,316.7578 L1025,306.7578 " fill="#FEFFDD" style="stroke:#181818;stroke-width:0.5;"/><text fill="#000000" font-family="sans-serif" font-size="13" lengthAdjust="spacing" textLength="130" x="877" y="323.8247">new owner is "Client</text><text fill="#000000" font-family="sans-serif" font-size="13" font-style="italic" lengthAdjust="spacing" textLength="4" x="1011" y="323.8247">i</text><text fill="#000000" font-family="sans-serif" font-size="13" lengthAdjust="spacing" textLength="5" x="1015" y="323.8247">"</text><polygon fill="#181818" points="393.5,369.1563,383.5,373.1563,393.5,377.1563,389.5,373.1563" style="stroke:#181818;stroke-width:1.0;"/><line style="stroke:#181818;stroke-width:1.0;stroke-dasharray:2.0,2.0;" x1="387.5" x2="736.5" y1="373.1563" y2="373.1563"/><text fill="#000000" font-family="sans-serif" font-size="13" lengthAdjust="spacing" textLength="254" x="399.5" y="352.9575">GiveNetworkObjectReferenceClientRpc(</text><text fill="#000000" font-family="sans-serif" font-size="13" lengthAdjust="spacing" textLength="238" x="399.5" y="368.0903">dataModuleNetRef, clientRpcParams)</text><polygon fill="#181818" points="563.5,413.4219,573.5,417.4219,563.5,421.4219,567.5,417.4219" style="stroke:#181818;stroke-width:1.0;"/><line style="stroke:#181818;stroke-width:1.0;" x1="382.5" x2="569.5" y1="417.4219" y2="417.4219"/><text fill="#000000" font-family="sans-serif" font-size="13" lengthAdjust="spacing" textLength="169" x="389.5" y="397.2231">DirectReceiveSourceData(</text><text fill="#000000" font-family="sans-serif" font-size="13" lengthAdjust="spacing" textLength="147" x="389.5" y="412.356">dataName, fragments)</text><line style="stroke:#181818;stroke-width:1.0;" x1="585.5" x2="627.5" y1="446.5547" y2="446.5547"/><line style="stroke:#181818;stroke-width:1.0;" x1="627.5" x2="627.5" y1="446.5547" y2="459.5547"/><line style="stroke:#181818;stroke-width:1.0;" x1="586.5" x2="627.5" y1="459.5547" y2="459.5547"/><polygon fill="#181818" points="596.5,455.5547,586.5,459.5547,596.5,463.5547,592.5,459.5547" style="stroke:#181818;stroke-width:1.0;"/><text fill="#000000" font-family="sans-serif" font-size="13" lengthAdjust="spacing" textLength="94" x="592.5" y="441.4888">AssembleData</text><polygon fill="#181818" points="936.5,484.6875,946.5,488.6875,936.5,492.6875,940.5,488.6875" style="stroke:#181818;stroke-width:1.0;"/><line style="stroke:#181818;stroke-width:1.0;stroke-dasharray:2.0,2.0;" x1="585.5" x2="942.5" y1="488.6875" y2="488.6875"/><text fill="#000000" font-family="sans-serif" font-size="13" lengthAdjust="spacing" textLength="320" x="592.5" y="483.6216">BroadcastSourceDataNameServerRpc(dataName)</text><polygon fill="#181818" points="1303.5,513.8203,1313.5,517.8203,1303.5,521.8203,1307.5,517.8203" style="stroke:#181818;stroke-width:1.0;"/><line style="stroke:#181818;stroke-width:1.0;stroke-dasharray:2.0,2.0;" x1="958.5" x2="1309.5" y1="517.8203" y2="517.8203"/><text fill="#000000" font-family="sans-serif" font-size="13" lengthAdjust="spacing" textLength="314" x="965.5" y="512.7544">BroadcastSourceDataNameClientRpc(dataName)</text><polygon fill="#181818" points="936.5,542.9531,946.5,546.9531,936.5,550.9531,940.5,546.9531" style="stroke:#181818;stroke-width:1.0;"/><line style="stroke:#181818;stroke-width:1.0;stroke-dasharray:2.0,2.0;" x1="585.5" x2="942.5" y1="546.9531" y2="546.9531"/><text fill="#000000" font-family="sans-serif" font-size="13" lengthAdjust="spacing" textLength="339" x="592.5" y="541.8872">BroadcastSourceDataNbFragsServerRpc(nbTotFrags)</text><polygon fill="#181818" points="1303.5,572.0859,1313.5,576.0859,1303.5,580.0859,1307.5,576.0859" style="stroke:#181818;stroke-width:1.0;"/><line style="stroke:#181818;stroke-width:1.0;stroke-dasharray:2.0,2.0;" x1="958.5" x2="1309.5" y1="576.0859" y2="576.0859"/><text fill="#000000" font-family="sans-serif" font-size="13" lengthAdjust="spacing" textLength="333" x="965.5" y="571.02">BroadcastSourceDataNbFragsClientRpc(nbTotFrags)</text><path d="M521,591.0859 L599,591.0859 L599,598.2188 L589,608.2188 L521,608.2188 L521,591.0859 " fill="#EEEEEE" style="stroke:#000000;stroke-width:1.5;"/><rect fill="none" height="75.3984" style="stroke:#000000;stroke-width:1.5;" width="859" x="521" y="591.0859"/><text fill="#000000" font-family="sans-serif" font-size="13" font-weight="bold" lengthAdjust="spacing" textLength="33" x="536" y="604.1528">loop</text><text fill="#000000" font-family="sans-serif" font-size="11" font-weight="bold" lengthAdjust="spacing" textLength="62" x="614" y="603.2964">[nbFrags]</text><polygon fill="#181818" points="936.5,625.3516,946.5,629.3516,936.5,633.3516,940.5,629.3516" style="stroke:#181818;stroke-width:1.0;"/><line style="stroke:#181818;stroke-width:1.0;stroke-dasharray:2.0,2.0;" x1="585.5" x2="942.5" y1="629.3516" y2="629.3516"/><text fill="#000000" font-family="sans-serif" font-size="13" lengthAdjust="spacing" textLength="269" x="592.5" y="624.2856">BroadcastSourceDataFragServerRpc(frag)</text><polygon fill="#181818" points="1303.5,654.4844,1313.5,658.4844,1303.5,662.4844,1307.5,658.4844" style="stroke:#181818;stroke-width:1.0;"/><line style="stroke:#181818;stroke-width:1.0;stroke-dasharray:2.0,2.0;" x1="958.5" x2="1309.5" y1="658.4844" y2="658.4844"/><text fill="#000000" font-family="sans-serif" font-size="13" lengthAdjust="spacing" textLength="263" x="965.5" y="653.4185">BroadcastSourceDataFragClientRpc(frag)</text><path d="M1194,678.4844 L1194,718.4844 L1447,718.4844 L1447,688.4844 L1437,678.4844 L1194,678.4844 " fill="#FEFFDD" style="stroke:#181818;stroke-width:0.5;"/><path d="M1437,678.4844 L1437,688.4844 L1447,688.4844 L1437,678.4844 " fill="#FEFFDD" style="stroke:#181818;stroke-width:0.5;"/><text fill="#000000" font-family="sans-serif" font-size="13" lengthAdjust="spacing" textLength="232" x="1200" y="695.5513">if (nbFragsReceived == nbTotFrags)</text><text fill="#000000" font-family="sans-serif" font-size="13" lengthAdjust="spacing" textLength="129" x="1216" y="710.6841">confirm + assemble</text><polygon fill="#181818" points="969.5,740.8828,959.5,744.8828,969.5,748.8828,965.5,744.8828" style="stroke:#181818;stroke-width:1.0;"/><line style="stroke:#181818;stroke-width:1.0;stroke-dasharray:2.0,2.0;" x1="963.5" x2="1314.5" y1="744.8828" y2="744.8828"/><text fill="#000000" font-family="sans-serif" font-size="13" lengthAdjust="spacing" textLength="256" x="975.5" y="739.8169">ConfirmSourceDataReceptionServerRpc</text><line style="stroke:#181818;stroke-width:1.0;" x1="1325.5" x2="1367.5" y1="774.0156" y2="774.0156"/><line style="stroke:#181818;stroke-width:1.0;" x1="1367.5" x2="1367.5" y1="774.0156" y2="787.0156"/><line style="stroke:#181818;stroke-width:1.0;" x1="1326.5" x2="1367.5" y1="787.0156" y2="787.0156"/><polygon fill="#181818" points="1336.5,783.0156,1326.5,787.0156,1336.5,791.0156,1332.5,787.0156" style="stroke:#181818;stroke-width:1.0;"/><text fill="#000000" font-family="sans-serif" font-size="13" lengthAdjust="spacing" textLength="94" x="1332.5" y="768.9497">AssembleData</text><path d="M814,800.0156 L814,840.0156 L1093,840.0156 L1093,810.0156 L1083,800.0156 L814,800.0156 " fill="#FEFFDD" style="stroke:#181818;stroke-width:0.5;"/><path d="M1083,800.0156 L1083,810.0156 L1093,810.0156 L1083,800.0156 " fill="#FEFFDD" style="stroke:#181818;stroke-width:0.5;"/><text fill="#000000" font-family="sans-serif" font-size="13" lengthAdjust="spacing" textLength="258" x="820" y="817.0825">if (nbClientConfirmation == nbTotClient)</text><text fill="#000000" font-family="sans-serif" font-size="13" lengthAdjust="spacing" textLength="179" x="836" y="832.2153">data is ready for generation</text><!--SRC=[ZLF1Rk8m4BtxAqOzWTgAEr9NsYKgvG1TaHvxSPA1cXBRQvlI_lrwR1CdjBk5GoJiUM_UcpUkr3jSpVO2fOF9H4mcLqnpuqGjDFT73yxf4iqRcaMhbN5ebgevx16uZNUBvKmC47FUuWfTB2irFqeqL3rVBSkpqe8xdkaAOaBPLEgTCV-1s1T63ygwySKzol-sA0STil7TkV5FsdO92Onrnk7sH_85KrZZdmFQlgXxerhY6JtBDfm-VMXS53VG-CELzt036yEthPTWnomHtIREyYl6E9ArhZzHri79eXYpG5IID6_t-deA0Sdydy1DLkXqZNelQkw4aizof4pZHtYGhr8TvRXVBBuj7ZISmko5ooq-KYRsHUXHLYQLGr2KAGKXyGWg92Vi-GhwKGDLTzpTeASm5syK_b6PryTgXxLRumODoXeZHvnEq-NdQtt5QKB-zZStlBL9TmoHV4wX42RGrUXRbEfWQapnVHbOiUo3VrgBRRKF29RkJYFvPHHlQcvT9YMsdEQ9Vp3vtJ-1sMW6Nj2oklVYRUuggoVbmjabVICwj-wZsLuf3JAMVA-4oh8C6ka50WYKkqUGtnCsM2l_JCK6Hab9YhA1kpleomN_gvNS2DF2jN_VCRdUrX5HTZ2BfLaAyMfw39s9X3Z97ox3SE-ZlkWaCOU7rOcCLr4bvKllmo1lFc2Z36pHFva0wFJ-1G00]--></g></svg>