<?xml version="1.0" encoding="us-ascii" standalone="no"?><svg xmlns="http://www.w3.org/2000/svg" xmlns:xlink="http://www.w3.org/1999/xlink" contentStyleType="text/css" height="1209px" preserveAspectRatio="none" style="width:1447px;height:1209px;background:#FFFFFF;" version="1.1" viewBox="0 0 1447 1209" width="1447px" zoomAndPan="magnify"><defs/><g><rect fill="#DDDDDD" height="1197.5078" style="stroke:#181818;stroke-width:0.5;" width="414.5" x="1" y="6"/><text fill="#000000" font-family="sans-serif" font-size="13" font-weight="bold" lengthAdjust="spacing" textLength="42" x="182.75" y="18.0669">client</text><text fill="#000000" font-family="sans-serif" font-size="13" font-style="italic" font-weight="bold" lengthAdjust="spacing" textLength="4" x="229.75" y="18.0669">i</text><rect fill="#DDDDDD" height="1197.5078" style="stroke:#181818;stroke-width:0.5;" width="671" x="459.5" y="6"/><text fill="#000000" font-family="sans-serif" font-size="13" font-weight="bold" lengthAdjust="spacing" textLength="103" x="743.5" y="18.0669">Server (Host)</text><rect fill="#DDDDDD" height="1197.5078" style="stroke:#181818;stroke-width:0.5;" width="307" x="1132.5" y="6"/><text fill="#000000" font-family="sans-serif" font-size="13" font-weight="bold" lengthAdjust="spacing" textLength="42" x="1260.5" y="18.0669">client</text><text fill="#000000" font-family="sans-serif" font-size="13" font-style="italic" font-weight="bold" lengthAdjust="spacing" textLength="4" x="1307.5" y="18.0669">j</text><rect fill="#FFFFFF" height="982.6484" style="stroke:#181818;stroke-width:1.0;" width="10" x="156" y="132.5625"/><rect fill="#FFFFFF" height="686.3203" style="stroke:#181818;stroke-width:1.0;" width="10" x="310.5" y="428.8906"/><rect fill="#FFFFFF" height="404.8594" style="stroke:#181818;stroke-width:1.0;" width="10" x="315.5" y="710.3516"/><rect fill="#FFFFFF" height="197.9297" style="stroke:#181818;stroke-width:1.0;" width="10" x="320.5" y="917.2813"/><rect fill="#FFFFFF" height="662.1875" style="stroke:#181818;stroke-width:1.0;" width="10" x="507" y="321.3594"/><rect fill="#FFFFFF" height="222.0625" style="stroke:#181818;stroke-width:1.0;" width="10" x="512" y="510.2891"/><rect fill="#FFFFFF" height="222.0625" style="stroke:#181818;stroke-width:1.0;" width="10" x="512" y="761.4844"/><rect fill="#FFFFFF" height="730.5859" style="stroke:#181818;stroke-width:1.0;" width="10" x="1025.5" y="384.625"/><rect fill="#FFFFFF" height="493.3906" style="stroke:#181818;stroke-width:1.0;" width="10" x="1030.5" y="621.8203"/><rect fill="#FFFFFF" height="242.1953" style="stroke:#181818;stroke-width:1.0;" width="10" x="1035.5" y="873.0156"/><rect fill="#FFFFFF" height="642.0547" style="stroke:#181818;stroke-width:1.0;" width="10" x="1227.5" y="473.1563"/><rect fill="#FFFFFF" height="449.125" style="stroke:#181818;stroke-width:1.0;" width="10" x="1232.5" y="666.0859"/><rect fill="#FFFFFF" height="153.6641" style="stroke:#181818;stroke-width:1.0;" width="10" x="1237.5" y="961.5469"/><rect fill="none" height="195.0625" style="stroke:#000000;stroke-width:1.5;" width="1149" x="199.5" y="530.2891"/><rect fill="none" height="163.9297" style="stroke:#000000;stroke-width:1.5;" width="1129" x="209.5" y="554.4219"/><rect fill="none" height="195.0625" style="stroke:#000000;stroke-width:1.5;" width="1149" x="199.5" y="781.4844"/><rect fill="none" height="163.9297" style="stroke:#000000;stroke-width:1.5;" width="1129" x="209.5" y="805.6172"/><line style="stroke:#181818;stroke-width:0.5;stroke-dasharray:5.0,5.0;" x1="26" x2="26" y1="101.4297" y2="1124.2109"/><line style="stroke:#181818;stroke-width:0.5;stroke-dasharray:5.0,5.0;" x1="160.5" x2="160.5" y1="101.4297" y2="1124.2109"/><line style="stroke:#181818;stroke-width:0.5;stroke-dasharray:5.0,5.0;" x1="315.5" x2="315.5" y1="101.4297" y2="1124.2109"/><line style="stroke:#181818;stroke-width:0.5;stroke-dasharray:5.0,5.0;" x1="511.5" x2="511.5" y1="101.4297" y2="1124.2109"/><line style="stroke:#181818;stroke-width:0.5;stroke-dasharray:5.0,5.0;" x1="844.5" x2="844.5" y1="101.4297" y2="1124.2109"/><line style="stroke:#181818;stroke-width:0.5;stroke-dasharray:5.0,5.0;" x1="1030.5" x2="1030.5" y1="101.4297" y2="1124.2109"/><line style="stroke:#181818;stroke-width:0.5;stroke-dasharray:5.0,5.0;" x1="1232.5" x2="1232.5" y1="101.4297" y2="1124.2109"/><line style="stroke:#181818;stroke-width:0.5;stroke-dasharray:5.0,5.0;" x1="1386.5" x2="1386.5" y1="101.4297" y2="1124.2109"/><text fill="#000000" font-family="sans-serif" font-size="14" lengthAdjust="spacing" textLength="36" x="5" y="98.1279">diver</text><ellipse cx="26" cy="33.6328" fill="#E2E2F0" rx="8" ry="8" style="stroke:#181818;stroke-width:0.5;"/><path d="M26,41.6328 L26,68.6328 M13,49.6328 L39,49.6328 M26,68.6328 L13,83.6328 M26,68.6328 L39,83.6328 " fill="none" style="stroke:#181818;stroke-width:0.5;"/><text fill="#000000" font-family="sans-serif" font-size="14" lengthAdjust="spacing" textLength="36" x="5" y="1136.2061">diver</text><ellipse cx="26" cy="1148.0078" fill="#E2E2F0" rx="8" ry="8" style="stroke:#181818;stroke-width:0.5;"/><path d="M26,1156.0078 L26,1183.0078 M13,1164.0078 L39,1164.0078 M26,1183.0078 L13,1198.0078 M26,1183.0078 L39,1198.0078 " fill="none" style="stroke:#181818;stroke-width:0.5;"/><rect fill="#E2E2F0" height="30.2969" rx="2.5" ry="2.5" style="stroke:#181818;stroke-width:0.5;" width="97" x="112.5" y="70.1328"/><text fill="#000000" font-family="sans-serif" font-size="14" lengthAdjust="spacing" textLength="83" x="119.5" y="90.1279">dataModule</text><rect fill="#E2E2F0" height="30.2969" rx="2.5" ry="2.5" style="stroke:#181818;stroke-width:0.5;" width="97" x="112.5" y="1123.2109"/><text fill="#000000" font-family="sans-serif" font-size="14" lengthAdjust="spacing" textLength="83" x="119.5" y="1143.2061">dataModule</text><rect fill="#E2E2F0" height="30.2969" rx="2.5" ry="2.5" style="stroke:#181818;stroke-width:0.5;" width="192" x="219.5" y="70.1328"/><text fill="#000000" font-family="sans-serif" font-size="14" lengthAdjust="spacing" textLength="178" x="226.5" y="90.1279">New Dive Scene Content</text><rect fill="#E2E2F0" height="30.2969" rx="2.5" ry="2.5" style="stroke:#181818;stroke-width:0.5;" width="192" x="219.5" y="1123.2109"/><text fill="#000000" font-family="sans-serif" font-size="14" lengthAdjust="spacing" textLength="178" x="226.5" y="1143.2061">New Dive Scene Content</text><rect fill="#E2E2F0" height="30.2969" rx="2.5" ry="2.5" style="stroke:#181818;stroke-width:0.5;" width="97" x="463.5" y="70.1328"/><text fill="#000000" font-family="sans-serif" font-size="14" lengthAdjust="spacing" textLength="83" x="470.5" y="90.1279">dataModule</text><rect fill="#E2E2F0" height="30.2969" rx="2.5" ry="2.5" style="stroke:#181818;stroke-width:0.5;" width="97" x="463.5" y="1123.2109"/><text fill="#000000" font-family="sans-serif" font-size="14" lengthAdjust="spacing" textLength="83" x="470.5" y="1143.2061">dataModule</text><rect fill="#E2E2F0" height="30.2969" rx="2.5" ry="2.5" style="stroke:#181818;stroke-width:0.5;" width="159" x="765.5" y="70.1328"/><text fill="#000000" font-family="sans-serif" font-size="14" lengthAdjust="spacing" textLength="145" x="772.5" y="90.1279">Dive Scene Manager</text><rect fill="#E2E2F0" height="30.2969" rx="2.5" ry="2.5" style="stroke:#181818;stroke-width:0.5;" width="159" x="765.5" y="1123.2109"/><text fill="#000000" font-family="sans-serif" font-size="14" lengthAdjust="spacing" textLength="145" x="772.5" y="1143.2061">Dive Scene Manager</text><rect fill="#E2E2F0" height="30.2969" rx="2.5" ry="2.5" style="stroke:#181818;stroke-width:0.5;" width="192" x="934.5" y="70.1328"/><text fill="#000000" font-family="sans-serif" font-size="14" lengthAdjust="spacing" textLength="178" x="941.5" y="90.1279">New Dive Scene Content</text><rect fill="#E2E2F0" height="30.2969" rx="2.5" ry="2.5" style="stroke:#181818;stroke-width:0.5;" width="192" x="934.5" y="1123.2109"/><text fill="#000000" font-family="sans-serif" font-size="14" lengthAdjust="spacing" textLength="178" x="941.5" y="1143.2061">New Dive Scene Content</text><rect fill="#E2E2F0" height="30.2969" rx="2.5" ry="2.5" style="stroke:#181818;stroke-width:0.5;" width="192" x="1136.5" y="70.1328"/><text fill="#000000" font-family="sans-serif" font-size="14" lengthAdjust="spacing" textLength="178" x="1143.5" y="90.1279">New Dive Scene Content</text><rect fill="#E2E2F0" height="30.2969" rx="2.5" ry="2.5" style="stroke:#181818;stroke-width:0.5;" width="192" x="1136.5" y="1123.2109"/><text fill="#000000" font-family="sans-serif" font-size="14" lengthAdjust="spacing" textLength="178" x="1143.5" y="1143.2061">New Dive Scene Content</text><rect fill="#E2E2F0" height="30.2969" rx="2.5" ry="2.5" style="stroke:#181818;stroke-width:0.5;" width="97" x="1338.5" y="70.1328"/><text fill="#000000" font-family="sans-serif" font-size="14" lengthAdjust="spacing" textLength="83" x="1345.5" y="90.1279">dataModule</text><rect fill="#E2E2F0" height="30.2969" rx="2.5" ry="2.5" style="stroke:#181818;stroke-width:0.5;" width="97" x="1338.5" y="1123.2109"/><text fill="#000000" font-family="sans-serif" font-size="14" lengthAdjust="spacing" textLength="83" x="1345.5" y="1143.2061">dataModule</text><rect fill="#FFFFFF" height="982.6484" style="stroke:#181818;stroke-width:1.0;" width="10" x="156" y="132.5625"/><rect fill="#FFFFFF" height="686.3203" style="stroke:#181818;stroke-width:1.0;" width="10" x="310.5" y="428.8906"/><rect fill="#FFFFFF" height="404.8594" style="stroke:#181818;stroke-width:1.0;" width="10" x="315.5" y="710.3516"/><rect fill="#FFFFFF" height="197.9297" style="stroke:#181818;stroke-width:1.0;" width="10" x="320.5" y="917.2813"/><rect fill="#FFFFFF" height="662.1875" style="stroke:#181818;stroke-width:1.0;" width="10" x="507" y="321.3594"/><rect fill="#FFFFFF" height="222.0625" style="stroke:#181818;stroke-width:1.0;" width="10" x="512" y="510.2891"/><rect fill="#FFFFFF" height="222.0625" style="stroke:#181818;stroke-width:1.0;" width="10" x="512" y="761.4844"/><rect fill="#FFFFFF" height="730.5859" style="stroke:#181818;stroke-width:1.0;" width="10" x="1025.5" y="384.625"/><rect fill="#FFFFFF" height="493.3906" style="stroke:#181818;stroke-width:1.0;" width="10" x="1030.5" y="621.8203"/><rect fill="#FFFFFF" height="242.1953" style="stroke:#181818;stroke-width:1.0;" width="10" x="1035.5" y="873.0156"/><rect fill="#FFFFFF" height="642.0547" style="stroke:#181818;stroke-width:1.0;" width="10" x="1227.5" y="473.1563"/><rect fill="#FFFFFF" height="449.125" style="stroke:#181818;stroke-width:1.0;" width="10" x="1232.5" y="666.0859"/><rect fill="#FFFFFF" height="153.6641" style="stroke:#181818;stroke-width:1.0;" width="10" x="1237.5" y="961.5469"/><polygon fill="#181818" points="144,128.5625,154,132.5625,144,136.5625,148,132.5625" style="stroke:#181818;stroke-width:1.0;"/><line style="stroke:#181818;stroke-width:1.0;" x1="26" x2="150" y1="132.5625" y2="132.5625"/><text fill="#000000" font-family="sans-serif" font-size="13" lengthAdjust="spacing" textLength="111" x="33" y="127.4966">GenerativeDiveIn</text><polygon fill="#181818" points="500,157.6953,510,161.6953,500,165.6953,504,161.6953" style="stroke:#181818;stroke-width:1.0;"/><line style="stroke:#181818;stroke-width:1.0;stroke-dasharray:2.0,2.0;" x1="166" x2="506" y1="161.6953" y2="161.6953"/><text fill="#000000" font-family="sans-serif" font-size="13" lengthAdjust="spacing" textLength="322" x="173" y="156.6294">RequestSourceDataGenerationServerRpc(clientID)</text><path d="M68,174.6953 L68,199.6953 L254,199.6953 L254,184.6953 L244,174.6953 L68,174.6953 " fill="#FEFFDD" style="stroke:#181818;stroke-width:0.5;"/><path d="M244,174.6953 L244,184.6953 L254,184.6953 L244,174.6953 " fill="#FEFFDD" style="stroke:#181818;stroke-width:0.5;"/><text fill="#000000" font-family="sans-serif" font-size="13" lengthAdjust="spacing" textLength="165" x="74" y="191.7622">Wait Until isReadyForDive</text><polygon fill="#181818" points="833,221.9609,843,225.9609,833,229.9609,837,225.9609" style="stroke:#181818;stroke-width:1.0;"/><line style="stroke:#181818;stroke-width:1.0;" x1="512" x2="839" y1="225.9609" y2="225.9609"/><text fill="#000000" font-family="sans-serif" font-size="13" lengthAdjust="spacing" textLength="209" x="519" y="220.895">AddNewDiveScene(rootSceneID)</text><rect fill="#EEEEEE" height="3" style="stroke:#EEEEEE;stroke-width:1.0;" width="1440.5" x="0" y="254.5273"/><line style="stroke:#000000;stroke-width:1.0;" x1="0" x2="1440.5" y1="254.5273" y2="254.5273"/><line style="stroke:#000000;stroke-width:1.0;" x1="0" x2="1440.5" y1="257.5273" y2="257.5273"/><rect fill="#EEEEEE" height="23.1328" style="stroke:#000000;stroke-width:2.0;" width="123" x="658.75" y="243.9609"/><text fill="#000000" font-family="sans-serif" font-size="13" font-weight="bold" lengthAdjust="spacing" textLength="104" x="664.75" y="260.0278">CyJsonModule</text><line style="stroke:#181818;stroke-width:1.0;" x1="512" x2="559" y1="308.3594" y2="308.3594"/><line style="stroke:#181818;stroke-width:1.0;" x1="559" x2="559" y1="308.3594" y2="321.3594"/><line style="stroke:#181818;stroke-width:1.0;" x1="518" x2="559" y1="321.3594" y2="321.3594"/><polygon fill="#181818" points="528,317.3594,518,321.3594,528,325.3594,524,321.3594" style="stroke:#181818;stroke-width:1.0;"/><text fill="#000000" font-family="sans-serif" font-size="13" lengthAdjust="spacing" textLength="234" x="524" y="288.1606">RequestGraphGenerationServerRpc(</text><text fill="#000000" font-family="sans-serif" font-size="13" lengthAdjust="spacing" textLength="151" x="524" y="303.2935">clientID, targetSceneID)</text><polygon fill="#181818" points="833,351.4922,843,355.4922,833,359.4922,837,355.4922" style="stroke:#181818;stroke-width:1.0;"/><line style="stroke:#181818;stroke-width:1.0;" x1="517" x2="839" y1="355.4922" y2="355.4922"/><text fill="#000000" font-family="sans-serif" font-size="13" lengthAdjust="spacing" textLength="285" x="524" y="350.4263">SpawnModuleInScene(_rootSceneId, rootGO)</text><polygon fill="#181818" points="1013.5,380.625,1023.5,384.625,1013.5,388.625,1017.5,384.625" style="stroke:#181818;stroke-width:1.0;"/><line style="stroke:#181818;stroke-width:1.0;" x1="845" x2="1019.5" y1="384.625" y2="384.625"/><text fill="#000000" font-family="sans-serif" font-size="13" lengthAdjust="spacing" textLength="77" x="852" y="379.5591">Spawn Root</text><polygon fill="#181818" points="331.5,424.8906,321.5,428.8906,331.5,432.8906,327.5,428.8906" style="stroke:#181818;stroke-width:1.0;"/><line style="stroke:#181818;stroke-width:1.0;stroke-dasharray:2.0,2.0;" x1="325.5" x2="1024.5" y1="428.8906" y2="428.8906"/><text fill="#000000" font-family="sans-serif" font-size="13" lengthAdjust="spacing" textLength="93" x="337.5" y="408.6919">Replicate Root</text><text fill="#000000" font-family="sans-serif" font-size="13" lengthAdjust="spacing" textLength="106" x="337.5" y="423.8247">(order unknown)</text><polygon fill="#181818" points="1215.5,469.1563,1225.5,473.1563,1215.5,477.1563,1219.5,473.1563" style="stroke:#181818;stroke-width:1.0;"/><line style="stroke:#181818;stroke-width:1.0;stroke-dasharray:2.0,2.0;" x1="1035.5" x2="1221.5" y1="473.1563" y2="473.1563"/><text fill="#000000" font-family="sans-serif" font-size="13" lengthAdjust="spacing" textLength="93" x="1042.5" y="452.9575">Replicate Root</text><text fill="#000000" font-family="sans-serif" font-size="13" lengthAdjust="spacing" textLength="106" x="1042.5" y="468.0903">(order unknown)</text><line style="stroke:#181818;stroke-width:1.0;" x1="517" x2="564" y1="497.2891" y2="497.2891"/><line style="stroke:#181818;stroke-width:1.0;" x1="564" x2="564" y1="497.2891" y2="510.2891"/><line style="stroke:#181818;stroke-width:1.0;" x1="523" x2="564" y1="510.2891" y2="510.2891"/><polygon fill="#181818" points="533,506.2891,523,510.2891,533,514.2891,529,510.2891" style="stroke:#181818;stroke-width:1.0;"/><text fill="#000000" font-family="sans-serif" font-size="13" lengthAdjust="spacing" textLength="220" x="529" y="492.2231">NodesBatchSpawn(targetSceneID)</text><path d="M199.5,530.2891 L277.5,530.2891 L277.5,537.4219 L267.5,547.4219 L199.5,547.4219 L199.5,530.2891 " fill="#EEEEEE" style="stroke:#000000;stroke-width:1.5;"/><rect fill="none" height="195.0625" style="stroke:#000000;stroke-width:1.5;" width="1149" x="199.5" y="530.2891"/><text fill="#000000" font-family="sans-serif" font-size="13" font-weight="bold" lengthAdjust="spacing" textLength="33" x="214.5" y="543.356">loop</text><text fill="#000000" font-family="sans-serif" font-size="11" font-weight="bold" lengthAdjust="spacing" textLength="99" x="292.5" y="542.4995">[nbNodeBatch]</text><path d="M209.5,554.4219 L287.5,554.4219 L287.5,561.5547 L277.5,571.5547 L209.5,571.5547 L209.5,554.4219 " fill="#EEEEEE" style="stroke:#000000;stroke-width:1.5;"/><rect fill="none" height="163.9297" style="stroke:#000000;stroke-width:1.5;" width="1129" x="209.5" y="554.4219"/><text fill="#000000" font-family="sans-serif" font-size="13" font-weight="bold" lengthAdjust="spacing" textLength="33" x="224.5" y="567.4888">loop</text><text fill="#000000" font-family="sans-serif" font-size="11" font-weight="bold" lengthAdjust="spacing" textLength="109" x="302.5" y="566.6323">[nodeBatchSize]</text><polygon fill="#181818" points="833,588.6875,843,592.6875,833,596.6875,837,592.6875" style="stroke:#181818;stroke-width:1.0;"/><line style="stroke:#181818;stroke-width:1.0;" x1="522" x2="839" y1="592.6875" y2="592.6875"/><text fill="#000000" font-family="sans-serif" font-size="13" lengthAdjust="spacing" textLength="299" x="529" y="587.6216">SpawnModuleInScene(targetSceneID, nodeGO)</text><polygon fill="#181818" points="1018.5,617.8203,1028.5,621.8203,1018.5,625.8203,1022.5,621.8203" style="stroke:#181818;stroke-width:1.0;"/><line style="stroke:#181818;stroke-width:1.0;" x1="845" x2="1024.5" y1="621.8203" y2="621.8203"/><text fill="#000000" font-family="sans-serif" font-size="13" lengthAdjust="spacing" textLength="80" x="852" y="616.7544">Spawn Node</text><polygon fill="#181818" points="1220.5,662.0859,1230.5,666.0859,1220.5,670.0859,1224.5,666.0859" style="stroke:#181818;stroke-width:1.0;"/><line style="stroke:#181818;stroke-width:1.0;stroke-dasharray:2.0,2.0;" x1="1040.5" x2="1226.5" y1="666.0859" y2="666.0859"/><text fill="#000000" font-family="sans-serif" font-size="13" lengthAdjust="spacing" textLength="96" x="1047.5" y="645.8872">Replicate Node</text><text fill="#000000" font-family="sans-serif" font-size="13" lengthAdjust="spacing" textLength="106" x="1047.5" y="661.02">(order unknown)</text><polygon fill="#181818" points="336.5,706.3516,326.5,710.3516,336.5,714.3516,332.5,710.3516" style="stroke:#181818;stroke-width:1.0;"/><line style="stroke:#181818;stroke-width:1.0;stroke-dasharray:2.0,2.0;" x1="330.5" x2="1029.5" y1="710.3516" y2="710.3516"/><text fill="#000000" font-family="sans-serif" font-size="13" lengthAdjust="spacing" textLength="96" x="342.5" y="690.1528">Replicate Node</text><text fill="#000000" font-family="sans-serif" font-size="13" lengthAdjust="spacing" textLength="106" x="342.5" y="705.2856">(order unknown)</text><line style="stroke:#181818;stroke-width:1.0;" x1="517" x2="564" y1="748.4844" y2="748.4844"/><line style="stroke:#181818;stroke-width:1.0;" x1="564" x2="564" y1="748.4844" y2="761.4844"/><line style="stroke:#181818;stroke-width:1.0;" x1="523" x2="564" y1="761.4844" y2="761.4844"/><polygon fill="#181818" points="533,757.4844,523,761.4844,533,765.4844,529,761.4844" style="stroke:#181818;stroke-width:1.0;"/><text fill="#000000" font-family="sans-serif" font-size="13" lengthAdjust="spacing" textLength="219" x="529" y="743.4185">EdgesBatchSpawn(targetSceneID)</text><path d="M199.5,781.4844 L277.5,781.4844 L277.5,788.6172 L267.5,798.6172 L199.5,798.6172 L199.5,781.4844 " fill="#EEEEEE" style="stroke:#000000;stroke-width:1.5;"/><rect fill="none" height="195.0625" style="stroke:#000000;stroke-width:1.5;" width="1149" x="199.5" y="781.4844"/><text fill="#000000" font-family="sans-serif" font-size="13" font-weight="bold" lengthAdjust="spacing" textLength="33" x="214.5" y="794.5513">loop</text><text fill="#000000" font-family="sans-serif" font-size="11" font-weight="bold" lengthAdjust="spacing" textLength="96" x="292.5" y="793.6948">[nbEdgeBatch]</text><path d="M209.5,805.6172 L287.5,805.6172 L287.5,812.75 L277.5,822.75 L209.5,822.75 L209.5,805.6172 " fill="#EEEEEE" style="stroke:#000000;stroke-width:1.5;"/><rect fill="none" height="163.9297" style="stroke:#000000;stroke-width:1.5;" width="1129" x="209.5" y="805.6172"/><text fill="#000000" font-family="sans-serif" font-size="13" font-weight="bold" lengthAdjust="spacing" textLength="33" x="224.5" y="818.6841">loop</text><text fill="#000000" font-family="sans-serif" font-size="11" font-weight="bold" lengthAdjust="spacing" textLength="108" x="302.5" y="817.8276">[edgeBatchSize]</text><polygon fill="#181818" points="833,839.8828,843,843.8828,833,847.8828,837,843.8828" style="stroke:#181818;stroke-width:1.0;"/><line style="stroke:#181818;stroke-width:1.0;" x1="522" x2="839" y1="843.8828" y2="843.8828"/><text fill="#000000" font-family="sans-serif" font-size="13" lengthAdjust="spacing" textLength="299" x="529" y="838.8169">SpawnModuleInScene(targetSceneID, EdgeGO)</text><polygon fill="#181818" points="1023.5,869.0156,1033.5,873.0156,1023.5,877.0156,1027.5,873.0156" style="stroke:#181818;stroke-width:1.0;"/><line style="stroke:#181818;stroke-width:1.0;" x1="845" x2="1029.5" y1="873.0156" y2="873.0156"/><text fill="#000000" font-family="sans-serif" font-size="13" lengthAdjust="spacing" textLength="79" x="852" y="867.9497">Spawn Edge</text><polygon fill="#181818" points="341.5,913.2813,331.5,917.2813,341.5,921.2813,337.5,917.2813" style="stroke:#181818;stroke-width:1.0;"/><line style="stroke:#181818;stroke-width:1.0;stroke-dasharray:2.0,2.0;" x1="335.5" x2="1034.5" y1="917.2813" y2="917.2813"/><text fill="#000000" font-family="sans-serif" font-size="13" lengthAdjust="spacing" textLength="95" x="347.5" y="897.0825">Replicate Edge</text><text fill="#000000" font-family="sans-serif" font-size="13" lengthAdjust="spacing" textLength="106" x="347.5" y="912.2153">(order unknown)</text><polygon fill="#181818" points="1225.5,957.5469,1235.5,961.5469,1225.5,965.5469,1229.5,961.5469" style="stroke:#181818;stroke-width:1.0;"/><line style="stroke:#181818;stroke-width:1.0;stroke-dasharray:2.0,2.0;" x1="1045.5" x2="1231.5" y1="961.5469" y2="961.5469"/><text fill="#000000" font-family="sans-serif" font-size="13" lengthAdjust="spacing" textLength="95" x="1052.5" y="941.3481">Replicate Edge</text><text fill="#000000" font-family="sans-serif" font-size="13" lengthAdjust="spacing" textLength="106" x="1052.5" y="956.481">(order unknown)</text><polygon fill="#181818" points="1375,1015.8125,1385,1019.8125,1375,1023.8125,1379,1019.8125" style="stroke:#181818;stroke-width:1.0;"/><line style="stroke:#181818;stroke-width:1.0;stroke-dasharray:2.0,2.0;" x1="512" x2="1381" y1="1019.8125" y2="1019.8125"/><text fill="#000000" font-family="sans-serif" font-size="13" lengthAdjust="spacing" textLength="100" x="519" y="999.6138">IsReadyForDive</text><text fill="#000000" font-family="sans-serif" font-size="13" lengthAdjust="spacing" textLength="106" x="519" y="1014.7466">(order unknown)</text><polygon fill="#181818" points="177,1060.0781,167,1064.0781,177,1068.0781,173,1064.0781" style="stroke:#181818;stroke-width:1.0;"/><line style="stroke:#181818;stroke-width:1.0;stroke-dasharray:2.0,2.0;" x1="171" x2="511" y1="1064.0781" y2="1064.0781"/><text fill="#000000" font-family="sans-serif" font-size="13" lengthAdjust="spacing" textLength="100" x="183" y="1043.8794">IsReadyForDive</text><text fill="#000000" font-family="sans-serif" font-size="13" lengthAdjust="spacing" textLength="106" x="183" y="1059.0122">(order unknown)</text><line style="stroke:#181818;stroke-width:1.0;" x1="166" x2="208" y1="1093.2109" y2="1093.2109"/><line style="stroke:#181818;stroke-width:1.0;" x1="208" x2="208" y1="1093.2109" y2="1106.2109"/><line style="stroke:#181818;stroke-width:1.0;" x1="167" x2="208" y1="1106.2109" y2="1106.2109"/><polygon fill="#181818" points="177,1102.2109,167,1106.2109,177,1110.2109,173,1106.2109" style="stroke:#181818;stroke-width:1.0;"/><text fill="#000000" font-family="sans-serif" font-size="13" lengthAdjust="spacing" textLength="78" x="173" y="1088.145">DirectDiveIn</text><!--SRC=[fLJ1Zjem4BtxAqPx2WB47ObABUbIAa6bM5KlArKc7h7EHdRgc6MtNzyP1q83B9kgEIJ1y-QzDy_16_S2UMdG1fXCp6GYL1wS1ssUqOEgwKLKoWUJcqeHHgkWLaxlIkHYkkfMxzQuXvHQGUPe4URE1cA-O-mwbNCZqEgDUn62RY3HiqZonTLXS5D5TbN-KbWfgxReeq8gpu7ls94TEsqA1QNmBpJ5JU-5Q5MqWV473cqudCA2gBmAHClKIoi45M0S0N8A6VxQOHsas_aSK-8yufrjSikgF6aiBzE14DO51CTvygRyK2R0TnjC2QREKEdNU-TPXxq0OrbEHZkIvJvgJLCo8iwOUET2V2Do468sW_dhrzhPmsIpsQcV7iCXj8uNNbMFrym-sAFT4GJbjzWATBmGawpK_g2qj8sVdoT3UWJyO_5j82AU-k9c0gSQMo6ZkcWMnuUoYUKCgzBaYg9Yo8DDdDSKsSu-MRUtWxEUebVFHH1hfx7-f4B-6DqavyEMpbLWDmoBA05qDOl79Mb-OrpcgxDHLxBfy8yY2OVJjhyH4kkteDk3C_HoyEkzfdSlVOhyEGgDTEQOPmRpN_qYpyzwsoTFXftbYSUb_ycJUVlaoRYUcJ2qRvv5xzutyhmQRyotcCAoSpfSyfx0vdrmSu8TmAdnc8VcRFi3]--></g></svg>