<?xml version="1.0" encoding="us-ascii" standalone="no"?><svg xmlns="http://www.w3.org/2000/svg" xmlns:xlink="http://www.w3.org/1999/xlink" contentStyleType="text/css" height="1114px" preserveAspectRatio="none" style="width:1379px;height:1114px;background:#FFFFFF;" version="1.1" viewBox="0 0 1379 1114" width="1379px" zoomAndPan="magnify"><defs/><g><rect fill="#DDDDDD" height="1102.7266" style="stroke:#181818;stroke-width:0.5;" width="504" x="16" y="6"/><text fill="#000000" font-family="sans-serif" font-size="13" font-weight="bold" lengthAdjust="spacing" textLength="81" x="227.5" y="18.0669">New Client</text><rect fill="#DDDDDD" height="1102.7266" style="stroke:#181818;stroke-width:0.5;" width="514.5" x="522" y="6"/><text fill="#000000" font-family="sans-serif" font-size="13" font-weight="bold" lengthAdjust="spacing" textLength="103" x="727.75" y="18.0669">Server (Host)</text><rect fill="#DDDDDD" height="1102.7266" style="stroke:#181818;stroke-width:0.5;" width="253" x="1038.5" y="6"/><text fill="#000000" font-family="sans-serif" font-size="13" font-weight="bold" lengthAdjust="spacing" textLength="191" x="1065" y="18.0669">Already Connected Client</text><text fill="#000000" font-family="sans-serif" font-size="13" font-style="italic" font-weight="bold" lengthAdjust="spacing" textLength="4" x="1261" y="18.0669">i</text><rect fill="none" height="291.2031" style="stroke:#000000;stroke-width:1.5;" width="864" x="10" y="73.4297"/><rect fill="none" height="178.5391" style="stroke:#000000;stroke-width:1.5;" width="1078.5" x="229" y="378.6328"/><rect fill="none" height="61.3984" style="stroke:#000000;stroke-width:1.5;" width="635" x="239" y="402.7656"/><rect fill="none" height="72.0078" style="stroke:#000000;stroke-width:1.5;" width="620.5" x="677" y="478.1641"/><rect fill="none" height="259.1953" style="stroke:#000000;stroke-width:1.5;" width="823.5" x="239" y="671.7031"/><rect fill="none" height="156.7969" style="stroke:#000000;stroke-width:1.5;" width="636.5" x="416" y="737.9688"/><rect fill="none" height="46.2656" style="stroke:#000000;stroke-width:1.5;" width="616.5" x="426" y="791.2344"/><rect fill="none" height="77.3984" style="stroke:#000000;stroke-width:1.5;" width="629" x="68" y="980.0313"/><rect fill="none" height="46.2656" style="stroke:#000000;stroke-width:1.5;" width="609" x="78" y="1004.1641"/><line style="stroke:#181818;stroke-width:0.5;stroke-dasharray:5.0,5.0;" x1="49" x2="49" y1="56.4297" y2="1074.4297"/><line style="stroke:#181818;stroke-width:0.5;stroke-dasharray:5.0,5.0;" x1="163" x2="163" y1="56.4297" y2="1074.4297"/><line style="stroke:#181818;stroke-width:0.5;stroke-dasharray:5.0,5.0;" x1="337" x2="337" y1="56.4297" y2="1074.4297"/><line style="stroke:#181818;stroke-width:0.5;stroke-dasharray:5.0,5.0;" x1="476" x2="476" y1="56.4297" y2="1074.4297"/><line style="stroke:#181818;stroke-width:0.5;stroke-dasharray:5.0,5.0;" x1="601" x2="601" y1="56.4297" y2="1074.4297"/><line style="stroke:#181818;stroke-width:0.5;stroke-dasharray:5.0,5.0;" x1="775" x2="775" y1="56.4297" y2="1074.4297"/><line style="stroke:#181818;stroke-width:0.5;stroke-dasharray:5.0,5.0;" x1="992.5" x2="992.5" y1="56.4297" y2="1074.4297"/><line style="stroke:#181818;stroke-width:0.5;stroke-dasharray:5.0,5.0;" x1="1071.5" x2="1071.5" y1="56.4297" y2="1074.4297"/><line style="stroke:#181818;stroke-width:0.5;stroke-dasharray:5.0,5.0;" x1="1198.5" x2="1198.5" y1="56.4297" y2="1074.4297"/><rect fill="#E2E2F0" height="30.2969" rx="2.5" ry="2.5" style="stroke:#181818;stroke-width:0.5;" width="58" x="20" y="25.1328"/><text fill="#000000" font-family="sans-serif" font-size="14" lengthAdjust="spacing" textLength="44" x="27" y="45.1279">Player</text><rect fill="#E2E2F0" height="30.2969" rx="2.5" ry="2.5" style="stroke:#181818;stroke-width:0.5;" width="58" x="20" y="1073.4297"/><text fill="#000000" font-family="sans-serif" font-size="14" lengthAdjust="spacing" textLength="44" x="27" y="1093.4248">Player</text><rect fill="#E2E2F0" height="30.2969" rx="2.5" ry="2.5" style="stroke:#181818;stroke-width:0.5;" width="151" x="88" y="25.1328"/><text fill="#000000" font-family="sans-serif" font-size="14" lengthAdjust="spacing" textLength="137" x="95" y="45.1279">DiveSceneManager</text><rect fill="#E2E2F0" height="30.2969" rx="2.5" ry="2.5" style="stroke:#181818;stroke-width:0.5;" width="151" x="88" y="1073.4297"/><text fill="#000000" font-family="sans-serif" font-size="14" lengthAdjust="spacing" textLength="137" x="95" y="1093.4248">DiveSceneManager</text><rect fill="#E2E2F0" height="30.2969" rx="2.5" ry="2.5" style="stroke:#181818;stroke-width:0.5;" width="177" x="249" y="25.1328"/><text fill="#000000" font-family="sans-serif" font-size="14" lengthAdjust="spacing" textLength="163" x="256" y="45.1279">GameNetDataManager</text><rect fill="#E2E2F0" height="30.2969" rx="2.5" ry="2.5" style="stroke:#181818;stroke-width:0.5;" width="177" x="249" y="1073.4297"/><text fill="#000000" font-family="sans-serif" font-size="14" lengthAdjust="spacing" textLength="163" x="256" y="1093.4248">GameNetDataManager</text><rect fill="#E2E2F0" height="30.2969" rx="2.5" ry="2.5" style="stroke:#181818;stroke-width:0.5;" width="80" x="436" y="25.1328"/><text fill="#000000" font-family="sans-serif" font-size="14" lengthAdjust="spacing" textLength="66" x="443" y="45.1279">MlprData</text><rect fill="#E2E2F0" height="30.2969" rx="2.5" ry="2.5" style="stroke:#181818;stroke-width:0.5;" width="80" x="436" y="1073.4297"/><text fill="#000000" font-family="sans-serif" font-size="14" lengthAdjust="spacing" textLength="66" x="443" y="1093.4248">MlprData</text><rect fill="#E2E2F0" height="30.2969" rx="2.5" ry="2.5" style="stroke:#181818;stroke-width:0.5;" width="151" x="526" y="25.1328"/><text fill="#000000" font-family="sans-serif" font-size="14" lengthAdjust="spacing" textLength="137" x="533" y="45.1279">DiveSceneManager</text><rect fill="#E2E2F0" height="30.2969" rx="2.5" ry="2.5" style="stroke:#181818;stroke-width:0.5;" width="151" x="526" y="1073.4297"/><text fill="#000000" font-family="sans-serif" font-size="14" lengthAdjust="spacing" textLength="137" x="533" y="1093.4248">DiveSceneManager</text><rect fill="#E2E2F0" height="30.2969" rx="2.5" ry="2.5" style="stroke:#181818;stroke-width:0.5;" width="177" x="687" y="25.1328"/><text fill="#000000" font-family="sans-serif" font-size="14" lengthAdjust="spacing" textLength="163" x="694" y="45.1279">GameNetDataManager</text><rect fill="#E2E2F0" height="30.2969" rx="2.5" ry="2.5" style="stroke:#181818;stroke-width:0.5;" width="177" x="687" y="1073.4297"/><text fill="#000000" font-family="sans-serif" font-size="14" lengthAdjust="spacing" textLength="163" x="694" y="1093.4248">GameNetDataManager</text><rect fill="#E2E2F0" height="30.2969" rx="2.5" ry="2.5" style="stroke:#181818;stroke-width:0.5;" width="80" x="952.5" y="25.1328"/><text fill="#000000" font-family="sans-serif" font-size="14" lengthAdjust="spacing" textLength="66" x="959.5" y="45.1279">MlprData</text><rect fill="#E2E2F0" height="30.2969" rx="2.5" ry="2.5" style="stroke:#181818;stroke-width:0.5;" width="80" x="952.5" y="1073.4297"/><text fill="#000000" font-family="sans-serif" font-size="14" lengthAdjust="spacing" textLength="66" x="959.5" y="1093.4248">MlprData</text><rect fill="#E2E2F0" height="30.2969" rx="2.5" ry="2.5" style="stroke:#181818;stroke-width:0.5;" width="58" x="1042.5" y="25.1328"/><text fill="#000000" font-family="sans-serif" font-size="14" lengthAdjust="spacing" textLength="44" x="1049.5" y="45.1279">Player</text><rect fill="#E2E2F0" height="30.2969" rx="2.5" ry="2.5" style="stroke:#181818;stroke-width:0.5;" width="58" x="1042.5" y="1073.4297"/><text fill="#000000" font-family="sans-serif" font-size="14" lengthAdjust="spacing" textLength="44" x="1049.5" y="1093.4248">Player</text><rect fill="#E2E2F0" height="30.2969" rx="2.5" ry="2.5" style="stroke:#181818;stroke-width:0.5;" width="177" x="1110.5" y="25.1328"/><text fill="#000000" font-family="sans-serif" font-size="14" lengthAdjust="spacing" textLength="163" x="1117.5" y="45.1279">GameNetDataManager</text><rect fill="#E2E2F0" height="30.2969" rx="2.5" ry="2.5" style="stroke:#181818;stroke-width:0.5;" width="177" x="1110.5" y="1073.4297"/><text fill="#000000" font-family="sans-serif" font-size="14" lengthAdjust="spacing" textLength="163" x="1117.5" y="1093.4248">GameNetDataManager</text><path d="M10,73.4297 L194,73.4297 L194,80.5625 L184,90.5625 L10,90.5625 L10,73.4297 " fill="#EEEEEE" style="stroke:#000000;stroke-width:1.5;"/><rect fill="none" height="291.2031" style="stroke:#000000;stroke-width:1.5;" width="864" x="10" y="73.4297"/><text fill="#000000" font-family="sans-serif" font-size="13" font-weight="bold" lengthAdjust="spacing" textLength="134" x="25" y="86.4966">OnNetworkSpawn</text><text fill="#000000" font-family="sans-serif" font-size="11" font-weight="bold" lengthAdjust="spacing" textLength="249" x="209" y="85.6401">[Execution order is unknown between</text><text fill="#000000" font-family="sans-serif" font-size="11" font-weight="bold" lengthAdjust="spacing" textLength="230" x="209" y="98.4448">Player and GameNetDataManager]</text><polygon fill="#181818" points="325.5,148.5703,335.5,152.5703,325.5,156.5703,329.5,152.5703" style="stroke:#181818;stroke-width:1.0;"/><line style="stroke:#181818;stroke-width:1.0;" x1="49" x2="331.5" y1="152.5703" y2="152.5703"/><text fill="#000000" font-family="sans-serif" font-size="13" font-weight="bold" lengthAdjust="spacing" textLength="249" x="56" y="117.2388">UpdatePlayerNamesInContainers</text><text fill="#000000" font-family="sans-serif" font-size="13" lengthAdjust="spacing" textLength="85" x="56" y="132.3716">subscribes to</text><text fill="#000000" font-family="sans-serif" font-size="13" font-weight="bold" lengthAdjust="spacing" textLength="260" x="56" y="147.5044">OnClientReceivedAllPlayerNetData</text><polygon fill="#181818" points="325.5,207.9688,335.5,211.9688,325.5,215.9688,329.5,211.9688" style="stroke:#181818;stroke-width:1.0;"/><line style="stroke:#181818;stroke-width:1.0;" x1="49" x2="331.5" y1="211.9688" y2="211.9688"/><text fill="#000000" font-family="sans-serif" font-size="13" font-weight="bold" lengthAdjust="spacing" textLength="138" x="56" y="176.6372">SpawnInDiveScene</text><text fill="#000000" font-family="sans-serif" font-size="13" lengthAdjust="spacing" textLength="85" x="56" y="191.77">subscribes to</text><text fill="#000000" font-family="sans-serif" font-size="13" font-weight="bold" lengthAdjust="spacing" textLength="210" x="56" y="206.9028">OnClientReceivedAllModules</text><line style="stroke:#181818;stroke-width:1.0;" x1="337.5" x2="379.5" y1="241.1016" y2="241.1016"/><line style="stroke:#181818;stroke-width:1.0;" x1="379.5" x2="379.5" y1="241.1016" y2="254.1016"/><line style="stroke:#181818;stroke-width:1.0;" x1="338.5" x2="379.5" y1="254.1016" y2="254.1016"/><polygon fill="#181818" points="348.5,250.1016,338.5,254.1016,348.5,258.1016,344.5,254.1016" style="stroke:#181818;stroke-width:1.0;"/><text fill="#000000" font-family="sans-serif" font-size="13" lengthAdjust="spacing" textLength="33" x="344.5" y="236.0356">Clear</text><polygon fill="#181818" points="763.5,294.3672,773.5,298.3672,763.5,302.3672,767.5,298.3672" style="stroke:#181818;stroke-width:1.0;"/><line style="stroke:#181818;stroke-width:1.0;stroke-dasharray:2.0,2.0;" x1="337.5" x2="769.5" y1="298.3672" y2="298.3672"/><text fill="#000000" font-family="sans-serif" font-size="13" lengthAdjust="spacing" textLength="281" x="344.5" y="278.1685">SharePlayerNetDataServerRpc(newClientID,</text><text fill="#000000" font-family="sans-serif" font-size="13" lengthAdjust="spacing" textLength="217" x="344.5" y="293.3013">newPlayerName, newPlayerGUID)</text><polygon fill="#181818" points="763.5,323.5,773.5,327.5,763.5,331.5,767.5,327.5" style="stroke:#181818;stroke-width:1.0;"/><line style="stroke:#181818;stroke-width:1.0;stroke-dasharray:2.0,2.0;" x1="337.5" x2="769.5" y1="327.5" y2="327.5"/><text fill="#000000" font-family="sans-serif" font-size="13" lengthAdjust="spacing" textLength="265" x="344.5" y="322.4341">ShareModuleDataServerRpc(newClientID)</text><polygon fill="#181818" points="589.5,352.6328,599.5,356.6328,589.5,360.6328,593.5,356.6328" style="stroke:#181818;stroke-width:1.0;"/><line style="stroke:#181818;stroke-width:1.0;stroke-dasharray:2.0,2.0;" x1="163.5" x2="595.5" y1="356.6328" y2="356.6328"/><text fill="#000000" font-family="sans-serif" font-size="13" lengthAdjust="spacing" textLength="259" x="170.5" y="351.5669">ShareSceneBankServerRpc(newClientID)</text><path d="M229,378.6328 L505,378.6328 L505,385.7656 L495,395.7656 L229,395.7656 L229,378.6328 " fill="#EEEEEE" style="stroke:#000000;stroke-width:1.5;"/><rect fill="none" height="178.5391" style="stroke:#000000;stroke-width:1.5;" width="1078.5" x="229" y="378.6328"/><text fill="#000000" font-family="sans-serif" font-size="13" font-weight="bold" lengthAdjust="spacing" textLength="231" x="244" y="391.6997">SharePlayerNetDataServerRpc</text><path d="M239,402.7656 L317,402.7656 L317,409.8984 L307,419.8984 L239,419.8984 L239,402.7656 " fill="#EEEEEE" style="stroke:#000000;stroke-width:1.5;"/><rect fill="none" height="61.3984" style="stroke:#000000;stroke-width:1.5;" width="635" x="239" y="402.7656"/><text fill="#000000" font-family="sans-serif" font-size="13" font-weight="bold" lengthAdjust="spacing" textLength="33" x="254" y="415.8325">loop</text><text fill="#000000" font-family="sans-serif" font-size="11" font-weight="bold" lengthAdjust="spacing" textLength="150" x="332" y="414.9761">[for all known players]</text><polygon fill="#181818" points="348.5,452.1641,338.5,456.1641,348.5,460.1641,344.5,456.1641" style="stroke:#181818;stroke-width:1.0;"/><line style="stroke:#181818;stroke-width:1.0;stroke-dasharray:2.0,2.0;" x1="342.5" x2="774.5" y1="456.1641" y2="456.1641"/><text fill="#000000" font-family="sans-serif" font-size="13" lengthAdjust="spacing" textLength="195" x="354.5" y="435.9653">SharePlayerNetDataClientRpc(</text><text fill="#000000" font-family="sans-serif" font-size="13" lengthAdjust="spacing" textLength="240" x="354.5" y="451.0981">knownPlayerGUID, knownPlayerData)</text><path d="M677,478.1641 L743,478.1641 L743,485.2969 L733,495.2969 L677,495.2969 L677,478.1641 " fill="#EEEEEE" style="stroke:#000000;stroke-width:1.5;"/><rect fill="none" height="72.0078" style="stroke:#000000;stroke-width:1.5;" width="620.5" x="677" y="478.1641"/><text fill="#000000" font-family="sans-serif" font-size="13" font-weight="bold" lengthAdjust="spacing" textLength="21" x="692" y="491.231">alt</text><text fill="#000000" font-family="sans-serif" font-size="11" font-weight="bold" lengthAdjust="spacing" textLength="233" x="758" y="490.3745">[if new player is not already known</text><text fill="#000000" font-family="sans-serif" font-size="11" font-weight="bold" lengthAdjust="spacing" textLength="168" x="758" y="503.1792">(i.e. not a reconnection)]</text><polygon fill="#181818" points="1187,538.1719,1197,542.1719,1187,546.1719,1191,542.1719" style="stroke:#181818;stroke-width:1.0;"/><line style="stroke:#181818;stroke-width:1.0;stroke-dasharray:2.0,2.0;" x1="775.5" x2="1193" y1="542.1719" y2="542.1719"/><text fill="#000000" font-family="sans-serif" font-size="13" lengthAdjust="spacing" textLength="195" x="782.5" y="521.9731">SharePlayerNetDataClientRpc(</text><text fill="#000000" font-family="sans-serif" font-size="13" lengthAdjust="spacing" textLength="210" x="782.5" y="537.106">newPlayerGUID, newPlayerData)</text><path d="M164,569.1719 L164,609.1719 L510,609.1719 L510,579.1719 L500,569.1719 L164,569.1719 " fill="#FEFFDD" style="stroke:#181818;stroke-width:0.5;"/><path d="M500,569.1719 L500,579.1719 L510,579.1719 L500,569.1719 " fill="#FEFFDD" style="stroke:#181818;stroke-width:0.5;"/><text fill="#000000" font-family="sans-serif" font-size="13" lengthAdjust="spacing" textLength="273" x="170" y="586.2388">if (nbPlayerDataReceived == nbTotPlayer)</text><text fill="#000000" font-family="sans-serif" font-size="13" lengthAdjust="spacing" textLength="45" x="186" y="601.3716">Trigger</text><text fill="#000000" font-family="sans-serif" font-size="13" font-weight="bold" lengthAdjust="spacing" textLength="260" x="235" y="601.3716">OnClientReceivedAllPlayerNetData</text><path d="M1026,619.4375 L1026,659.4375 L1372,659.4375 L1372,629.4375 L1362,619.4375 L1026,619.4375 " fill="#FEFFDD" style="stroke:#181818;stroke-width:0.5;"/><path d="M1362,619.4375 L1362,629.4375 L1372,629.4375 L1362,619.4375 " fill="#FEFFDD" style="stroke:#181818;stroke-width:0.5;"/><text fill="#000000" font-family="sans-serif" font-size="13" lengthAdjust="spacing" textLength="273" x="1032" y="636.5044">if (nbPlayerDataReceived == nbTotPlayer)</text><text fill="#000000" font-family="sans-serif" font-size="13" lengthAdjust="spacing" textLength="45" x="1048" y="651.6372">Trigger</text><text fill="#000000" font-family="sans-serif" font-size="13" font-weight="bold" lengthAdjust="spacing" textLength="260" x="1097" y="651.6372">OnClientReceivedAllPlayerNetData</text><path d="M239,671.7031 L494,671.7031 L494,678.8359 L484,688.8359 L239,688.8359 L239,671.7031 " fill="#EEEEEE" style="stroke:#000000;stroke-width:1.5;"/><rect fill="none" height="259.1953" style="stroke:#000000;stroke-width:1.5;" width="823.5" x="239" y="671.7031"/><text fill="#000000" font-family="sans-serif" font-size="13" font-weight="bold" lengthAdjust="spacing" textLength="210" x="254" y="684.77">ShareModuleDataServerRpc</text><line style="stroke:#181818;stroke-width:1.0;" x1="775.5" x2="817.5" y1="709.9688" y2="709.9688"/><line style="stroke:#181818;stroke-width:1.0;" x1="817.5" x2="817.5" y1="709.9688" y2="722.9688"/><line style="stroke:#181818;stroke-width:1.0;" x1="776.5" x2="817.5" y1="722.9688" y2="722.9688"/><polygon fill="#181818" points="786.5,718.9688,776.5,722.9688,786.5,726.9688,782.5,722.9688" style="stroke:#181818;stroke-width:1.0;"/><text fill="#000000" font-family="sans-serif" font-size="13" lengthAdjust="spacing" textLength="97" x="782.5" y="704.9028">Start Coroutine</text><path d="M416,737.9688 L494,737.9688 L494,745.1016 L484,755.1016 L416,755.1016 L416,737.9688 " fill="#EEEEEE" style="stroke:#000000;stroke-width:1.5;"/><rect fill="none" height="156.7969" style="stroke:#000000;stroke-width:1.5;" width="636.5" x="416" y="737.9688"/><text fill="#000000" font-family="sans-serif" font-size="13" font-weight="bold" lengthAdjust="spacing" textLength="33" x="431" y="751.0356">loop</text><text fill="#000000" font-family="sans-serif" font-size="11" font-weight="bold" lengthAdjust="spacing" textLength="227" x="509" y="750.1792">[for all IMlprData in dataModules]</text><polygon fill="#181818" points="980.5,772.2344,990.5,776.2344,980.5,780.2344,984.5,776.2344" style="stroke:#181818;stroke-width:1.0;"/><line style="stroke:#181818;stroke-width:1.0;" x1="775.5" x2="986.5" y1="776.2344" y2="776.2344"/><text fill="#000000" font-family="sans-serif" font-size="13" lengthAdjust="spacing" textLength="193" x="782.5" y="771.1685">SendSourceData(newClientID)</text><path d="M426,791.2344 L504,791.2344 L504,798.3672 L494,808.3672 L426,808.3672 L426,791.2344 " fill="#EEEEEE" style="stroke:#000000;stroke-width:1.5;"/><rect fill="none" height="46.2656" style="stroke:#000000;stroke-width:1.5;" width="616.5" x="426" y="791.2344"/><text fill="#000000" font-family="sans-serif" font-size="13" font-weight="bold" lengthAdjust="spacing" textLength="33" x="441" y="804.3013">loop</text><text fill="#000000" font-family="sans-serif" font-size="11" font-weight="bold" lengthAdjust="spacing" textLength="162" x="519" y="803.4448">[for all data fragments]</text><polygon fill="#181818" points="487,825.5,477,829.5,487,833.5,483,829.5" style="stroke:#181818;stroke-width:1.0;"/><line style="stroke:#181818;stroke-width:1.0;stroke-dasharray:2.0,2.0;" x1="481" x2="991.5" y1="829.5" y2="829.5"/><text fill="#000000" font-family="sans-serif" font-size="13" lengthAdjust="spacing" textLength="94" x="493" y="824.4341">SendFragment</text><path d="M684,849.5 L684,889.5 L867,889.5 L867,859.5 L857,849.5 L684,849.5 " fill="#FEFFDD" style="stroke:#181818;stroke-width:0.5;"/><path d="M857,849.5 L857,859.5 L867,859.5 L857,849.5 " fill="#FEFFDD" style="stroke:#181818;stroke-width:0.5;"/><text fill="#000000" font-family="sans-serif" font-size="13" lengthAdjust="spacing" textLength="136" x="690" y="866.5669">WaitUntil all MlprData</text><text fill="#000000" font-family="sans-serif" font-size="13" lengthAdjust="spacing" textLength="162" x="690" y="881.6997">fragments were received</text><polygon fill="#181818" points="348.5,918.8984,338.5,922.8984,348.5,926.8984,344.5,922.8984" style="stroke:#181818;stroke-width:1.0;"/><line style="stroke:#181818;stroke-width:1.0;stroke-dasharray:2.0,2.0;" x1="342.5" x2="774.5" y1="922.8984" y2="922.8984"/><text fill="#000000" font-family="sans-serif" font-size="13" lengthAdjust="spacing" textLength="240" x="354.5" y="917.8325">OnClientReceivedAllModulesClientRpc</text><path d="M197,942.8984 L197,967.8984 L477,967.8984 L477,952.8984 L467,942.8984 L197,942.8984 " fill="#FEFFDD" style="stroke:#181818;stroke-width:0.5;"/><path d="M467,942.8984 L467,952.8984 L477,952.8984 L467,942.8984 " fill="#FEFFDD" style="stroke:#181818;stroke-width:0.5;"/><text fill="#000000" font-family="sans-serif" font-size="13" lengthAdjust="spacing" textLength="45" x="203" y="959.9653">Trigger</text><text fill="#000000" font-family="sans-serif" font-size="13" font-weight="bold" lengthAdjust="spacing" textLength="210" x="252" y="959.9653">OnClientReceivedAllModules</text><path d="M68,980.0313 L313,980.0313 L313,987.1641 L303,997.1641 L68,997.1641 L68,980.0313 " fill="#EEEEEE" style="stroke:#000000;stroke-width:1.5;"/><rect fill="none" height="77.3984" style="stroke:#000000;stroke-width:1.5;" width="629" x="68" y="980.0313"/><text fill="#000000" font-family="sans-serif" font-size="13" font-weight="bold" lengthAdjust="spacing" textLength="200" x="83" y="993.0981">ShareSceneBankServerRpc</text><path d="M78,1004.1641 L156,1004.1641 L156,1011.2969 L146,1021.2969 L78,1021.2969 L78,1004.1641 " fill="#EEEEEE" style="stroke:#000000;stroke-width:1.5;"/><rect fill="none" height="46.2656" style="stroke:#000000;stroke-width:1.5;" width="609" x="78" y="1004.1641"/><text fill="#000000" font-family="sans-serif" font-size="13" font-weight="bold" lengthAdjust="spacing" textLength="33" x="93" y="1017.231">loop</text><text fill="#000000" font-family="sans-serif" font-size="11" font-weight="bold" lengthAdjust="spacing" textLength="129" x="171" y="1016.3745">[for all scene data]</text><polygon fill="#181818" points="174.5,1038.4297,164.5,1042.4297,174.5,1046.4297,170.5,1042.4297" style="stroke:#181818;stroke-width:1.0;"/><line style="stroke:#181818;stroke-width:1.0;stroke-dasharray:2.0,2.0;" x1="168.5" x2="600.5" y1="1042.4297" y2="1042.4297"/><text fill="#000000" font-family="sans-serif" font-size="13" lengthAdjust="spacing" textLength="246" x="180.5" y="1037.3638">ShareSceneBankClientRpc(sceneData)</text><!--SRC=[lLHDKzj03BtdLsXo2fv0xfs16OhRD8S4Xi3qW7jOsqgwWz5wTZS4_dsrk_wASI2dtkBewUcjzAHKlS5uXNkuAIII7OzAeQtCP2d8mbqXtb63C717sK4abg-upf1mAKXi0oPUBtkekNZ15TfOMD71pLTn7xWiIkrGBbp_PWXIdggtqIXr8jUeNvbWyaiPUpO-HOqvKOpvKeivb79TQ1JvEzme8imivbNtO3QJizdH7efJkoFQfs-rsfLmImpSA_syBiMUuEd76sOxAnM1qZddIGCxUYR5iPI1Y9HGNPZoWKf_Hk1c2kTNrJZW6qJHOvaBYo5nnJbcGVn4AoIXDb6KaDcb9jCoHGDM9HH5jnHUVeyPyX3owwAeqaEvA1eiv9-ne6Pkft8lLRuhq7ZMYgvBV5EWq9rG5JCSMlyL6W-a1J_Tbzc4S1ygBU9fmXFTjnsOGlCvVrp4Pv-G1sr7cLsgtn2VwTnP9_eEV1VqV2IFhL3xu9DNC7sXL0aRnJCl2WXkA3tMS10gjUVTXdtagrhE6f9WgFRnK-ZyuR3kIKuSS44BSkDwLLLqZYHbEH0snMScD94NU142e34BwyCsFXiGABuMU32RpgYwudptk2A2SkUZEZuiTa9fYwuz1fUNGEc3iY4KT3rekNNRUPBTkPvx8FQBYlzJjEEJ0KEEcYPtp6lv9l4fuqJBYpxg6sdH74H9aBiJ4fQmExAhzb8wHfQpLZkT-UBz9UZHEqROQB5zOKGWXGxRUOSxM9R9VrPmZmuE13XiTs3wBQHz92iBNwhcyQ6c9EnHetEZRsvD6TfPim-ipl7hr3ZKU- -3zRuORNlY1eVwyLZqvsKSmhVLlyLVckhaj3lVqBJhvFDwc_CF]--></g></svg>