<?xml version="1.0" encoding="us-ascii" standalone="no"?><svg xmlns="http://www.w3.org/2000/svg" xmlns:xlink="http://www.w3.org/1999/xlink" contentStyleType="text/css" height="1558px" preserveAspectRatio="none" style="width:1148px;height:1558px;background:#FFFFFF;" version="1.1" viewBox="0 0 1148 1558" width="1148px" zoomAndPan="magnify"><defs/><g><rect fill="none" height="536.0625" style="stroke:#000000;stroke-width:1.5;" width="1009.5" x="132" y="256.9609"/><rect fill="none" height="180.7969" style="stroke:#000000;stroke-width:1.5;" width="729.5" x="402" y="310.2266"/><rect fill="#90EE90" height="582.0625" style="stroke:#000000;stroke-width:1.5;" width="853.5" x="278" y="878.2891"/><rect fill="none" height="59.2656" style="stroke:#000000;stroke-width:1.5;" width="188" x="573.5" y="1103.2188"/><rect fill="none" height="59.2656" style="stroke:#000000;stroke-width:1.5;" width="192" x="751.5" y="1205.6172"/><rect fill="#FFC0CB" height="188.4688" style="stroke:none;stroke-width:1.0;" width="853.5" x="278" y="1271.8828"/><rect fill="none" height="59.2656" style="stroke:#000000;stroke-width:1.5;" width="218.5" x="437" y="1394.0859"/><line style="stroke:#181818;stroke-width:0.5;stroke-dasharray:5.0,5.0;" x1="30" x2="30" y1="81.2969" y2="1477.3516"/><line style="stroke:#181818;stroke-width:0.5;stroke-dasharray:5.0,5.0;" x1="210" x2="210" y1="81.2969" y2="1477.3516"/><line style="stroke:#181818;stroke-width:0.5;stroke-dasharray:5.0,5.0;" x1="362" x2="362" y1="81.2969" y2="1477.3516"/><line style="stroke:#181818;stroke-width:0.5;stroke-dasharray:5.0,5.0;" x1="509" x2="509" y1="81.2969" y2="1477.3516"/><line style="stroke:#181818;stroke-width:0.5;stroke-dasharray:5.0,5.0;" x1="667.5" x2="667.5" y1="81.2969" y2="1477.3516"/><line style="stroke:#181818;stroke-width:0.5;stroke-dasharray:5.0,5.0;" x1="847.5" x2="847.5" y1="81.2969" y2="1477.3516"/><line style="stroke:#181818;stroke-width:0.5;stroke-dasharray:5.0,5.0;" x1="1053.5" x2="1053.5" y1="81.2969" y2="1477.3516"/><text fill="#000000" font-family="sans-serif" font-size="14" lengthAdjust="spacing" textLength="44" x="5" y="77.9951">Player</text><ellipse cx="30" cy="13.5" fill="#E2E2F0" rx="8" ry="8" style="stroke:#181818;stroke-width:0.5;"/><path d="M30,21.5 L30,48.5 M17,29.5 L43,29.5 M30,48.5 L17,63.5 M30,48.5 L43,63.5 " fill="none" style="stroke:#181818;stroke-width:0.5;"/><text fill="#000000" font-family="sans-serif" font-size="14" lengthAdjust="spacing" textLength="44" x="5" y="1489.3467">Player</text><ellipse cx="30" cy="1501.1484" fill="#E2E2F0" rx="8" ry="8" style="stroke:#181818;stroke-width:0.5;"/><path d="M30,1509.1484 L30,1536.1484 M17,1517.1484 L43,1517.1484 M30,1536.1484 L17,1551.1484 M30,1536.1484 L43,1551.1484 " fill="none" style="stroke:#181818;stroke-width:0.5;"/><rect fill="#E2E2F0" height="30.2969" rx="2.5" ry="2.5" style="stroke:#181818;stroke-width:0.5;" width="136" x="142" y="50"/><text fill="#000000" font-family="sans-serif" font-size="14" lengthAdjust="spacing" textLength="122" x="149" y="69.9951">Multiplayer Menu</text><rect fill="#E2E2F0" height="30.2969" rx="2.5" ry="2.5" style="stroke:#181818;stroke-width:0.5;" width="136" x="142" y="1476.3516"/><text fill="#000000" font-family="sans-serif" font-size="14" lengthAdjust="spacing" textLength="122" x="149" y="1496.3467">Multiplayer Menu</text><rect fill="#E2E2F0" height="30.2969" rx="2.5" ry="2.5" style="stroke:#181818;stroke-width:0.5;" width="149" x="288" y="50"/><text fill="#000000" font-family="sans-serif" font-size="14" lengthAdjust="spacing" textLength="135" x="295" y="69.9951">Multiplayer Module</text><rect fill="#E2E2F0" height="30.2969" rx="2.5" ry="2.5" style="stroke:#181818;stroke-width:0.5;" width="149" x="288" y="1476.3516"/><text fill="#000000" font-family="sans-serif" font-size="14" lengthAdjust="spacing" textLength="135" x="295" y="1496.3467">Multiplayer Module</text><rect fill="#E2E2F0" height="30.2969" rx="2.5" ry="2.5" style="stroke:#181818;stroke-width:0.5;" width="125" x="447" y="50"/><text fill="#000000" font-family="sans-serif" font-size="14" lengthAdjust="spacing" textLength="111" x="454" y="69.9951">GameNetPortal</text><rect fill="#E2E2F0" height="30.2969" rx="2.5" ry="2.5" style="stroke:#181818;stroke-width:0.5;" width="125" x="447" y="1476.3516"/><text fill="#000000" font-family="sans-serif" font-size="14" lengthAdjust="spacing" textLength="111" x="454" y="1496.3467">GameNetPortal</text><rect fill="#E2E2F0" height="30.2969" rx="2.5" ry="2.5" style="stroke:#181818;stroke-width:0.5;" width="168" x="583.5" y="50"/><text fill="#000000" font-family="sans-serif" font-size="14" lengthAdjust="spacing" textLength="154" x="590.5" y="69.9951">ClientGameNetPortal</text><rect fill="#E2E2F0" height="30.2969" rx="2.5" ry="2.5" style="stroke:#181818;stroke-width:0.5;" width="168" x="583.5" y="1476.3516"/><text fill="#000000" font-family="sans-serif" font-size="14" lengthAdjust="spacing" textLength="154" x="590.5" y="1496.3467">ClientGameNetPortal</text><rect fill="#E2E2F0" height="30.2969" rx="2.5" ry="2.5" style="stroke:#181818;stroke-width:0.5;" width="172" x="761.5" y="50"/><text fill="#000000" font-family="sans-serif" font-size="14" lengthAdjust="spacing" textLength="158" x="768.5" y="69.9951">ServerGameNetPortal</text><rect fill="#E2E2F0" height="30.2969" rx="2.5" ry="2.5" style="stroke:#181818;stroke-width:0.5;" width="172" x="761.5" y="1476.3516"/><text fill="#000000" font-family="sans-serif" font-size="14" lengthAdjust="spacing" textLength="158" x="768.5" y="1496.3467">ServerGameNetPortal</text><rect fill="#E2E2F0" height="30.2969" rx="2.5" ry="2.5" style="stroke:#181818;stroke-width:0.5;" width="136" x="985.5" y="50"/><text fill="#000000" font-family="sans-serif" font-size="14" lengthAdjust="spacing" textLength="122" x="992.5" y="69.9951">NetworkManager</text><rect fill="#E2E2F0" height="30.2969" rx="2.5" ry="2.5" style="stroke:#181818;stroke-width:0.5;" width="136" x="985.5" y="1476.3516"/><text fill="#000000" font-family="sans-serif" font-size="14" lengthAdjust="spacing" textLength="122" x="992.5" y="1496.3467">NetworkManager</text><polygon fill="#181818" points="198,108.4297,208,112.4297,198,116.4297,202,112.4297" style="stroke:#181818;stroke-width:1.0;"/><line style="stroke:#181818;stroke-width:1.0;" x1="30" x2="204" y1="112.4297" y2="112.4297"/><text fill="#000000" font-family="sans-serif" font-size="13" lengthAdjust="spacing" textLength="156" x="37" y="107.3638">Input Server Information</text><polygon fill="#181818" points="198,137.5625,208,141.5625,198,145.5625,202,141.5625" style="stroke:#181818;stroke-width:1.0;"/><line style="stroke:#181818;stroke-width:1.0;" x1="30" x2="204" y1="141.5625" y2="141.5625"/><text fill="#000000" font-family="sans-serif" font-size="13" lengthAdjust="spacing" textLength="109" x="37" y="136.4966">Buttons Host/Join</text><polygon fill="#181818" points="350.5,166.6953,360.5,170.6953,350.5,174.6953,354.5,170.6953" style="stroke:#181818;stroke-width:1.0;"/><line style="stroke:#181818;stroke-width:1.0;" x1="210" x2="356.5" y1="170.6953" y2="170.6953"/><text fill="#000000" font-family="sans-serif" font-size="13" lengthAdjust="spacing" textLength="121" x="217" y="165.6294">OnConnectionStart</text><line style="stroke:#181818;stroke-width:1.0;" x1="362.5" x2="404.5" y1="199.8281" y2="199.8281"/><line style="stroke:#181818;stroke-width:1.0;" x1="404.5" x2="404.5" y1="199.8281" y2="212.8281"/><line style="stroke:#181818;stroke-width:1.0;" x1="363.5" x2="404.5" y1="212.8281" y2="212.8281"/><polygon fill="#181818" points="373.5,208.8281,363.5,212.8281,373.5,216.8281,369.5,212.8281" style="stroke:#181818;stroke-width:1.0;"/><text fill="#000000" font-family="sans-serif" font-size="13" lengthAdjust="spacing" textLength="100" x="369.5" y="194.7622">Start Animation</text><polygon fill="#181818" points="497.5,237.9609,507.5,241.9609,497.5,245.9609,501.5,241.9609" style="stroke:#181818;stroke-width:1.0;"/><line style="stroke:#181818;stroke-width:1.0;" x1="210" x2="503.5" y1="241.9609" y2="241.9609"/><text fill="#000000" font-family="sans-serif" font-size="13" lengthAdjust="spacing" textLength="145" x="217" y="236.895">SetConnectionSettings</text><path d="M132,256.9609 L198,256.9609 L198,264.0938 L188,274.0938 L132,274.0938 L132,256.9609 " fill="#EEEEEE" style="stroke:#000000;stroke-width:1.5;"/><rect fill="none" height="536.0625" style="stroke:#000000;stroke-width:1.5;" width="1009.5" x="132" y="256.9609"/><text fill="#000000" font-family="sans-serif" font-size="13" font-weight="bold" lengthAdjust="spacing" textLength="21" x="147" y="270.0278">alt</text><text fill="#000000" font-family="sans-serif" font-size="11" font-weight="bold" lengthAdjust="spacing" textLength="107" x="213" y="269.1714">["Host Session"]</text><polygon fill="#181818" points="497.5,291.2266,507.5,295.2266,497.5,299.2266,501.5,295.2266" style="stroke:#181818;stroke-width:1.0;"/><line style="stroke:#181818;stroke-width:1.0;" x1="210" x2="503.5" y1="295.2266" y2="295.2266"/><text fill="#000000" font-family="sans-serif" font-size="13" lengthAdjust="spacing" textLength="60" x="217" y="290.1606">StartHost</text><path d="M402,310.2266 L468,310.2266 L468,317.3594 L458,327.3594 L402,327.3594 L402,310.2266 " fill="#EEEEEE" style="stroke:#000000;stroke-width:1.5;"/><rect fill="none" height="180.7969" style="stroke:#000000;stroke-width:1.5;" width="729.5" x="402" y="310.2266"/><text fill="#000000" font-family="sans-serif" font-size="13" font-weight="bold" lengthAdjust="spacing" textLength="21" x="417" y="323.2935">alt</text><text fill="#000000" font-family="sans-serif" font-size="11" font-weight="bold" lengthAdjust="spacing" textLength="67" x="483" y="322.437">["Is Host"]</text><line style="stroke:#181818;stroke-width:1.0;" x1="509.5" x2="551.5" y1="348.4922" y2="348.4922"/><line style="stroke:#181818;stroke-width:1.0;" x1="551.5" x2="551.5" y1="348.4922" y2="361.4922"/><line style="stroke:#181818;stroke-width:1.0;" x1="510.5" x2="551.5" y1="361.4922" y2="361.4922"/><polygon fill="#181818" points="520.5,357.4922,510.5,361.4922,520.5,365.4922,516.5,361.4922" style="stroke:#181818;stroke-width:1.0;"/><text fill="#000000" font-family="sans-serif" font-size="13" lengthAdjust="spacing" textLength="144" x="516.5" y="343.4263">SetConnectionPayload</text><line style="stroke:#181818;stroke-width:1.0;" x1="509.5" x2="551.5" y1="390.625" y2="390.625"/><line style="stroke:#181818;stroke-width:1.0;" x1="551.5" x2="551.5" y1="390.625" y2="403.625"/><line style="stroke:#181818;stroke-width:1.0;" x1="510.5" x2="551.5" y1="403.625" y2="403.625"/><polygon fill="#181818" points="520.5,399.625,510.5,403.625,520.5,407.625,516.5,403.625" style="stroke:#181818;stroke-width:1.0;"/><text fill="#000000" font-family="sans-serif" font-size="13" lengthAdjust="spacing" textLength="47" x="516.5" y="385.5591">Restart</text><polygon fill="#181818" points="1041.5,428.7578,1051.5,432.7578,1041.5,436.7578,1045.5,432.7578" style="stroke:#181818;stroke-width:1.0;"/><line style="stroke:#181818;stroke-width:1.0;" x1="509.5" x2="1047.5" y1="432.7578" y2="432.7578"/><text fill="#000000" font-family="sans-serif" font-size="13" lengthAdjust="spacing" textLength="66" x="516.5" y="427.6919">ShutDown</text><path d="M412,445.7578 L412,485.7578 L606,485.7578 L606,455.7578 L596,445.7578 L412,445.7578 " fill="#FEFFDD" style="stroke:#181818;stroke-width:0.5;"/><path d="M596,445.7578 L596,455.7578 L606,455.7578 L596,445.7578 " fill="#FEFFDD" style="stroke:#181818;stroke-width:0.5;"/><text fill="#000000" font-family="sans-serif" font-size="13" lengthAdjust="spacing" textLength="173" x="418" y="462.8247">Wait Until NetworkManager</text><text fill="#000000" font-family="sans-serif" font-size="13" lengthAdjust="spacing" textLength="92" x="418" y="477.9575">is not listening</text><polygon fill="#181818" points="1041.5,515.1563,1051.5,519.1563,1041.5,523.1563,1045.5,519.1563" style="stroke:#181818;stroke-width:1.0;"/><line style="stroke:#181818;stroke-width:1.0;" x1="509.5" x2="1047.5" y1="519.1563" y2="519.1563"/><text fill="#000000" font-family="sans-serif" font-size="13" lengthAdjust="spacing" textLength="60" x="516.5" y="514.0903">StartHost</text><line style="stroke:#000000;stroke-width:1.0;stroke-dasharray:2.0,2.0;" x1="132" x2="1141.5" y1="528.1563" y2="528.1563"/><text fill="#000000" font-family="sans-serif" font-size="11" font-weight="bold" lengthAdjust="spacing" textLength="100" x="137" y="538.3667">["Join Session"]</text><polygon fill="#181818" points="497.5,559.0938,507.5,563.0938,497.5,567.0938,501.5,563.0938" style="stroke:#181818;stroke-width:1.0;"/><line style="stroke:#181818;stroke-width:1.0;" x1="210" x2="503.5" y1="563.0938" y2="563.0938"/><text fill="#000000" font-family="sans-serif" font-size="13" lengthAdjust="spacing" textLength="67" x="217" y="558.0278">StartClient</text><polygon fill="#181818" points="655.5,588.2266,665.5,592.2266,655.5,596.2266,659.5,592.2266" style="stroke:#181818;stroke-width:1.0;"/><line style="stroke:#181818;stroke-width:1.0;" x1="509.5" x2="661.5" y1="592.2266" y2="592.2266"/><text fill="#000000" font-family="sans-serif" font-size="13" lengthAdjust="spacing" textLength="67" x="516.5" y="587.1606">StartClient</text><line style="stroke:#181818;stroke-width:1.0;" x1="667.5" x2="709.5" y1="621.3594" y2="621.3594"/><line style="stroke:#181818;stroke-width:1.0;" x1="709.5" x2="709.5" y1="621.3594" y2="634.3594"/><line style="stroke:#181818;stroke-width:1.0;" x1="668.5" x2="709.5" y1="634.3594" y2="634.3594"/><polygon fill="#181818" points="678.5,630.3594,668.5,634.3594,678.5,638.3594,674.5,634.3594" style="stroke:#181818;stroke-width:1.0;"/><text fill="#000000" font-family="sans-serif" font-size="13" lengthAdjust="spacing" textLength="144" x="674.5" y="616.2935">SetConnectionPayload</text><line style="stroke:#181818;stroke-width:1.0;" x1="667.5" x2="709.5" y1="663.4922" y2="663.4922"/><line style="stroke:#181818;stroke-width:1.0;" x1="709.5" x2="709.5" y1="663.4922" y2="676.4922"/><line style="stroke:#181818;stroke-width:1.0;" x1="668.5" x2="709.5" y1="676.4922" y2="676.4922"/><polygon fill="#181818" points="678.5,672.4922,668.5,676.4922,678.5,680.4922,674.5,676.4922" style="stroke:#181818;stroke-width:1.0;"/><text fill="#000000" font-family="sans-serif" font-size="13" lengthAdjust="spacing" textLength="47" x="674.5" y="658.4263">Restart</text><polygon fill="#181818" points="1041.5,701.625,1051.5,705.625,1041.5,709.625,1045.5,705.625" style="stroke:#181818;stroke-width:1.0;"/><line style="stroke:#181818;stroke-width:1.0;" x1="667.5" x2="1047.5" y1="705.625" y2="705.625"/><text fill="#000000" font-family="sans-serif" font-size="13" lengthAdjust="spacing" textLength="66" x="674.5" y="700.5591">ShutDown</text><path d="M570,718.625 L570,758.625 L764,758.625 L764,728.625 L754,718.625 L570,718.625 " fill="#FEFFDD" style="stroke:#181818;stroke-width:0.5;"/><path d="M754,718.625 L754,728.625 L764,728.625 L754,718.625 " fill="#FEFFDD" style="stroke:#181818;stroke-width:0.5;"/><text fill="#000000" font-family="sans-serif" font-size="13" lengthAdjust="spacing" textLength="173" x="576" y="735.6919">Wait Until NetworkManager</text><text fill="#000000" font-family="sans-serif" font-size="13" lengthAdjust="spacing" textLength="92" x="576" y="750.8247">is not listening</text><polygon fill="#181818" points="1041.5,781.0234,1051.5,785.0234,1041.5,789.0234,1045.5,785.0234" style="stroke:#181818;stroke-width:1.0;"/><line style="stroke:#181818;stroke-width:1.0;" x1="667.5" x2="1047.5" y1="785.0234" y2="785.0234"/><text fill="#000000" font-family="sans-serif" font-size="13" lengthAdjust="spacing" textLength="67" x="674.5" y="779.9575">StartClient</text><polygon fill="#181818" points="858.5,817.1563,848.5,821.1563,858.5,825.1563,854.5,821.1563" style="stroke:#181818;stroke-width:1.0;"/><line style="stroke:#181818;stroke-width:1.0;" x1="852.5" x2="1052.5" y1="821.1563" y2="821.1563"/><text fill="#000000" font-family="sans-serif" font-size="13" lengthAdjust="spacing" textLength="182" x="864.5" y="816.0903">ConnectionApprovalCallback</text><line style="stroke:#181818;stroke-width:1.0;" x1="847.5" x2="889.5" y1="850.2891" y2="850.2891"/><line style="stroke:#181818;stroke-width:1.0;" x1="889.5" x2="889.5" y1="850.2891" y2="863.2891"/><line style="stroke:#181818;stroke-width:1.0;" x1="848.5" x2="889.5" y1="863.2891" y2="863.2891"/><polygon fill="#181818" points="858.5,859.2891,848.5,863.2891,858.5,867.2891,854.5,863.2891" style="stroke:#181818;stroke-width:1.0;"/><text fill="#000000" font-family="sans-serif" font-size="13" lengthAdjust="spacing" textLength="96" x="854.5" y="845.2231">ApprovalCheck</text><path d="M278,878.2891 L344,878.2891 L344,885.4219 L334,895.4219 L278,895.4219 L278,878.2891 " fill="#EEEEEE" style="stroke:#000000;stroke-width:1.5;"/><rect fill="none" height="582.0625" style="stroke:#000000;stroke-width:1.5;" width="853.5" x="278" y="878.2891"/><text fill="#000000" font-family="sans-serif" font-size="13" font-weight="bold" lengthAdjust="spacing" textLength="21" x="293" y="891.356">alt</text><text fill="#000000" font-family="sans-serif" font-size="11" font-weight="bold" lengthAdjust="spacing" textLength="153" x="359" y="890.4995">["Connection Success"]</text><polygon fill="#181818" points="1041.5,912.5547,1051.5,916.5547,1041.5,920.5547,1045.5,916.5547" style="stroke:#181818;stroke-width:1.0;"/><line style="stroke:#181818;stroke-width:1.0;" x1="847.5" x2="1047.5" y1="916.5547" y2="916.5547"/><text fill="#000000" font-family="sans-serif" font-size="13" lengthAdjust="spacing" textLength="170" x="854.5" y="911.4888">ConnectionApproved(true)</text><polygon fill="#181818" points="373.5,941.6875,363.5,945.6875,373.5,949.6875,369.5,945.6875" style="stroke:#181818;stroke-width:1.0;"/><line style="stroke:#181818;stroke-width:1.0;" x1="367.5" x2="1052.5" y1="945.6875" y2="945.6875"/><text fill="#000000" font-family="sans-serif" font-size="13" lengthAdjust="spacing" textLength="142" x="379.5" y="940.6216">OnConnectionSuccess</text><line style="stroke:#181818;stroke-width:1.0;" x1="362.5" x2="404.5" y1="974.8203" y2="974.8203"/><line style="stroke:#181818;stroke-width:1.0;" x1="404.5" x2="404.5" y1="974.8203" y2="987.8203"/><line style="stroke:#181818;stroke-width:1.0;" x1="363.5" x2="404.5" y1="987.8203" y2="987.8203"/><polygon fill="#181818" points="373.5,983.8203,363.5,987.8203,373.5,991.8203,369.5,987.8203" style="stroke:#181818;stroke-width:1.0;"/><text fill="#000000" font-family="sans-serif" font-size="13" lengthAdjust="spacing" textLength="113" x="369.5" y="969.7544">Green Color Flash</text><polygon fill="#181818" points="520.5,1012.9531,510.5,1016.9531,520.5,1020.9531,516.5,1016.9531" style="stroke:#181818;stroke-width:1.0;"/><line style="stroke:#181818;stroke-width:1.0;" x1="514.5" x2="1052.5" y1="1016.9531" y2="1016.9531"/><text fill="#000000" font-family="sans-serif" font-size="13" lengthAdjust="spacing" textLength="176" x="526.5" y="1011.8872">OnClientConnectedCallback</text><line style="stroke:#181818;stroke-width:1.0;" x1="509.5" x2="551.5" y1="1046.0859" y2="1046.0859"/><line style="stroke:#181818;stroke-width:1.0;" x1="551.5" x2="551.5" y1="1046.0859" y2="1059.0859"/><line style="stroke:#181818;stroke-width:1.0;" x1="510.5" x2="551.5" y1="1059.0859" y2="1059.0859"/><polygon fill="#181818" points="520.5,1055.0859,510.5,1059.0859,520.5,1063.0859,516.5,1059.0859" style="stroke:#181818;stroke-width:1.0;"/><text fill="#000000" font-family="sans-serif" font-size="13" lengthAdjust="spacing" textLength="112" x="516.5" y="1041.02">OnNetworkReady</text><polygon fill="#181818" points="655.5,1084.2188,665.5,1088.2188,655.5,1092.2188,659.5,1088.2188" style="stroke:#181818;stroke-width:1.0;"/><line style="stroke:#181818;stroke-width:1.0;" x1="509.5" x2="661.5" y1="1088.2188" y2="1088.2188"/><text fill="#000000" font-family="sans-serif" font-size="13" lengthAdjust="spacing" textLength="112" x="516.5" y="1083.1528">OnNetworkReady</text><path d="M573.5,1103.2188 L639.5,1103.2188 L639.5,1110.3516 L629.5,1120.3516 L573.5,1120.3516 L573.5,1103.2188 " fill="#EEEEEE" style="stroke:#000000;stroke-width:1.5;"/><rect fill="none" height="59.2656" style="stroke:#000000;stroke-width:1.5;" width="188" x="573.5" y="1103.2188"/><text fill="#000000" font-family="sans-serif" font-size="13" font-weight="bold" lengthAdjust="spacing" textLength="21" x="588.5" y="1116.2856">alt</text><text fill="#000000" font-family="sans-serif" font-size="11" font-weight="bold" lengthAdjust="spacing" textLength="97" x="654.5" y="1115.4292">[Is Not CLient]</text><line style="stroke:#181818;stroke-width:1.0;" x1="667.5" x2="709.5" y1="1141.4844" y2="1141.4844"/><line style="stroke:#181818;stroke-width:1.0;" x1="709.5" x2="709.5" y1="1141.4844" y2="1154.4844"/><line style="stroke:#181818;stroke-width:1.0;" x1="668.5" x2="709.5" y1="1154.4844" y2="1154.4844"/><polygon fill="#181818" points="678.5,1150.4844,668.5,1154.4844,678.5,1158.4844,674.5,1154.4844" style="stroke:#181818;stroke-width:1.0;"/><text fill="#000000" font-family="sans-serif" font-size="13" lengthAdjust="spacing" textLength="47" x="674.5" y="1136.4185">Disable</text><line style="stroke:#A80036;stroke-width:2.0;" x1="658.5" x2="676.5" y1="1145.4844" y2="1163.4844"/><line style="stroke:#A80036;stroke-width:2.0;" x1="658.5" x2="676.5" y1="1163.4844" y2="1145.4844"/><polygon fill="#181818" points="835.5,1186.6172,845.5,1190.6172,835.5,1194.6172,839.5,1190.6172" style="stroke:#181818;stroke-width:1.0;"/><line style="stroke:#181818;stroke-width:1.0;" x1="509.5" x2="841.5" y1="1190.6172" y2="1190.6172"/><text fill="#000000" font-family="sans-serif" font-size="13" lengthAdjust="spacing" textLength="112" x="516.5" y="1185.5513">OnNetworkReady</text><path d="M751.5,1205.6172 L817.5,1205.6172 L817.5,1212.75 L807.5,1222.75 L751.5,1222.75 L751.5,1205.6172 " fill="#EEEEEE" style="stroke:#000000;stroke-width:1.5;"/><rect fill="none" height="59.2656" style="stroke:#000000;stroke-width:1.5;" width="192" x="751.5" y="1205.6172"/><text fill="#000000" font-family="sans-serif" font-size="13" font-weight="bold" lengthAdjust="spacing" textLength="21" x="766.5" y="1218.6841">alt</text><text fill="#000000" font-family="sans-serif" font-size="11" font-weight="bold" lengthAdjust="spacing" textLength="97" x="832.5" y="1217.8276">[Is Not Server]</text><line style="stroke:#181818;stroke-width:1.0;" x1="847.5" x2="889.5" y1="1243.8828" y2="1243.8828"/><line style="stroke:#181818;stroke-width:1.0;" x1="889.5" x2="889.5" y1="1243.8828" y2="1256.8828"/><line style="stroke:#181818;stroke-width:1.0;" x1="848.5" x2="889.5" y1="1256.8828" y2="1256.8828"/><polygon fill="#181818" points="858.5,1252.8828,848.5,1256.8828,858.5,1260.8828,854.5,1256.8828" style="stroke:#181818;stroke-width:1.0;"/><text fill="#000000" font-family="sans-serif" font-size="13" lengthAdjust="spacing" textLength="47" x="854.5" y="1238.8169">Disable</text><line style="stroke:#A80036;stroke-width:2.0;" x1="838.5" x2="856.5" y1="1247.8828" y2="1265.8828"/><line style="stroke:#A80036;stroke-width:2.0;" x1="838.5" x2="856.5" y1="1265.8828" y2="1247.8828"/><line style="stroke:#000000;stroke-width:1.0;stroke-dasharray:2.0,2.0;" x1="278" x2="1131.5" y1="1272.8828" y2="1272.8828"/><text fill="#000000" font-family="sans-serif" font-size="11" font-weight="bold" lengthAdjust="spacing" textLength="146" x="283" y="1283.0933">["Connection Failure"]</text><polygon fill="#181818" points="1041.5,1303.8203,1051.5,1307.8203,1041.5,1311.8203,1045.5,1307.8203" style="stroke:#181818;stroke-width:1.0;"/><line style="stroke:#181818;stroke-width:1.0;" x1="847.5" x2="1047.5" y1="1307.8203" y2="1307.8203"/><text fill="#000000" font-family="sans-serif" font-size="13" lengthAdjust="spacing" textLength="175" x="854.5" y="1302.7544">ConnectionApproved(false)</text><polygon fill="#181818" points="373.5,1332.9531,363.5,1336.9531,373.5,1340.9531,369.5,1336.9531" style="stroke:#181818;stroke-width:1.0;"/><line style="stroke:#181818;stroke-width:1.0;" x1="367.5" x2="1052.5" y1="1336.9531" y2="1336.9531"/><text fill="#000000" font-family="sans-serif" font-size="13" lengthAdjust="spacing" textLength="132" x="379.5" y="1331.8872">OnConnectionFailure</text><line style="stroke:#181818;stroke-width:1.0;" x1="362.5" x2="404.5" y1="1366.0859" y2="1366.0859"/><line style="stroke:#181818;stroke-width:1.0;" x1="404.5" x2="404.5" y1="1366.0859" y2="1379.0859"/><line style="stroke:#181818;stroke-width:1.0;" x1="363.5" x2="404.5" y1="1379.0859" y2="1379.0859"/><polygon fill="#181818" points="373.5,1375.0859,363.5,1379.0859,373.5,1383.0859,369.5,1379.0859" style="stroke:#181818;stroke-width:1.0;"/><text fill="#000000" font-family="sans-serif" font-size="13" lengthAdjust="spacing" textLength="99" x="369.5" y="1361.02">Red Color Flash</text><path d="M437,1394.0859 L505,1394.0859 L505,1401.2188 L495,1411.2188 L437,1411.2188 L437,1394.0859 " fill="#EEEEEE" style="stroke:#000000;stroke-width:1.5;"/><rect fill="none" height="59.2656" style="stroke:#000000;stroke-width:1.5;" width="218.5" x="437" y="1394.0859"/><text fill="#000000" font-family="sans-serif" font-size="13" font-weight="bold" lengthAdjust="spacing" textLength="23" x="452" y="1407.1528">ref</text><line style="stroke:#181818;stroke-width:1.0;" x1="509.5" x2="551.5" y1="1432.3516" y2="1432.3516"/><line style="stroke:#181818;stroke-width:1.0;" x1="551.5" x2="551.5" y1="1432.3516" y2="1445.3516"/><line style="stroke:#181818;stroke-width:1.0;" x1="510.5" x2="551.5" y1="1445.3516" y2="1445.3516"/><polygon fill="#181818" points="520.5,1441.3516,510.5,1445.3516,520.5,1449.3516,516.5,1445.3516" style="stroke:#181818;stroke-width:1.0;"/><text fill="#000000" font-family="sans-serif" font-size="13" lengthAdjust="spacing" textLength="127" x="516.5" y="1427.2856">Restart Self Hosting</text><!--SRC=[ZLHDRzim3BthLmZfPJiClUyme7FGh4Nj1Z66dLcRIOIeaY7HBVBlHqbU_DbqDrllyP5yf0GLMIUt6ixe97ZPY0OSgKerO4YkybQJQXAQesbNWPFdLqYsRZLsD5kFY1junG9fQns13enDiHqHCgtGq8oMJNabkZTqCruvvJ7wRjqf1mE7r5wH2z78Rp-uEFbTFfYc_QV6FtlhNe6KDGFApvR86Yz_MK-tZrOPmSSHj3N3poQpnc0LeahYr282FI4UoZkZEkKKpOK636aGZKJA7BmGeDdJa8y9tZEq4bAEue9c80W68liX5HY8CfAMSspXh2tKSzOEVIn-01IX-_BOqjg-cmWOIoXji2hu74x-W2Bvsv3I4wiZgdm8aLfvGiEjnKCqTHGIyLDCqlMDeVOeLy7mgowaZUbbiYKicu3BbanOlINP1uxqVcJ9a6jsB9Wni2ARkT0L7pmIHUowJ7NrfTyrZRDle3FG-WMgaoWxbOvvmO_8O5ohcoTrEDB68HgvwfLasLOLknmiBeUbJ9DX_OLSYr-PLtnu3P9MdDReAgIqcTNyuDnhy4TnaKa5iqhikjF2-jBPP5sVJUVl3g4-Yzdu9tYw97n72fv0zjHjnMpYQ-NXHME4rZnzPyy9wdQrJrD-dYOzAb5hCfQbDEKmJLpzcwqofz6Cxa7frk7_p6WFB75rI9tOV4Wxh4SZalBWRDj8Xtkn_6XmgteVdv_BMeUr_Gi0]--></g></svg>