<?xml version="1.0" encoding="us-ascii" standalone="no"?><svg xmlns="http://www.w3.org/2000/svg" xmlns:xlink="http://www.w3.org/1999/xlink" contentStyleType="text/css" height="613px" preserveAspectRatio="none" style="width:838px;height:613px;background:#FFFFFF;" version="1.1" viewBox="0 0 838 613" width="838px" zoomAndPan="magnify"><defs/><g><rect fill="#DDDDDD" height="601.8516" style="stroke:#181818;stroke-width:0.5;" width="490.5" x="1" y="6"/><text fill="#000000" font-family="sans-serif" font-size="13" font-weight="bold" lengthAdjust="spacing" textLength="44" x="224.25" y="18.0669">Client</text><rect fill="#DDDDDD" height="601.8516" style="stroke:#181818;stroke-width:0.5;" width="159" x="540.5" y="6"/><text fill="#000000" font-family="sans-serif" font-size="13" font-weight="bold" lengthAdjust="spacing" textLength="103" x="568.5" y="18.0669">Server (Host)</text><line style="stroke:#181818;stroke-width:0.5;stroke-dasharray:5.0,5.0;" x1="27" x2="27" y1="101.4297" y2="528.5547"/><line style="stroke:#181818;stroke-width:0.5;stroke-dasharray:5.0,5.0;" x1="171.5" x2="171.5" y1="101.4297" y2="528.5547"/><line style="stroke:#181818;stroke-width:0.5;stroke-dasharray:5.0,5.0;" x1="411.5" x2="411.5" y1="101.4297" y2="528.5547"/><line style="stroke:#181818;stroke-width:0.5;stroke-dasharray:5.0,5.0;" x1="619.5" x2="619.5" y1="101.4297" y2="528.5547"/><text fill="#000000" font-family="sans-serif" font-size="14" lengthAdjust="spacing" textLength="38" x="5" y="98.1279">Diver</text><ellipse cx="27" cy="33.6328" fill="#E2E2F0" rx="8" ry="8" style="stroke:#181818;stroke-width:0.5;"/><path d="M27,41.6328 L27,68.6328 M14,49.6328 L40,49.6328 M27,68.6328 L14,83.6328 M27,68.6328 L40,83.6328 " fill="none" style="stroke:#181818;stroke-width:0.5;"/><text fill="#000000" font-family="sans-serif" font-size="14" lengthAdjust="spacing" textLength="38" x="5" y="540.5498">Diver</text><ellipse cx="27" cy="552.3516" fill="#E2E2F0" rx="8" ry="8" style="stroke:#181818;stroke-width:0.5;"/><path d="M27,560.3516 L27,587.3516 M14,568.3516 L40,568.3516 M27,587.3516 L14,602.3516 M27,587.3516 L40,602.3516 " fill="none" style="stroke:#181818;stroke-width:0.5;"/><rect fill="#E2E2F0" height="30.2969" rx="2.5" ry="2.5" style="stroke:#181818;stroke-width:0.5;" width="99" x="122.5" y="70.1328"/><text fill="#000000" font-family="sans-serif" font-size="14" lengthAdjust="spacing" textLength="85" x="129.5" y="90.1279">DataModule</text><rect fill="#E2E2F0" height="30.2969" rx="2.5" ry="2.5" style="stroke:#181818;stroke-width:0.5;" width="99" x="122.5" y="527.5547"/><text fill="#000000" font-family="sans-serif" font-size="14" lengthAdjust="spacing" textLength="85" x="129.5" y="547.5498">DataModule</text><rect fill="#E2E2F0" height="30.2969" rx="2.5" ry="2.5" style="stroke:#181818;stroke-width:0.5;" width="151" x="336.5" y="70.1328"/><text fill="#000000" font-family="sans-serif" font-size="14" lengthAdjust="spacing" textLength="137" x="343.5" y="90.1279">DiveSceneManager</text><rect fill="#E2E2F0" height="30.2969" rx="2.5" ry="2.5" style="stroke:#181818;stroke-width:0.5;" width="151" x="336.5" y="527.5547"/><text fill="#000000" font-family="sans-serif" font-size="14" lengthAdjust="spacing" textLength="137" x="343.5" y="547.5498">DiveSceneManager</text><rect fill="#E2E2F0" height="30.2969" rx="2.5" ry="2.5" style="stroke:#181818;stroke-width:0.5;" width="151" x="544.5" y="70.1328"/><text fill="#000000" font-family="sans-serif" font-size="14" lengthAdjust="spacing" textLength="137" x="551.5" y="90.1279">DiveSceneManager</text><rect fill="#E2E2F0" height="30.2969" rx="2.5" ry="2.5" style="stroke:#181818;stroke-width:0.5;" width="151" x="544.5" y="527.5547"/><text fill="#000000" font-family="sans-serif" font-size="14" lengthAdjust="spacing" textLength="137" x="551.5" y="547.5498">DiveSceneManager</text><polygon fill="#181818" points="160,143.6953,170,147.6953,160,151.6953,164,147.6953" style="stroke:#181818;stroke-width:1.0;"/><line style="stroke:#181818;stroke-width:1.0;" x1="27" x2="166" y1="147.6953" y2="147.6953"/><text fill="#000000" font-family="sans-serif" font-size="13" lengthAdjust="spacing" textLength="121" x="34" y="127.4966">GenerativeDiveIn()</text><text fill="#000000" font-family="sans-serif" font-size="13" lengthAdjust="spacing" textLength="88" x="34" y="142.6294">DirectDiveIn()</text><polygon fill="#181818" points="400,187.9609,410,191.9609,400,195.9609,404,191.9609" style="stroke:#181818;stroke-width:1.0;"/><line style="stroke:#181818;stroke-width:1.0;" x1="172" x2="406" y1="191.9609" y2="191.9609"/><text fill="#000000" font-family="sans-serif" font-size="13" lengthAdjust="spacing" textLength="216" x="179" y="171.7622">SwitchingServerRPC(rootSceneID,</text><text fill="#000000" font-family="sans-serif" font-size="13" lengthAdjust="spacing" textLength="149" x="179" y="186.895">targetSceneID, diverID)</text><polygon fill="#181818" points="608,217.0938,618,221.0938,608,225.0938,612,221.0938" style="stroke:#181818;stroke-width:1.0;"/><line style="stroke:#181818;stroke-width:1.0;stroke-dasharray:2.0,2.0;" x1="412" x2="614" y1="221.0938" y2="221.0938"/><text fill="#000000" font-family="sans-serif" font-size="13" lengthAdjust="spacing" textLength="128" x="419" y="216.0278">execution on server</text><line style="stroke:#181818;stroke-width:1.0;" x1="620" x2="662" y1="265.3594" y2="265.3594"/><line style="stroke:#181818;stroke-width:1.0;" x1="662" x2="662" y1="265.3594" y2="278.3594"/><line style="stroke:#181818;stroke-width:1.0;" x1="621" x2="662" y1="278.3594" y2="278.3594"/><polygon fill="#181818" points="631,274.3594,621,278.3594,631,282.3594,627,278.3594" style="stroke:#181818;stroke-width:1.0;"/><text fill="#000000" font-family="sans-serif" font-size="13" lengthAdjust="spacing" textLength="154" x="627" y="245.1606">HideScene(rootSceneID,</text><text fill="#000000" font-family="sans-serif" font-size="13" lengthAdjust="spacing" textLength="50" x="627" y="260.2935">diverID)</text><line style="stroke:#181818;stroke-width:1.0;" x1="620" x2="662" y1="322.625" y2="322.625"/><line style="stroke:#181818;stroke-width:1.0;" x1="662" x2="662" y1="322.625" y2="335.625"/><line style="stroke:#181818;stroke-width:1.0;" x1="621" x2="662" y1="335.625" y2="335.625"/><polygon fill="#181818" points="631,331.625,621,335.625,631,339.625,627,335.625" style="stroke:#181818;stroke-width:1.0;"/><text fill="#000000" font-family="sans-serif" font-size="13" lengthAdjust="spacing" textLength="174" x="627" y="302.4263">ShowScene(targetSceneID,</text><text fill="#000000" font-family="sans-serif" font-size="13" lengthAdjust="spacing" textLength="50" x="627" y="317.5591">diverID)</text><line style="stroke:#181818;stroke-width:1.0;" x1="620" x2="662" y1="379.8906" y2="379.8906"/><line style="stroke:#181818;stroke-width:1.0;" x1="662" x2="662" y1="379.8906" y2="392.8906"/><line style="stroke:#181818;stroke-width:1.0;" x1="621" x2="662" y1="392.8906" y2="392.8906"/><polygon fill="#181818" points="631,388.8906,621,392.8906,631,396.8906,627,392.8906" style="stroke:#181818;stroke-width:1.0;"/><text fill="#000000" font-family="sans-serif" font-size="13" lengthAdjust="spacing" textLength="204" x="627" y="359.6919">UpdatePlayerData(rootSceneID,</text><text fill="#000000" font-family="sans-serif" font-size="13" lengthAdjust="spacing" textLength="50" x="627" y="374.8247">diverID)</text><polygon fill="#181818" points="423,433.1563,413,437.1563,423,441.1563,419,437.1563" style="stroke:#181818;stroke-width:1.0;"/><line style="stroke:#181818;stroke-width:1.0;stroke-dasharray:2.0,2.0;" x1="417" x2="619" y1="437.1563" y2="437.1563"/><text fill="#000000" font-family="sans-serif" font-size="13" lengthAdjust="spacing" textLength="184" x="429" y="416.9575">UpdatePlayerDataClientRPC(</text><text fill="#000000" font-family="sans-serif" font-size="13" lengthAdjust="spacing" textLength="114" x="429" y="432.0903">ClientRpcParams)</text><polygon fill="#181818" points="183,462.2891,173,466.2891,183,470.2891,179,466.2891" style="stroke:#181818;stroke-width:1.0;"/><line style="stroke:#181818;stroke-width:1.0;" x1="177" x2="411" y1="466.2891" y2="466.2891"/><text fill="#000000" font-family="sans-serif" font-size="13" lengthAdjust="spacing" textLength="153" x="189" y="461.2231">SceneSwitchIsFinished()</text><polygon fill="#181818" points="38,506.5547,28,510.5547,38,514.5547,34,510.5547" style="stroke:#181818;stroke-width:1.0;"/><line style="stroke:#181818;stroke-width:1.0;" x1="32" x2="171" y1="510.5547" y2="510.5547"/><text fill="#000000" font-family="sans-serif" font-size="13" lengthAdjust="spacing" textLength="89" x="44" y="490.356">You are in the</text><text fill="#000000" font-family="sans-serif" font-size="13" lengthAdjust="spacing" textLength="100" x="44" y="505.4888">new dive scene</text><!--SRC=[ZP4nQyCm48Lt_OeR7TCCNJDqYMZj8H1gEXIyNAGZ5gGd8rsQzD_NaXANj0GA6YJqllTEJpj_XhfU7nonrBL28pw0TfyK02DODM8GPzo8BA1HSEFjyK3fJc_MZxVN4zKPOjeWuxuOw2wfYEtEdvNQvR2EGhAl6XzbCMN-mwEPBImidtBq2bucMK2PY4IrN2rwrYwGaUjP9M46kanq9oTcSBml8xnkrrNmNd9Wgnzw5WnxcizWKm-jNYYL3M1Ph9eLq9dCKPndc5RCRadJmAned2ql-HKnUzxAky6VYlnsXhl0ssXHQ7l0BmhfO-x5NB1h2TFkBrk-FzNHysK_cYq6_8W_Ro-rPpx7b3BR-EpOnO5ibQGNfLt1kpy21WB780Frp7JAVK9Cy3S0]--></g></svg>