<?xml version="1.0" encoding="us-ascii" standalone="no"?><svg xmlns="http://www.w3.org/2000/svg" xmlns:xlink="http://www.w3.org/1999/xlink" contentStyleType="text/css" height="358px" preserveAspectRatio="none" style="width:920px;height:358px;background:#FFFFFF;" version="1.1" viewBox="0 0 920 358" width="920px" zoomAndPan="magnify"><defs/><g><rect fill="#DDDDDD" height="346.0547" style="stroke:#181818;stroke-width:0.5;" width="632.5" x="282" y="6"/><text fill="#000000" font-family="sans-serif" font-size="13" font-weight="bold" lengthAdjust="spacing" textLength="134" x="531.25" y="18.0669">Virtual Controller</text><rect fill="#FFFFFF" height="159.9297" style="stroke:#181818;stroke-width:1.0;" width="10" x="534" y="66.4297"/><rect fill="#FFFFFF" height="38.1328" style="stroke:#181818;stroke-width:1.0;" width="10" x="647" y="270.625"/><line style="stroke:#181818;stroke-width:0.5;stroke-dasharray:5.0,5.0;" x1="79" x2="79" y1="56.4297" y2="317.7578"/><line style="stroke:#181818;stroke-width:0.5;stroke-dasharray:5.0,5.0;" x1="219" x2="219" y1="56.4297" y2="317.7578"/><line style="stroke:#181818;stroke-width:0.5;stroke-dasharray:5.0,5.0;" x1="366" x2="366" y1="56.4297" y2="317.7578"/><line style="stroke:#181818;stroke-width:0.5;stroke-dasharray:5.0,5.0;" x1="538.5" x2="538.5" y1="56.4297" y2="317.7578"/><line style="stroke:#181818;stroke-width:0.5;stroke-dasharray:5.0,5.0;" x1="651.5" x2="651.5" y1="56.4297" y2="317.7578"/><line style="stroke:#181818;stroke-width:0.5;stroke-dasharray:5.0,5.0;" x1="811.5" x2="811.5" y1="56.4297" y2="317.7578"/><rect fill="#E2E2F0" height="30.2969" rx="2.5" ry="2.5" style="stroke:#181818;stroke-width:0.5;" width="148" x="5" y="25.1328"/><text fill="#000000" font-family="sans-serif" font-size="14" lengthAdjust="spacing" textLength="134" x="12" y="45.1279">Physical Controller</text><rect fill="#E2E2F0" height="30.2969" rx="2.5" ry="2.5" style="stroke:#181818;stroke-width:0.5;" width="148" x="5" y="316.7578"/><text fill="#000000" font-family="sans-serif" font-size="14" lengthAdjust="spacing" textLength="134" x="12" y="336.7529">Physical Controller</text><rect fill="#E2E2F0" height="30.2969" rx="2.5" ry="2.5" style="stroke:#181818;stroke-width:0.5;" width="113" x="163" y="25.1328"/><text fill="#000000" font-family="sans-serif" font-size="14" lengthAdjust="spacing" textLength="99" x="170" y="45.1279">Switch Action</text><rect fill="#E2E2F0" height="30.2969" rx="2.5" ry="2.5" style="stroke:#181818;stroke-width:0.5;" width="113" x="163" y="316.7578"/><text fill="#000000" font-family="sans-serif" font-size="14" lengthAdjust="spacing" textLength="99" x="170" y="336.7529">Switch Action</text><rect fill="#E2E2F0" height="30.2969" rx="2.5" ry="2.5" style="stroke:#181818;stroke-width:0.5;" width="160" x="286" y="25.1328"/><text fill="#000000" font-family="sans-serif" font-size="14" lengthAdjust="spacing" textLength="146" x="293" y="45.1279">Input Mode Manager</text><rect fill="#E2E2F0" height="30.2969" rx="2.5" ry="2.5" style="stroke:#181818;stroke-width:0.5;" width="160" x="286" y="316.7578"/><text fill="#000000" font-family="sans-serif" font-size="14" lengthAdjust="spacing" textLength="146" x="293" y="336.7529">Input Mode Manager</text><rect fill="#E2E2F0" height="30.2969" rx="2.5" ry="2.5" style="stroke:#181818;stroke-width:0.5;" width="103" x="487.5" y="25.1328"/><text fill="#000000" font-family="sans-serif" font-size="14" lengthAdjust="spacing" textLength="81" x="494.5" y="45.1279">Input Mode</text><text fill="#000000" font-family="sans-serif" font-size="14" font-style="italic" lengthAdjust="spacing" textLength="4" x="579.5" y="45.1279">i</text><rect fill="#E2E2F0" height="30.2969" rx="2.5" ry="2.5" style="stroke:#181818;stroke-width:0.5;" width="103" x="487.5" y="316.7578"/><text fill="#000000" font-family="sans-serif" font-size="14" lengthAdjust="spacing" textLength="81" x="494.5" y="336.7529">Input Mode</text><text fill="#000000" font-family="sans-serif" font-size="14" font-style="italic" lengthAdjust="spacing" textLength="4" x="579.5" y="336.7529">i</text><rect fill="#E2E2F0" height="30.2969" rx="2.5" ry="2.5" style="stroke:#181818;stroke-width:0.5;" width="103" x="600.5" y="25.1328"/><text fill="#000000" font-family="sans-serif" font-size="14" lengthAdjust="spacing" textLength="81" x="607.5" y="45.1279">Input Mode</text><text fill="#000000" font-family="sans-serif" font-size="14" font-style="italic" lengthAdjust="spacing" textLength="4" x="692.5" y="45.1279">j</text><rect fill="#E2E2F0" height="30.2969" rx="2.5" ry="2.5" style="stroke:#181818;stroke-width:0.5;" width="103" x="600.5" y="316.7578"/><text fill="#000000" font-family="sans-serif" font-size="14" lengthAdjust="spacing" textLength="81" x="607.5" y="336.7529">Input Mode</text><text fill="#000000" font-family="sans-serif" font-size="14" font-style="italic" lengthAdjust="spacing" textLength="4" x="692.5" y="336.7529">j</text><rect fill="#E2E2F0" height="30.2969" rx="2.5" ry="2.5" style="stroke:#181818;stroke-width:0.5;" width="197" x="713.5" y="25.1328"/><text fill="#000000" font-family="sans-serif" font-size="14" lengthAdjust="spacing" textLength="183" x="720.5" y="45.1279">Buttons Information Tags</text><rect fill="#E2E2F0" height="30.2969" rx="2.5" ry="2.5" style="stroke:#181818;stroke-width:0.5;" width="197" x="713.5" y="316.7578"/><text fill="#000000" font-family="sans-serif" font-size="14" lengthAdjust="spacing" textLength="183" x="720.5" y="336.7529">Buttons Information Tags</text><rect fill="#FFFFFF" height="159.9297" style="stroke:#181818;stroke-width:1.0;" width="10" x="534" y="66.4297"/><rect fill="#FFFFFF" height="38.1328" style="stroke:#181818;stroke-width:1.0;" width="10" x="647" y="270.625"/><polygon fill="#181818" points="207.5,83.5625,217.5,87.5625,207.5,91.5625,211.5,87.5625" style="stroke:#181818;stroke-width:1.0;"/><line style="stroke:#181818;stroke-width:1.0;" x1="79" x2="213.5" y1="87.5625" y2="87.5625"/><text fill="#000000" font-family="sans-serif" font-size="13" lengthAdjust="spacing" textLength="97" x="86" y="82.4966">Button Pressed</text><polygon fill="#181818" points="354,112.6953,364,116.6953,354,120.6953,358,116.6953" style="stroke:#181818;stroke-width:1.0;"/><line style="stroke:#181818;stroke-width:1.0;" x1="219.5" x2="360" y1="116.6953" y2="116.6953"/><text fill="#000000" font-family="sans-serif" font-size="13" lengthAdjust="spacing" textLength="111" x="226.5" y="111.6294">action.performed</text><path d="M281,129.6953 L281,184.6953 L451,184.6953 L451,139.6953 L441,129.6953 L281,129.6953 " fill="#FEFFDD" style="stroke:#181818;stroke-width:0.5;"/><path d="M441,129.6953 L441,139.6953 L451,139.6953 L441,129.6953 " fill="#FEFFDD" style="stroke:#181818;stroke-width:0.5;"/><text fill="#000000" font-family="sans-serif" font-size="13" lengthAdjust="spacing" textLength="132" x="287" y="146.7622">controllerModeID++;</text><text fill="#000000" font-family="sans-serif" font-size="13" lengthAdjust="spacing" textLength="145" x="287" y="161.895">if controllerModeID &gt; 2</text><text fill="#000000" font-family="sans-serif" font-size="13" lengthAdjust="spacing" textLength="133" x="303" y="177.0278">controllerModeID = 0</text><polygon fill="#181818" points="527,222.3594,537,226.3594,527,230.3594,531,226.3594" style="stroke:#181818;stroke-width:1.0;"/><line style="stroke:#181818;stroke-width:1.0;" x1="366" x2="533" y1="226.3594" y2="226.3594"/><text fill="#000000" font-family="sans-serif" font-size="13" lengthAdjust="spacing" textLength="144" x="373" y="206.1606">deactivate action map</text><text fill="#000000" font-family="sans-serif" font-size="13" lengthAdjust="spacing" textLength="134" x="373" y="221.2935">deactivate interactor</text><polygon fill="#181818" points="635,266.625,645,270.625,635,274.625,639,270.625" style="stroke:#181818;stroke-width:1.0;"/><line style="stroke:#181818;stroke-width:1.0;" x1="366" x2="641" y1="270.625" y2="270.625"/><text fill="#000000" font-family="sans-serif" font-size="13" lengthAdjust="spacing" textLength="128" x="373" y="250.4263">activate action map</text><text fill="#000000" font-family="sans-serif" font-size="13" lengthAdjust="spacing" textLength="118" x="373" y="265.5591">activate interactor</text><polygon fill="#181818" points="800,295.7578,810,299.7578,800,303.7578,804,299.7578" style="stroke:#181818;stroke-width:1.0;"/><line style="stroke:#181818;stroke-width:1.0;" x1="366" x2="806" y1="299.7578" y2="299.7578"/><text fill="#000000" font-family="sans-serif" font-size="13" lengthAdjust="spacing" textLength="75" x="373" y="294.6919">update text</text><!--SRC=[VL0zRuCm4DtlLvnOKKlLaQgH25s8X8H4rAdB5Pp44R4jSwJflwzjKWHAMc- -zt7ldI7Bif6656DK7RvxsL27kLPiTTS96o7rMELWvhpwIt9pmAnXgLLWr1d0fxvWz2uj3qk7fRPGPc0iTIkm94NxwugYBF_a9ObCaYkh-8Trd5YR9MizC6lb0BNJzaG-DMvftmVskjY2KArB3q2kqPbOX4LGvVYmSjLI70smigBlHGjGPnvncLEaS8H78wptTg3IJg_FmePEw5uptS87BTxY-2NCvUu6mXK-1-oU3b_noKT5lmB0sOyfYXHRCKKV0-69p8UQZQLYOTrFMvXDGy_9Q8DnF3QwSRhdyojq5qnnCAs7MLpu1m00]--></g></svg>